# Blender 4.0.1
# www.blender.org
mtllib Buttons_Boombox.mtl
o Buttons
v -0.500000 0.000000 -0.100000
v -0.500000 1.300000 -0.100000
v -0.500000 0.000000 -1.100000
v -0.500000 1.300000 -1.100000
v 0.500000 0.000000 -0.100000
v 0.500000 1.300000 -0.100000
v 0.500000 0.000000 -1.100000
v 0.500000 1.300000 -1.100000
v 0.700000 1.360000 -0.100000
v 0.700000 1.522240 -0.100000
v 0.700000 1.360000 -1.100000
v 0.700000 1.522240 -1.100000
v 1.700000 1.360000 -0.100000
v 1.700000 1.522240 -0.100000
v 1.700000 1.360000 -1.100000
v 1.700000 1.522240 -1.100000
v -1.700000 1.360000 -0.100000
v -1.700000 1.522240 -0.100000
v -1.700000 1.360000 -1.100000
v -1.700000 1.522240 -1.100000
v -0.700000 1.360000 -0.100000
v -0.700000 1.522240 -0.100000
v -0.700000 1.360000 -1.100000
v -0.700000 1.522240 -1.100000
v -1.720000 2.110000 -1.050000
v -1.720000 2.110000 -0.750000
v -1.690737 2.107118 -1.050000
v -1.690737 2.107118 -0.750000
v -1.662598 2.098582 -1.050000
v -1.662598 2.098582 -0.750000
v -1.636665 2.084721 -1.050000
v -1.636665 2.084720 -0.750000
v -1.613934 2.066066 -1.050000
v -1.613934 2.066066 -0.750000
v -1.595280 2.043336 -1.050000
v -1.595280 2.043336 -0.750000
v -1.581418 2.017403 -1.050000
v -1.581418 2.017403 -0.750000
v -1.572882 1.989264 -1.050000
v -1.572882 1.989264 -0.750000
v -1.570000 1.960000 -1.050000
v -1.570000 1.960000 -0.750000
v -1.572882 1.930737 -1.050000
v -1.572882 1.930736 -0.750000
v -1.581418 1.902598 -1.050000
v -1.581418 1.902598 -0.750000
v -1.595280 1.876665 -1.050000
v -1.595280 1.876665 -0.750000
v -1.613934 1.853934 -1.050000
v -1.613934 1.853934 -0.750000
v -1.636665 1.835280 -1.050000
v -1.636665 1.835280 -0.750000
v -1.662598 1.821418 -1.050000
v -1.662598 1.821418 -0.750000
v -1.690737 1.812882 -1.050000
v -1.690737 1.812882 -0.750000
v -1.720000 1.810000 -1.050000
v -1.720000 1.810000 -0.750000
v -1.749264 1.812882 -1.050000
v -1.749264 1.812882 -0.750000
v -1.777403 1.821418 -1.050000
v -1.777403 1.821418 -0.750000
v -1.803336 1.835280 -1.050000
v -1.803336 1.835280 -0.750000
v -1.826066 1.853934 -1.050000
v -1.826066 1.853934 -0.750000
v -1.844720 1.876665 -1.050000
v -1.844720 1.876665 -0.750000
v -1.858582 1.902598 -1.050000
v -1.858582 1.902598 -0.750000
v -1.867118 1.930737 -1.050000
v -1.867118 1.930736 -0.750000
v -1.870000 1.960000 -1.050000
v -1.870000 1.960000 -0.750000
v -1.867118 1.989264 -1.050000
v -1.867118 1.989264 -0.750000
v -1.858582 2.017403 -1.050000
v -1.858582 2.017403 -0.750000
v -1.844720 2.043336 -1.050000
v -1.844720 2.043336 -0.750000
v -1.826066 2.066066 -1.050000
v -1.826066 2.066066 -0.750000
v -1.803336 2.084721 -1.050000
v -1.803336 2.084720 -0.750000
v -1.777403 2.098582 -1.050000
v -1.777403 2.098582 -0.750000
v -1.749264 2.107118 -1.050000
v -1.749264 2.107118 -0.750000
v -1.430000 1.750000 -0.100000
v -1.430000 1.966320 -0.100000
v -1.430000 1.750000 -1.100000
v -1.430000 1.966320 -1.100000
v 1.430000 1.750000 -0.100000
v 1.430000 1.966320 -0.100000
v 1.430000 1.750000 -1.100000
v 1.430000 1.966320 -1.100000
v 1.814400 1.750000 -0.100000
v 1.814400 2.047440 -0.100000
v 1.814400 1.750000 -1.100000
v 1.814400 2.047440 -1.100000
v 1.585600 1.750000 -0.100000
v 1.585600 2.047440 -0.100000
v 1.585600 1.750000 -1.100000
v 1.585600 2.047440 -1.100000
v 1.314400 2.020000 -0.650000
v 1.314400 2.317440 -0.650000
v 1.314400 2.020000 -0.950000
v 1.314400 2.317440 -0.950000
v 1.085600 2.020000 -0.650000
v 1.085600 2.317440 -0.650000
v 1.085600 2.020000 -0.950000
v 1.085600 2.317440 -0.950000
v 0.914400 2.020000 -0.650000
v 0.914400 2.317440 -0.650000
v 0.914400 2.020000 -0.950000
v 0.914400 2.317440 -0.950000
v 0.685600 2.020000 -0.650000
v 0.685600 2.317440 -0.650000
v 0.685600 2.020000 -0.950000
v 0.685600 2.317440 -0.950000
v 0.514400 2.020000 -0.650000
v 0.514400 2.317440 -0.650000
v 0.514400 2.020000 -0.950000
v 0.514400 2.317440 -0.950000
v 0.285600 2.020000 -0.650000
v 0.285600 2.317440 -0.650000
v 0.285600 2.020000 -0.950000
v 0.285600 2.317440 -0.950000
v -0.153840 1.930000 -0.650000
v -0.153840 2.227440 -0.650000
v -0.153840 1.930000 -0.950000
v -0.153840 2.227440 -0.950000
v -1.046160 1.930000 -0.650000
v -1.046160 2.227440 -0.650000
v -1.046160 1.930000 -0.950000
v -1.046160 2.227440 -0.950000
v -0.600000 2.327440 -0.650000
v -0.153840 2.227440 -0.650000
v -0.564995 2.327132 -0.650000
v -0.530205 2.326209 -0.650000
v -0.495846 2.324677 -0.650000
v -0.462129 2.322546 -0.650000
v -0.429262 2.319828 -0.650000
v -0.397448 2.316541 -0.650000
v -0.366882 2.312704 -0.650000
v -0.337754 2.308342 -0.650000
v -0.310242 2.303481 -0.650000
v -0.284517 2.298151 -0.650000
v -0.260737 2.292385 -0.650000
v -0.239049 2.286219 -0.650000
v -0.219586 2.279690 -0.650000
v -0.202469 2.272839 -0.650000
v -0.187802 2.265708 -0.650000
v -0.175677 2.258342 -0.650000
v -0.166168 2.250785 -0.650000
v -0.159333 2.243083 -0.650000
v -0.155215 2.235286 -0.650000
v -0.153840 2.227440 -0.950000
v -0.600000 2.327440 -0.950000
v -0.155215 2.235286 -0.950000
v -0.159333 2.243083 -0.950000
v -0.166168 2.250785 -0.950000
v -0.175677 2.258342 -0.950000
v -0.187802 2.265708 -0.950000
v -0.202469 2.272839 -0.950000
v -0.219586 2.279690 -0.950000
v -0.239049 2.286219 -0.950000
v -0.260737 2.292385 -0.950000
v -0.284517 2.298151 -0.950000
v -0.310242 2.303481 -0.950000
v -0.337754 2.308342 -0.950000
v -0.366882 2.312704 -0.950000
v -0.397448 2.316541 -0.950000
v -0.429262 2.319828 -0.950000
v -0.462129 2.322546 -0.950000
v -0.495846 2.324677 -0.950000
v -0.530205 2.326209 -0.950000
v -0.564995 2.327132 -0.950000
v -0.600000 2.327440 -0.950000
v -1.046160 2.227440 -0.950000
v -0.635005 2.327132 -0.950000
v -0.669795 2.326209 -0.950000
v -0.704154 2.324677 -0.950000
v -0.737871 2.322546 -0.950000
v -0.770738 2.319828 -0.950000
v -0.802552 2.316541 -0.950000
v -0.833118 2.312704 -0.950000
v -0.862246 2.308342 -0.950000
v -0.889758 2.303481 -0.950000
v -0.915483 2.298151 -0.950000
v -0.939263 2.292385 -0.950000
v -0.960951 2.286219 -0.950000
v -0.980414 2.279690 -0.950000
v -0.997531 2.272839 -0.950000
v -1.012198 2.265708 -0.950000
v -1.024323 2.258342 -0.950000
v -1.033833 2.250785 -0.950000
v -1.040667 2.243083 -0.950000
v -1.044785 2.235286 -0.950000
v -1.046160 2.227440 -0.650000
v -0.600000 2.327440 -0.650000
v -1.044785 2.235286 -0.650000
v -1.040667 2.243083 -0.650000
v -1.033833 2.250785 -0.650000
v -1.024323 2.258342 -0.650000
v -1.012198 2.265708 -0.650000
v -0.997531 2.272839 -0.650000
v -0.980414 2.279690 -0.650000
v -0.960951 2.286219 -0.650000
v -0.939263 2.292385 -0.650000
v -0.915483 2.298151 -0.650000
v -0.889758 2.303481 -0.650000
v -0.862246 2.308342 -0.650000
v -0.833118 2.312704 -0.650000
v -0.802552 2.316541 -0.650000
v -0.770738 2.319828 -0.650000
v -0.737871 2.322546 -0.650000
v -0.704154 2.324677 -0.650000
v -0.669795 2.326209 -0.650000
v -0.635005 2.327132 -0.650000
vn -1.0000 -0.0000 -0.0000
vn -0.0000 -0.0000 -1.0000
vn 1.0000 -0.0000 -0.0000
vn -0.0000 -0.0000 1.0000
vn -0.0000 -1.0000 -0.0000
vn -0.0000 1.0000 -0.0000
vn 0.0980 0.9952 -0.0000
vn 0.2903 0.9569 -0.0000
vn 0.4714 0.8819 -0.0000
vn 0.6344 0.7730 -0.0000
vn 0.7730 0.6344 -0.0000
vn 0.8819 0.4714 -0.0000
vn 0.9569 0.2903 -0.0000
vn 0.9952 0.0980 -0.0000
vn 0.9952 -0.0980 -0.0000
vn 0.9569 -0.2903 -0.0000
vn 0.8819 -0.4714 -0.0000
vn 0.7730 -0.6344 -0.0000
vn 0.6344 -0.7730 -0.0000
vn 0.4714 -0.8819 -0.0000
vn 0.2903 -0.9569 -0.0000
vn 0.0980 -0.9952 -0.0000
vn -0.0980 -0.9952 -0.0000
vn -0.2903 -0.9569 -0.0000
vn -0.4714 -0.8819 -0.0000
vn -0.6344 -0.7730 -0.0000
vn -0.7730 -0.6344 -0.0000
vn -0.8819 -0.4714 -0.0000
vn -0.9569 -0.2903 -0.0000
vn -0.9952 -0.0980 -0.0000
vn -0.9952 0.0980 -0.0000
vn -0.9569 0.2903 -0.0000
vn -0.8819 0.4714 -0.0000
vn -0.7730 0.6344 -0.0000
vn -0.6344 0.7730 -0.0000
vn -0.4714 0.8819 -0.0000
vn -0.2903 0.9569 -0.0000
vn -0.0980 0.9952 -0.0000
vn -0.0088 -1.0000 -0.0000
vn -0.0265 -0.9996 -0.0000
vn -0.0445 -0.9990 -0.0000
vn -0.0631 -0.9980 -0.0000
vn -0.0824 -0.9966 -0.0000
vn -0.1028 -0.9947 -0.0000
vn -0.1245 -0.9922 -0.0000
vn -0.1481 -0.9890 -0.0000
vn -0.1740 -0.9847 -0.0000
vn -0.2029 -0.9792 -0.0000
vn -0.2356 -0.9718 -0.0000
vn -0.2735 -0.9619 -0.0000
vn -0.3180 -0.9481 -0.0000
vn -0.3716 -0.9284 -0.0000
vn -0.4372 -0.8993 -0.0000
vn -0.5192 -0.8546 -0.0000
vn -0.6222 -0.7829 -0.0000
vn -0.7479 -0.6638 -0.0000
vn -0.8843 -0.4670 -0.0000
vn -0.9850 -0.1727 -0.0000
vn 0.0088 -1.0000 -0.0000
vn 0.0265 -0.9996 -0.0000
vn 0.0445 -0.9990 -0.0000
vn 0.0631 -0.9980 -0.0000
vn 0.0824 -0.9966 -0.0000
vn 0.1028 -0.9947 -0.0000
vn 0.1245 -0.9922 -0.0000
vn 0.1481 -0.9890 -0.0000
vn 0.1740 -0.9847 -0.0000
vn 0.2029 -0.9792 -0.0000
vn 0.2356 -0.9718 -0.0000
vn 0.2735 -0.9619 -0.0000
vn 0.3180 -0.9481 -0.0000
vn 0.3716 -0.9284 -0.0000
vn 0.4372 -0.8993 -0.0000
vn 0.5192 -0.8546 -0.0000
vn 0.6222 -0.7829 -0.0000
vn 0.7479 -0.6638 -0.0000
vn 0.8843 -0.4669 -0.0000
vn 0.9850 -0.1727 -0.0000
vt 0.375000 0.000000
vt 0.625000 0.000000
vt 0.625000 0.250000
vt 0.375000 0.250000
vt 0.625000 0.500000
vt 0.375000 0.500000
vt 0.625000 0.750000
vt 0.375000 0.750000
vt 0.625000 1.000000
vt 0.375000 1.000000
vt 0.125000 0.500000
vt 0.125000 0.750000
vt 0.875000 0.500000
vt 0.875000 0.750000
vt 1.000000 0.500000
vt 1.000000 1.000000
vt 0.968750 1.000000
vt 0.968750 0.500000
vt 0.937500 1.000000
vt 0.937500 0.500000
vt 0.906250 1.000000
vt 0.906250 0.500000
vt 0.875000 1.000000
vt 0.843750 1.000000
vt 0.843750 0.500000
vt 0.812500 1.000000
vt 0.812500 0.500000
vt 0.781250 1.000000
vt 0.781250 0.500000
vt 0.750000 1.000000
vt 0.750000 0.500000
vt 0.718750 1.000000
vt 0.718750 0.500000
vt 0.687500 1.000000
vt 0.687500 0.500000
vt 0.656250 1.000000
vt 0.656250 0.500000
vt 0.593750 1.000000
vt 0.593750 0.500000
vt 0.562500 1.000000
vt 0.562500 0.500000
vt 0.531250 1.000000
vt 0.531250 0.500000
vt 0.500000 1.000000
vt 0.500000 0.500000
vt 0.468750 1.000000
vt 0.468750 0.500000
vt 0.437500 1.000000
vt 0.437500 0.500000
vt 0.406250 1.000000
vt 0.406250 0.500000
vt 0.343750 1.000000
vt 0.343750 0.500000
vt 0.312500 1.000000
vt 0.312500 0.500000
vt 0.281250 1.000000
vt 0.281250 0.500000
vt 0.250000 1.000000
vt 0.250000 0.500000
vt 0.218750 1.000000
vt 0.218750 0.500000
vt 0.187500 1.000000
vt 0.187500 0.500000
vt 0.156250 1.000000
vt 0.156250 0.500000
vt 0.125000 1.000000
vt 0.093750 1.000000
vt 0.093750 0.500000
vt 0.062500 1.000000
vt 0.062500 0.500000
vt 0.296822 0.485388
vt 0.250000 0.490000
vt 0.203178 0.485388
vt 0.158156 0.471731
vt 0.116663 0.449553
vt 0.080294 0.419706
vt 0.050447 0.383337
vt 0.028269 0.341844
vt 0.014612 0.296822
vt 0.010000 0.250000
vt 0.014612 0.203178
vt 0.028269 0.158156
vt 0.050447 0.116663
vt 0.080294 0.080294
vt 0.116663 0.050447
vt 0.158156 0.028269
vt 0.203178 0.014612
vt 0.250000 0.010000
vt 0.296822 0.014612
vt 0.341844 0.028269
vt 0.383337 0.050447
vt 0.419706 0.080294
vt 0.449553 0.116663
vt 0.471731 0.158156
vt 0.485388 0.203178
vt 0.490000 0.250000
vt 0.485388 0.296822
vt 0.471731 0.341844
vt 0.449553 0.383337
vt 0.419706 0.419706
vt 0.383337 0.449553
vt 0.341844 0.471731
vt 0.031250 1.000000
vt 0.031250 0.500000
vt 0.000000 1.000000
vt 0.000000 0.500000
vt 0.750000 0.490000
vt 0.796822 0.485388
vt 0.841844 0.471731
vt 0.883337 0.449553
vt 0.919706 0.419706
vt 0.949553 0.383337
vt 0.971731 0.341844
vt 0.985388 0.296822
vt 0.990000 0.250000
vt 0.985388 0.203178
vt 0.971731 0.158156
vt 0.949553 0.116663
vt 0.919706 0.080294
vt 0.883337 0.050447
vt 0.841844 0.028269
vt 0.796822 0.014612
vt 0.750000 0.010000
vt 0.703178 0.014612
vt 0.658156 0.028269
vt 0.616663 0.050447
vt 0.580294 0.080294
vt 0.550447 0.116663
vt 0.528269 0.158156
vt 0.514612 0.203178
vt 0.510000 0.250000
vt 0.514612 0.296822
vt 0.528269 0.341844
vt 0.550447 0.383337
vt 0.580294 0.419706
vt 0.616663 0.449553
vt 0.658156 0.471731
vt 0.703178 0.485388
vt 0.625000 0.750385
vt 0.625000 0.751539
vt 0.625000 0.753454
vt 0.625000 0.756118
vt 0.625000 0.759515
vt 0.625000 0.763624
vt 0.625000 0.768420
vt 0.625000 0.773873
vt 0.625000 0.779949
vt 0.625000 0.786612
vt 0.625000 0.793819
vt 0.625000 0.801527
vt 0.625000 0.809688
vt 0.625000 0.818251
vt 0.625000 0.827165
vt 0.625000 0.836373
vt 0.625000 0.845819
vt 0.625000 0.855446
vt 0.625000 0.865193
vt 0.625000 0.875000
vt 0.625000 0.884807
vt 0.625000 0.894554
vt 0.625000 0.904181
vt 0.625000 0.913627
vt 0.625000 0.922835
vt 0.625000 0.931749
vt 0.625000 0.940312
vt 0.625000 0.948473
vt 0.625000 0.956181
vt 0.625000 0.963388
vt 0.625000 0.970051
vt 0.625000 0.976127
vt 0.625000 0.981580
vt 0.625000 0.986376
vt 0.625000 0.990485
vt 0.625000 0.993882
vt 0.625000 0.996546
vt 0.625000 0.998461
vt 0.625000 0.999615
vt 0.750000 0.750000
vt 0.625000 0.250385
vt 0.625000 0.251539
vt 0.625000 0.253454
vt 0.625000 0.256118
vt 0.625000 0.259515
vt 0.625000 0.263624
vt 0.625000 0.268420
vt 0.625000 0.273873
vt 0.625000 0.279949
vt 0.625000 0.286612
vt 0.625000 0.293819
vt 0.625000 0.301527
vt 0.625000 0.309688
vt 0.625000 0.318251
vt 0.625000 0.327165
vt 0.625000 0.336373
vt 0.625000 0.345819
vt 0.625000 0.355446
vt 0.625000 0.365193
vt 0.625000 0.375000
vt 0.625000 0.384807
vt 0.625000 0.394554
vt 0.625000 0.404181
vt 0.625000 0.413627
vt 0.625000 0.422835
vt 0.625000 0.431749
vt 0.625000 0.440312
vt 0.625000 0.448473
vt 0.625000 0.456181
vt 0.625000 0.463388
vt 0.625000 0.470051
vt 0.625000 0.476127
vt 0.625000 0.481580
vt 0.625000 0.486376
vt 0.625000 0.490485
vt 0.625000 0.493882
vt 0.625000 0.496546
vt 0.625000 0.498461
vt 0.625000 0.499615
vt 0.759807 0.500000
vt 0.759807 0.750000
vt 0.769554 0.500000
vt 0.769554 0.750000
vt 0.779181 0.500000
vt 0.779181 0.750000
vt 0.788627 0.500000
vt 0.788627 0.750000
vt 0.797835 0.500000
vt 0.797835 0.750000
vt 0.806749 0.500000
vt 0.806749 0.750000
vt 0.815312 0.500000
vt 0.815312 0.750000
vt 0.823473 0.500000
vt 0.823473 0.750000
vt 0.831181 0.500000
vt 0.831181 0.750000
vt 0.740193 0.750000
vt 0.740193 0.500000
vt 0.730446 0.750000
vt 0.730446 0.500000
vt 0.720819 0.750000
vt 0.720819 0.500000
vt 0.711373 0.750000
vt 0.711373 0.500000
vt 0.702165 0.750000
vt 0.702165 0.500000
vt 0.693251 0.750000
vt 0.693251 0.500000
vt 0.684688 0.750000
vt 0.684688 0.500000
vt 0.676527 0.750000
vt 0.676527 0.500000
vt 0.668819 0.750000
vt 0.668819 0.500000
s 0
f 1/1/1 2/2/1 4/3/1 3/4/1
f 3/4/2 4/3/2 8/5/2 7/6/2
f 7/6/3 8/5/3 6/7/3 5/8/3
f 5/8/4 6/7/4 2/9/4 1/10/4
f 3/11/5 7/6/5 5/8/5 1/12/5
f 8/5/6 4/13/6 2/14/6 6/7/6
f 9/1/1 10/2/1 12/3/1 11/4/1
f 11/4/2 12/3/2 16/5/2 15/6/2
f 15/6/3 16/5/3 14/7/3 13/8/3
f 13/8/4 14/7/4 10/9/4 9/10/4
f 11/11/5 15/6/5 13/8/5 9/12/5
f 16/5/6 12/13/6 10/14/6 14/7/6
f 17/1/1 18/2/1 20/3/1 19/4/1
f 19/4/2 20/3/2 24/5/2 23/6/2
f 23/6/3 24/5/3 22/7/3 21/8/3
f 21/8/4 22/7/4 18/9/4 17/10/4
f 19/11/5 23/6/5 21/8/5 17/12/5
f 24/5/6 20/13/6 18/14/6 22/7/6
f 25/15/7 26/16/7 28/17/7 27/18/7
f 27/18/8 28/17/8 30/19/8 29/20/8
f 29/20/9 30/19/9 32/21/9 31/22/9
f 31/22/10 32/21/10 34/23/10 33/13/10
f 33/13/11 34/23/11 36/24/11 35/25/11
f 35/25/12 36/24/12 38/26/12 37/27/12
f 37/27/13 38/26/13 40/28/13 39/29/13
f 39/29/14 40/28/14 42/30/14 41/31/14
f 41/31/15 42/30/15 44/32/15 43/33/15
f 43/33/16 44/32/16 46/34/16 45/35/16
f 45/35/17 46/34/17 48/36/17 47/37/17
f 47/37/18 48/36/18 50/9/18 49/5/18
f 49/5/19 50/9/19 52/38/19 51/39/19
f 51/39/20 52/38/20 54/40/20 53/41/20
f 53/41/21 54/40/21 56/42/21 55/43/21
f 55/43/22 56/42/22 58/44/22 57/45/22
f 57/45/23 58/44/23 60/46/23 59/47/23
f 59/47/24 60/46/24 62/48/24 61/49/24
f 61/49/25 62/48/25 64/50/25 63/51/25
f 63/51/26 64/50/26 66/10/26 65/6/26
f 65/6/27 66/10/27 68/52/27 67/53/27
f 67/53/28 68/52/28 70/54/28 69/55/28
f 69/55/29 70/54/29 72/56/29 71/57/29
f 71/57/30 72/56/30 74/58/30 73/59/30
f 73/59/31 74/58/31 76/60/31 75/61/31
f 75/61/32 76/60/32 78/62/32 77/63/32
f 77/63/33 78/62/33 80/64/33 79/65/33
f 79/65/34 80/64/34 82/66/34 81/11/34
f 81/11/35 82/66/35 84/67/35 83/68/35
f 83/68/36 84/67/36 86/69/36 85/70/36
f 28/71/4 26/72/4 88/73/4 86/74/4 84/75/4 82/76/4 80/77/4 78/78/4 76/79/4 74/80/4 72/81/4 70/82/4 68/83/4 66/84/4 64/85/4 62/86/4 60/87/4 58/88/4 56/89/4 54/90/4 52/91/4 50/92/4 48/93/4 46/94/4 44/95/4 42/96/4 40/97/4 38/98/4 36/99/4 34/100/4 32/101/4 30/102/4
f 85/70/37 86/69/37 88/103/37 87/104/37
f 87/104/38 88/103/38 26/105/38 25/106/38
f 25/107/2 27/108/2 29/109/2 31/110/2 33/111/2 35/112/2 37/113/2 39/114/2 41/115/2 43/116/2 45/117/2 47/118/2 49/119/2 51/120/2 53/121/2 55/122/2 57/123/2 59/124/2 61/125/2 63/126/2 65/127/2 67/128/2 69/129/2 71/130/2 73/131/2 75/132/2 77/133/2 79/134/2 81/135/2 83/136/2 85/137/2 87/138/2
f 89/1/1 90/2/1 92/3/1 91/4/1
f 91/4/2 92/3/2 96/5/2 95/6/2
f 95/6/3 96/5/3 94/7/3 93/8/3
f 93/8/4 94/7/4 90/9/4 89/10/4
f 91/11/5 95/6/5 93/8/5 89/12/5
f 96/5/6 92/13/6 90/14/6 94/7/6
f 97/1/1 98/2/1 100/3/1 99/4/1
f 99/4/4 100/3/4 104/5/4 103/6/4
f 103/6/3 104/5/3 102/7/3 101/8/3
f 101/8/2 102/7/2 98/9/2 97/10/2
f 99/11/6 103/6/6 101/8/6 97/12/6
f 104/5/5 100/13/5 98/14/5 102/7/5
f 105/1/1 106/2/1 108/3/1 107/4/1
f 107/4/4 108/3/4 112/5/4 111/6/4
f 111/6/3 112/5/3 110/7/3 109/8/3
f 109/8/2 110/7/2 106/9/2 105/10/2
f 107/11/6 111/6/6 109/8/6 105/12/6
f 112/5/5 108/13/5 106/14/5 110/7/5
f 113/1/1 114/2/1 116/3/1 115/4/1
f 115/4/4 116/3/4 120/5/4 119/6/4
f 119/6/3 120/5/3 118/7/3 117/8/3
f 117/8/2 118/7/2 114/9/2 113/10/2
f 115/11/6 119/6/6 117/8/6 113/12/6
f 120/5/5 116/13/5 114/14/5 118/7/5
f 121/1/1 122/2/1 124/3/1 123/4/1
f 123/4/4 124/3/4 128/5/4 127/6/4
f 127/6/3 128/5/3 126/7/3 125/8/3
f 125/8/2 126/7/2 122/9/2 121/10/2
f 123/11/6 127/6/6 125/8/6 121/12/6
f 128/5/5 124/13/5 122/14/5 126/7/5
f 129/1/1 130/2/1 132/3/1 131/4/1
f 131/4/4 132/3/4 136/5/4 135/6/4
f 135/6/3 136/5/3 134/7/3 133/8/3
f 133/8/2 134/7/2 130/9/2 129/10/2
f 131/11/6 135/6/6 133/8/6 129/12/6
f 130/9/2 134/7/2 200/7/2 202/139/2 203/140/2 204/141/2 205/142/2 206/143/2 207/144/2 208/145/2 209/146/2 210/147/2 211/148/2 212/149/2 213/150/2 214/151/2 215/152/2 216/153/2 217/154/2 218/155/2 219/156/2 220/157/2 201/158/2 137/158/2 139/159/2 140/160/2 141/161/2 142/162/2 143/163/2 144/164/2 145/165/2 146/166/2 147/167/2 148/168/2 149/169/2 150/170/2 151/171/2 152/172/2 153/173/2 154/174/2 155/175/2 156/176/2 157/177/2 138/9/2
f 179/31/6 159/31/6 137/178/6 201/178/6
f 136/5/4 132/3/4 158/3/4 160/179/4 161/180/4 162/181/4 163/182/4 164/183/4 165/184/4 166/185/4 167/186/4 168/187/4 169/188/4 170/189/4 171/190/4 172/191/4 173/192/4 174/193/4 175/194/4 176/195/4 177/196/4 178/197/4 159/198/4 179/198/4 181/199/4 182/200/4 183/201/4 184/202/4 185/203/4 186/204/4 187/205/4 188/206/4 189/207/4 190/208/4 191/209/4 192/210/4 193/211/4 194/212/4 195/213/4 196/214/4 197/215/4 198/216/4 199/217/4 180/5/4
f 134/7/6 136/5/6 180/5/6 200/7/6
f 137/178/39 159/31/39 178/218/39 139/219/39
f 139/219/40 178/218/40 177/220/40 140/221/40
f 140/221/41 177/220/41 176/222/41 141/223/41
f 141/223/42 176/222/42 175/224/42 142/225/42
f 142/225/43 175/224/43 174/226/43 143/227/43
f 143/227/44 174/226/44 173/228/44 144/229/44
f 144/229/45 173/228/45 172/230/45 145/231/45
f 145/231/46 172/230/46 171/232/46 146/233/46
f 146/233/47 171/232/47 170/234/47 147/235/47
f 147/235/48 170/234/48 169/13/48 148/14/48
f 148/2/49 169/3/49 168/3/49 149/2/49
f 149/2/50 168/3/50 167/3/50 150/2/50
f 150/2/51 167/3/51 166/3/51 151/2/51
f 151/2/52 166/3/52 165/3/52 152/2/52
f 152/2/53 165/3/53 164/3/53 153/2/53
f 153/2/54 164/3/54 163/3/54 154/2/54
f 154/2/55 163/3/55 162/3/55 155/2/55
f 155/2/56 162/3/56 161/3/56 156/2/56
f 156/2/57 161/3/57 160/3/57 157/2/57
f 157/2/58 160/3/58 158/3/58 138/2/58
f 179/31/59 201/178/59 220/236/59 181/237/59
f 181/237/60 220/236/60 219/238/60 182/239/60
f 182/239/61 219/238/61 218/240/61 183/241/61
f 183/241/62 218/240/62 217/242/62 184/243/62
f 184/243/63 217/242/63 216/244/63 185/245/63
f 185/245/64 216/244/64 215/246/64 186/247/64
f 186/247/65 215/246/65 214/248/65 187/249/65
f 187/249/66 214/248/66 213/250/66 188/251/66
f 188/251/67 213/250/67 212/252/67 189/253/67
f 189/253/68 212/252/68 211/7/68 190/5/68
f 190/5/69 211/7/69 210/7/69 191/5/69
f 191/5/70 210/7/70 209/7/70 192/5/70
f 192/5/71 209/7/71 208/7/71 193/5/71
f 193/5/72 208/7/72 207/7/72 194/5/72
f 194/5/73 207/7/73 206/7/73 195/5/73
f 195/5/74 206/7/74 205/7/74 196/5/74
f 196/5/75 205/7/75 204/7/75 197/5/75
f 197/5/76 204/7/76 203/7/76 198/5/76
f 198/5/77 203/7/77 202/7/77 199/5/77
f 199/5/78 202/7/78 200/7/78 180/5/78
f 132/3/6 130/2/6 138/2/6 158/3/6
