# Blender 4.0.1
# www.blender.org
mtllib Emblems_Garage.mtl.mtl
o Cube.003
v -0.834791 0.449951 0.900000
v 4.095567 6.325724 0.900000
v -0.834791 0.449951 0.300000
v 4.095567 6.325724 0.300000
v 0.237671 -0.449951 0.900000
v 5.168029 5.425821 0.900000
v 0.237671 -0.449951 0.300000
v 5.168029 5.425821 0.300000
v 5.167061 7.377988 0.300000
v 5.117373 7.543464 0.300000
v 5.251980 7.210226 0.300000
v 5.505989 6.917592 0.300000
v 5.366422 7.054770 0.300000
v 5.838285 6.718258 0.300000
v 6.189835 6.643562 0.300000
v 6.018244 6.663760 0.300000
v 5.665318 6.803967 0.300000
v 6.371471 6.655497 0.900000
v 6.189835 6.643562 0.900000
v 6.198278 6.642569 0.900000
v 6.786263 6.887640 0.900000
v 6.671223 6.780434 0.900000
v 6.531164 6.702048 0.900000
v 5.168573 8.041306 0.300000
v 5.254174 8.173216 0.300000
v 5.115699 7.889764 0.300000
v 5.097585 7.724413 0.300000
v 5.114928 7.551607 0.300000
v 5.505989 6.917592 0.900000
v 5.665318 6.803967 0.900000
v 6.018244 6.663760 0.900000
v 5.838285 6.718258 0.900000
v 5.117373 7.543464 0.900000
v 5.251980 7.210226 0.900000
v 5.167061 7.377988 0.900000
v 5.366422 7.054770 0.900000
v 6.198278 6.642569 0.300000
v 6.371471 6.655497 0.300000
v 6.531164 6.702048 0.300000
v 6.786263 6.887640 0.300000
v 6.671223 6.780434 0.300000
v 5.168573 8.041306 0.900000
v 5.254174 8.173216 0.900000
v 5.115699 7.889764 0.900000
v 5.114928 7.551607 0.900000
v 5.097585 7.724413 0.900000
v 7.711878 7.990746 0.900000
v 6.842829 6.955052 0.900000
v 6.834529 6.962016 0.900000
v 6.179789 9.276321 0.300000
v 5.310740 8.240627 0.300000
v 5.319039 8.233664 0.300000
v 7.711878 7.990746 0.300000
v 6.842829 6.955052 0.300000
v 6.834529 6.962016 0.300000
v 6.179789 9.276321 0.900000
v 5.310740 8.240627 0.900000
v 5.319039 8.233664 0.900000
v 7.476764 6.621540 0.300000
v 7.106476 6.191757 0.300000
v 6.715356 5.790812 0.300000
v 6.308166 5.461503 0.300000
v 5.922124 5.261568 0.300000
v 5.603407 5.214921 0.300000
v 5.360500 5.287498 0.300000
v 7.476764 6.621540 0.900000
v 5.360500 5.287498 0.900000
v 5.603407 5.214921 0.900000
v 5.922124 5.261568 0.900000
v 6.308166 5.461503 0.900000
v 6.715356 5.790812 0.900000
v 7.106476 6.191757 0.900000
v 4.872213 8.807018 0.900000
v 4.513259 8.367724 0.900000
v 4.186322 7.912923 0.900000
v 3.932724 7.454734 0.900000
v 3.802862 7.039840 0.900000
v 3.812268 6.717865 0.900000
v 3.925923 6.491251 0.900000
v 4.872213 8.807018 0.300000
v 3.925923 6.491251 0.300000
v 3.812268 6.717865 0.300000
v 3.802862 7.039840 0.300000
v 3.932724 7.454734 0.300000
v 4.186322 7.912923 0.300000
v 4.513259 8.367724 0.300000
v 7.773759 7.843471 0.300000
v 7.791574 7.664214 0.300000
v 7.780827 7.469332 0.300000
v 7.745601 7.264189 0.300000
v 7.686436 7.051929 0.300000
v 7.600674 6.835496 0.300000
v 7.600674 6.835496 0.900000
v 7.686436 7.051929 0.900000
v 7.745601 7.264189 0.900000
v 7.780827 7.469332 0.900000
v 7.791574 7.664214 0.900000
v 7.773759 7.843471 0.900000
v 6.024007 9.311687 0.900000
v 5.844379 9.298104 0.900000
v 5.654325 9.253679 0.900000
v 5.458415 9.183365 0.900000
v 5.259654 9.088242 0.900000
v 5.061401 8.966199 0.900000
v 5.061401 8.966199 0.300000
v 5.259654 9.088242 0.300000
v 5.458415 9.183365 0.300000
v 5.654325 9.253679 0.300000
v 5.844379 9.298104 0.300000
v 6.024007 9.311687 0.300000
v -0.307216 0.623369 0.300000
v -0.241927 0.866264 0.300000
v -0.014059 0.972740 0.300000
v 0.236500 0.994661 0.300000
v -0.178819 0.144942 0.300000
v -0.285295 0.372809 0.300000
v -0.289833 0.424683 0.300000
v 0.064076 0.079652 0.300000
v 0.262762 0.097035 0.300000
v 0.542503 0.208049 0.300000
v 0.314635 0.101574 0.300000
v 0.607792 0.450944 0.300000
v 0.585871 0.701504 0.300000
v 0.479395 0.929371 0.300000
v -0.241927 0.866264 0.900000
v -0.307216 0.623369 0.900000
v -0.285295 0.372809 0.900000
v -0.302678 0.571495 0.900000
v -0.014059 0.972740 0.900000
v 0.236500 0.994661 0.900000
v 0.542503 0.208049 0.900000
v 0.314635 0.101574 0.900000
v 0.607792 0.450944 0.900000
v -0.178819 0.144942 0.900000
v 0.064076 0.079652 0.900000
v 0.115950 0.084191 0.900000
v 0.585871 0.701504 0.900000
v 0.479395 0.929371 0.900000
vn -0.7660 0.6428 -0.0000
vn -0.0000 -0.0000 -1.0000
vn 0.7660 -0.6428 -0.0000
vn -0.0000 -0.0000 1.0000
vn -0.6428 -0.7660 -0.0000
vn -0.8388 0.5444 -0.0000
vn -0.6818 0.7316 -0.0000
vn -0.4884 0.8726 -0.0000
vn -0.2799 0.9600 -0.0000
vn -0.0744 0.9972 -0.0000
vn 0.1169 0.9931 -0.0000
vn 0.2898 0.9571 -0.0000
vn 0.4440 0.8960 -0.0000
vn 0.5806 0.8142 -0.0000
vn 0.7010 0.7132 -0.0000
vn 0.8053 0.5928 -0.0000
vn 0.8922 0.4516 -0.0000
vn 0.9578 0.2876 -0.0000
vn 0.9950 0.0999 -0.0000
vn 0.9941 -0.1089 -0.0000
vn 0.9442 -0.3294 -0.0000
vn 0.8388 -0.5444 -0.0000
vn 0.6818 -0.7316 -0.0000
vn 0.6428 0.7660 -0.0000
vn 0.7576 -0.6527 -0.0000
vn 0.7158 -0.6983 -0.0000
vn 0.6288 -0.7775 -0.0000
vn 0.4599 -0.8880 -0.0000
vn 0.1448 -0.9895 -0.0000
vn -0.2863 -0.9581 -0.0000
vn -0.5836 -0.8120 -0.0000
vn -0.7744 0.6327 -0.0000
vn -0.8120 0.5837 -0.0000
vn -0.8749 0.4843 -0.0000
vn -0.9543 0.2987 -0.0000
vn -0.9996 -0.0292 -0.0000
vn -0.8939 -0.4483 -0.0000
vn -0.6984 -0.7157 -0.0000
vn 0.9219 0.3874 -0.0000
vn 0.9951 0.0989 -0.0000
vn 0.9985 -0.0551 -0.0000
vn 0.9856 -0.1692 -0.0000
vn 0.9633 -0.2685 -0.0000
vn 0.9297 -0.3684 -0.0000
vn 0.8654 -0.5012 -0.0000
vn 0.2214 0.9752 -0.0000
vn -0.0754 0.9972 -0.0000
vn -0.2276 0.9738 -0.0000
vn -0.3378 0.9412 -0.0000
vn -0.4317 0.9020 -0.0000
vn -0.5242 0.8516 -0.0000
vn -0.6438 0.7652 -0.0000
vn 0.9060 0.4233 -0.0000
vn 0.9962 0.0872 -0.0000
vn 0.9657 -0.2596 -0.0000
vn -0.2596 -0.9657 -0.0000
vn 0.0872 -0.9962 -0.0000
vn 0.4233 -0.9060 -0.0000
vn 0.2596 0.9657 -0.0000
vn -0.0872 0.9962 -0.0000
vn -0.4233 0.9060 -0.0000
vn -0.9060 -0.4233 -0.0000
vn -0.9962 -0.0872 -0.0000
vn -0.9657 0.2596 -0.0000
vt 0.375000 0.000000
vt 0.625000 0.000000
vt 0.625000 0.250000
vt 0.375000 0.250000
vt 0.390383 0.302263
vt 0.385786 0.327447
vt 0.625000 0.500000
vt 0.375000 0.500000
vt 0.389183 0.440647
vt 0.390383 0.447222
vt 0.397815 0.466171
vt 0.405248 0.447222
vt 0.411044 0.415464
vt 0.414503 0.374743
vt 0.411044 0.334022
vt 0.405248 0.302263
vt 0.397815 0.283314
vt 0.384586 0.334022
vt 0.381128 0.374743
vt 0.384586 0.415464
vt 0.625000 0.750000
vt 0.375000 0.750000
vt 0.384586 0.915978
vt 0.389183 0.941162
vt 0.375000 1.000000
vt 0.385786 0.827961
vt 0.384586 0.834536
vt 0.381128 0.875257
vt 0.625000 1.000000
vt 0.390383 0.947737
vt 0.397815 0.966686
vt 0.405248 0.947737
vt 0.411044 0.915978
vt 0.414503 0.875257
vt 0.411044 0.834536
vt 0.405248 0.802778
vt 0.397815 0.783829
vt 0.390383 0.802778
vt 0.125000 0.500000
vt 0.125000 0.750000
vt 0.625000 0.474209
vt 0.625000 0.275791
vt 0.625000 0.306664
vt 0.625000 0.340162
vt 0.625000 0.375000
vt 0.625000 0.409838
vt 0.625000 0.443336
vt 0.625000 0.974209
vt 0.625000 0.775791
vt 0.625000 0.806664
vt 0.625000 0.840162
vt 0.625000 0.875000
vt 0.625000 0.909838
vt 0.625000 0.943336
vt 0.625000 1.000000
vt 0.625000 1.000000
vt 0.625000 1.000000
vt 0.625000 1.000000
vt 0.625000 1.000000
vt 0.625000 1.000000
vt 0.625000 1.000000
vt 0.625000 1.000000
vt 0.625000 1.000000
vt 0.625000 1.000000
vt 0.625000 0.750000
vt 0.625000 0.750000
vt 0.625000 0.750000
vt 0.625000 0.250000
vt 0.625000 0.250000
vt 0.625000 0.250000
vt 0.625000 0.250000
vt 0.750000 0.675000
vt 0.750000 0.825000
vt 0.767620 0.825000
vt 0.767620 0.675000
vt 0.718750 0.675000
vt 0.718750 0.825000
vt 0.687500 0.675000
vt 0.687500 0.825000
vt 0.656250 0.675000
vt 0.656250 0.825000
vt 0.625000 0.675000
vt 0.625000 0.825000
vt 0.623534 0.825000
vt 0.623534 0.675000
vt 0.593750 0.675000
vt 0.593750 0.825000
vt 0.562500 0.675000
vt 0.562500 0.825000
vt 0.531250 0.675000
vt 0.531250 0.825000
vt 0.500000 0.675000
vt 0.500000 0.825000
vt 0.468750 0.675000
vt 0.468750 0.825000
vt 0.437500 0.675000
vt 0.437500 0.825000
vt 0.406250 0.675000
vt 0.406250 0.825000
vt 0.376466 0.825000
vt 0.376466 0.675000
vt 0.375000 0.675000
vt 0.375000 0.825000
vt 0.343750 0.675000
vt 0.343750 0.825000
vt 0.312500 0.675000
vt 0.312500 0.825000
vt 0.281250 0.675000
vt 0.281250 0.825000
vt 0.250000 0.675000
vt 0.250000 0.825000
vt 0.232380 0.825000
vt 0.232380 0.675000
vt 0.375000 0.087500
vt 0.375000 0.162500
vt 0.586250 0.162500
vt 0.586250 0.087500
vt 0.586250 0.662500
vt 0.586250 0.587500
vt 0.375000 0.587500
vt 0.375000 0.662500
vt 0.373646 0.662500
vt 0.373646 0.587500
vt 0.126354 0.587500
vt 0.125000 0.587500
vt 0.125000 0.662500
vt 0.126354 0.662500
vt 0.625000 0.500000
vt 0.625000 0.500000
vt 0.625000 0.500000
vt 0.875000 0.750000
vt 0.875000 0.500000
vt 0.875000 0.500000
vt 0.625000 0.500000
vt 0.625000 0.500000
vt 0.625000 0.500000
vt 0.250000 0.698242
vt 0.250000 0.551758
vt 0.194327 0.551758
vt 0.194327 0.698242
vt 0.179974 0.551758
vt 0.125000 0.551758
vt 0.125000 0.698242
vt 0.139353 0.698242
vt 0.375000 0.198242
vt 0.500000 0.198242
vt 0.500000 0.051758
vt 0.375000 0.051758
vt 0.875000 0.551758
vt 0.750000 0.551758
vt 0.750000 0.698242
vt 0.875000 0.698242
vt 0.555673 0.198242
vt 0.625000 0.198242
vt 0.625000 0.051758
vt 0.555673 0.051758
vt 0.305673 0.698242
vt 0.305673 0.551758
vt 0.444327 0.698242
vt 0.444327 0.551758
vt 0.415621 0.551758
vt 0.334379 0.698242
vt 0.500000 0.698242
vt 0.500000 0.551758
vt 0.694327 0.551758
vt 0.694327 0.698242
vt 0.555673 0.551758
vt 0.555673 0.698242
s 0
f 1/1/1 2/2/1 4/3/1 3/4/1
f 111/5/2 117/6/2 3/4/2 4/3/2 8/7/2 7/8/2 119/9/2 121/10/2 120/11/2 122/12/2 123/13/2 124/14/2 114/15/2 113/16/2 112/17/2
f 119/9/2 7/8/2 3/4/2 117/6/2 116/18/2 115/19/2 118/20/2
f 7/8/3 8/7/3 6/21/3 5/22/3
f 127/23/4 128/24/4 1/25/4 5/22/4 136/26/4 135/27/4 134/28/4
f 5/22/4 6/21/4 2/29/4 1/25/4 128/24/4 126/30/4 125/31/4 129/32/4 130/33/4 138/34/4 137/35/4 133/36/4 131/37/4 132/38/4 136/26/4
f 3/39/5 7/8/5 5/22/5 1/40/5
f 16/41/2 15/7/2 8/7/2 4/3/2 10/3/2 9/42/2 11/43/2 13/44/2 12/45/2 17/46/2 14/47/2
f 35/48/4 33/29/4 2/29/4 6/21/4 19/21/4 31/49/4 32/50/4 30/51/4 29/52/4 36/53/4 34/54/4
f 79/55/4 2/29/4 33/29/4 45/29/4 46/56/4 44/57/4 42/29/4 43/57/4 58/29/4 57/29/4 56/29/4 99/58/4 100/56/4 101/59/4 102/60/4 103/61/4 104/62/4 73/29/4 74/56/4 75/63/4 76/59/4 77/64/4 78/64/4
f 21/65/4 22/21/4 23/66/4 18/65/4 20/21/4 19/21/4 6/21/4 67/21/4 68/21/4 69/21/4 70/21/4 71/21/4 72/21/4 66/21/4 93/21/4 94/21/4 95/21/4 96/21/4 97/21/4 98/21/4 47/21/4 48/21/4 49/67/4
f 51/68/2 52/68/2 25/69/2 24/3/2 26/70/2 27/71/2 28/3/2 10/3/2 4/3/2 81/3/2 82/3/2 83/3/2 84/3/2 85/3/2 86/3/2 80/3/2 105/68/2 106/3/2 107/3/2 108/68/2 109/3/2 110/69/2 50/3/2
f 40/72/6 21/73/6 49/74/6 55/75/6
f 21/73/7 40/72/7 41/76/7 22/77/7
f 22/77/8 41/76/8 39/78/8 23/79/8
f 23/79/9 39/78/9 38/80/9 18/81/9
f 18/81/10 38/80/10 37/82/10 20/83/10
f 19/84/11 20/83/11 37/82/11 15/85/11 16/86/11 31/87/11
f 31/87/12 16/86/12 14/88/12 32/89/12
f 32/89/13 14/88/13 17/90/13 30/91/13
f 30/91/14 17/90/14 12/92/14 29/93/14
f 29/93/15 12/92/15 13/94/15 36/95/15
f 36/95/16 13/94/16 11/96/16 34/97/16
f 34/97/17 11/96/17 9/98/17 35/99/17
f 33/100/18 35/99/18 9/98/18 10/101/18 28/102/18 45/103/18
f 28/102/19 27/104/19 46/105/19 45/103/19
f 27/104/20 26/106/20 44/107/20 46/105/20
f 26/106/21 24/108/21 42/109/21 44/107/21
f 24/108/22 25/110/22 43/111/22 42/109/22
f 58/112/23 43/111/23 25/110/23 52/113/23
f 57/114/3 51/115/3 50/116/3 56/117/3
f 47/118/1 53/119/1 54/120/1 48/121/1
f 49/122/24 48/121/24 54/120/24 55/123/24
f 52/124/24 51/125/24 57/126/24 58/127/24
f 59/7/25 66/21/25 72/21/25 60/7/25
f 60/7/26 72/21/26 71/21/26 61/7/26
f 61/7/27 71/21/27 70/21/27 62/7/27
f 62/7/28 70/21/28 69/21/28 63/7/28
f 63/7/29 69/21/29 68/21/29 64/7/29
f 64/7/30 68/21/30 67/21/30 65/7/30
f 65/7/31 67/21/31 6/21/31 8/7/31
f 73/2/32 80/3/32 86/3/32 74/2/32
f 74/2/33 86/3/33 85/3/33 75/2/33
f 75/2/34 85/3/34 84/3/34 76/2/34
f 76/2/35 84/3/35 83/3/35 77/2/35
f 77/2/36 83/3/36 82/3/36 78/2/36
f 78/2/37 82/3/37 81/3/37 79/2/37
f 79/2/38 81/3/38 4/3/38 2/2/38
f 53/7/39 47/21/39 98/21/39 87/128/39
f 87/128/40 98/21/40 97/21/40 88/7/40
f 88/7/41 97/21/41 96/21/41 89/7/41
f 89/7/42 96/21/42 95/21/42 90/129/42
f 90/129/43 95/21/43 94/21/43 91/130/43
f 91/130/44 94/21/44 93/21/44 92/7/44
f 92/7/45 93/21/45 66/21/45 59/7/45
f 56/131/46 50/132/46 110/132/46 99/131/46
f 99/131/47 110/132/47 109/133/47 100/131/47
f 100/131/48 109/133/48 108/132/48 101/131/48
f 101/2/49 108/68/49 107/3/49 102/2/49
f 102/2/50 107/3/50 106/3/50 103/2/50
f 103/2/51 106/3/51 105/68/51 104/2/51
f 104/2/52 105/68/52 80/3/52 73/2/52
f 8/7/2 15/7/2 37/7/2 38/134/2 39/135/2 41/7/2 40/135/2 55/7/2 54/136/2 53/7/2 87/128/2 88/7/2 89/7/2 90/129/2 91/130/2 92/7/2 59/7/2 60/7/2 61/7/2 62/7/2 63/7/2 64/7/2 65/7/2
f 134/137/53 115/138/53 116/139/53 127/140/53
f 127/140/54 116/139/54 117/141/54 111/142/54 126/143/54 128/144/54
f 111/145/55 112/146/55 125/147/55 126/148/55
f 114/149/56 124/150/56 138/151/56 130/152/56
f 113/153/57 114/154/57 130/155/57 129/156/57
f 112/146/58 113/153/58 129/156/58 125/147/58
f 135/157/59 118/158/59 115/138/59 134/137/59
f 132/159/60 121/160/60 119/161/60 118/158/60 135/157/60 136/162/60
f 131/163/61 120/164/61 121/160/61 132/159/61
f 124/150/62 123/165/62 137/166/62 138/151/62
f 137/166/63 123/165/63 122/167/63 133/168/63
f 133/168/64 122/167/64 120/164/64 131/163/64
