# Blender 4.0.1
# www.blender.org
mtllib Verre_Lampadaire.mtl
o Verere
v 0.187576 14.588010 -0.943012
v -0.000001 14.588010 -0.961487
v 0.367944 14.588010 -0.888298
v 0.534172 14.588010 -0.799447
v 0.679873 14.588010 -0.679874
v 0.799446 14.588010 -0.534174
v 0.888297 14.588010 -0.367945
v 0.943011 14.588010 -0.187577
v 0.961486 14.588010 0.000000
v 0.943011 14.588010 0.187577
v 0.888297 14.588010 0.367945
v 0.799446 14.588010 0.534173
v 0.679873 14.588010 0.679874
v 0.534172 14.588010 0.799447
v 0.367944 14.588010 0.888298
v 0.187576 14.588010 0.943012
v -0.000001 14.588010 0.961487
v -0.187578 14.588010 0.943012
v -0.367946 14.588010 0.888298
v -0.534175 14.588010 0.799447
v -0.679875 14.588010 0.679874
v -0.799448 14.588010 0.534173
v -0.888299 14.588010 0.367945
v -0.943013 14.588010 0.187577
v -0.961488 14.588010 0.000000
v -0.943013 14.588010 -0.187577
v -0.888299 14.588010 -0.367945
v -0.799448 14.588010 -0.534174
v -0.679875 14.588010 -0.679874
v -0.534175 14.588010 -0.799447
v -0.367946 14.588010 -0.888298
v -0.187578 14.588010 -0.943012
v 0.276361 16.788012 -1.389371
v -0.000002 16.788012 -1.416591
v 0.542103 16.788012 -1.308759
v 0.787013 16.788012 -1.177852
v 1.001678 16.788012 -1.001681
v 1.177850 16.788012 -0.787016
v 1.308757 16.788012 -0.542106
v 1.389369 16.788012 -0.276363
v 1.416588 16.788012 0.000000
v 1.389369 16.788012 0.276363
v 1.308757 16.788012 0.542106
v 1.177850 16.788012 0.787016
v 1.001678 16.788012 1.001681
v 0.787013 16.788012 1.177852
v 0.542103 16.788012 1.308759
v 0.276361 16.788012 1.389372
v -0.000002 16.788012 1.416591
v -0.276366 16.788012 1.389372
v -0.542108 16.788012 1.308759
v -0.787018 16.788012 1.177852
v -1.001684 16.788012 1.001681
v -1.177855 16.788012 0.787016
v -1.308762 16.788012 0.542106
v -1.389374 16.788012 0.276363
v -1.416593 16.788012 0.000000
v -1.389374 16.788012 -0.276363
v -1.308762 16.788012 -0.542106
v -1.177855 16.788012 -0.787016
v -1.001684 16.788012 -1.001681
v -0.787018 16.788012 -1.177852
v -0.542108 16.788012 -1.308759
v -0.276366 16.788012 -1.389371
v 0.187576 14.588010 -0.943012
v 0.367944 14.588010 -0.888298
v 0.799446 14.588010 -0.534174
v 0.888297 14.588010 -0.367945
v 0.943011 14.588010 0.187577
v 0.888297 14.588010 0.367945
v 0.534172 14.588010 0.799447
v 0.367944 14.588010 0.888298
v -0.187578 14.588010 0.943012
v -0.367946 14.588010 0.888298
v -0.799448 14.588010 0.534173
v -0.888299 14.588010 0.367945
v -0.943013 14.588010 -0.187577
v -0.888299 14.588010 -0.367945
v -0.534175 14.588010 -0.799447
v -0.367946 14.588010 -0.888298
v 0.276361 16.788012 -1.389371
v 0.542103 16.788012 -1.308759
v 1.177850 16.788012 -0.787016
v 1.308757 16.788012 -0.542106
v 1.389369 16.788012 0.276363
v 1.308757 16.788012 0.542106
v 0.787013 16.788012 1.177852
v 0.542103 16.788012 1.308759
v -0.276366 16.788012 1.389372
v -0.542108 16.788012 1.308759
v -1.177855 16.788012 0.787016
v -1.308762 16.788012 0.542106
v -1.389374 16.788012 -0.276363
v -1.308762 16.788012 -0.542106
v -0.787018 16.788012 -1.177852
v -0.542108 16.788012 -1.308759
vn 0.6214 -0.2016 0.7571
vn -0.8638 -0.2016 -0.4617
vn 0.0960 -0.2016 -0.9747
vn 0.2843 -0.2016 0.9373
vn -0.6214 -0.2016 -0.7571
vn 0.4617 -0.2016 -0.8638
vn -0.0960 -0.2016 0.9747
vn -0.2843 -0.2016 -0.9373
vn 0.7571 -0.2016 -0.6214
vn -0.4617 -0.2016 0.8638
vn 0.9373 -0.2016 -0.2843
vn -0.7571 -0.2016 0.6214
vn 0.9747 -0.2016 0.0960
vn -0.9373 -0.2016 0.2843
vn 0.8638 -0.2016 0.4617
vn -0.9747 -0.2016 -0.0960
vn -0.9373 -0.2016 -0.2843
vn 0.4617 -0.2016 0.8638
vn 0.2843 -0.2016 -0.9373
vn -0.4617 -0.2016 -0.8638
vn -0.2843 -0.2016 0.9373
vn 0.8638 -0.2016 -0.4617
vn -0.8638 -0.2016 0.4617
vn 0.9373 -0.2016 0.2843
vt 0.593750 1.000000
vt 0.625000 1.000000
vt 0.156250 1.000000
vt 0.187500 1.000000
vt 0.968750 1.000000
vt 1.000000 1.000000
vt 0.531250 1.000000
vt 0.562500 1.000000
vt 0.093750 1.000000
vt 0.125000 1.000000
vt 0.906250 1.000000
vt 0.937500 1.000000
vt 0.468750 1.000000
vt 0.500000 1.000000
vt 0.031250 1.000000
vt 0.062500 1.000000
vt 0.843750 1.000000
vt 0.875000 1.000000
vt 0.406250 1.000000
vt 0.437500 1.000000
vt 0.781250 1.000000
vt 0.812500 1.000000
vt 0.343750 1.000000
vt 0.375000 1.000000
vt 0.718750 1.000000
vt 0.750000 1.000000
vt 0.281250 1.000000
vt 0.312500 1.000000
vt 0.656250 1.000000
vt 0.687500 1.000000
vt 0.218750 1.000000
vt 0.250000 1.000000
s 0
f 14/1/1 13/2/1 45/2/1 46/1/1
f 28/3/2 27/4/2 59/4/2 60/3/2
f 1/5/3 2/6/3 34/6/3 33/5/3
f 16/7/4 15/8/4 47/8/4 48/7/4
f 30/9/5 29/10/5 61/10/5 62/9/5
f 4/11/6 3/12/6 35/12/6 36/11/6
f 18/13/7 17/14/7 49/14/7 50/13/7
f 32/15/8 31/16/8 63/16/8 64/15/8
f 6/17/9 5/18/9 37/18/9 38/17/9
f 20/19/10 19/20/10 51/20/10 52/19/10
f 8/21/11 7/22/11 39/22/11 40/21/11
f 22/23/12 21/24/12 53/24/12 54/23/12
f 10/25/13 9/26/13 41/26/13 42/25/13
f 24/27/14 23/28/14 55/28/14 56/27/14
f 12/29/15 11/30/15 43/30/15 44/29/15
f 26/31/16 25/32/16 57/32/16 58/31/16
f 78/4/17 77/31/17 93/31/17 94/4/17
f 72/8/18 71/1/18 87/1/18 88/8/18
f 66/12/19 65/5/19 81/5/19 82/12/19
f 80/16/20 79/9/20 95/9/20 96/16/20
f 74/20/21 73/13/21 89/13/21 90/20/21
f 68/22/22 67/17/22 83/17/22 84/22/22
f 76/28/23 75/23/23 91/23/23 92/28/23
f 70/30/24 69/25/24 85/25/24 86/30/24
