# Blender 4.0.1
# www.blender.org
mtllib Gradin.mtl
o Gradin
v 2.000000 0.000000 2.400000
v 2.000000 2.000000 2.400000
v 0.000000 0.000000 2.400000
v 0.000000 2.000000 2.400000
v 2.000000 0.000000 0.400000
v 0.000000 0.000000 0.400000
v 2.000000 0.000000 0.000000
v 2.000000 4.000000 2.400000
v 2.000000 0.000000 0.600000
v 2.000000 0.200000 0.600000
v 2.000000 0.200000 0.800000
v 2.000000 0.300000 0.800000
v 2.000000 0.300000 1.000000
v 2.000000 0.600000 1.000000
v 2.000000 0.600000 1.200000
v 2.000000 0.700000 1.200000
v 2.000000 0.700000 1.400000
v 2.000000 1.000000 1.400000
v 2.000000 1.000000 1.600000
v 2.000000 1.100000 1.600000
v 2.000000 1.100000 1.800000
v 2.000000 1.400000 1.800000
v 2.000000 1.400000 2.000000
v 2.000000 1.500000 2.000000
v 2.000000 1.500000 2.200000
v 2.000000 1.800000 2.200000
v 2.000000 1.800000 2.400000
v 0.000000 4.000000 2.400000
v 0.000000 0.000000 0.000000
v 0.000000 1.800000 2.400000
v 0.000000 1.800000 2.200000
v 0.000000 1.500000 2.200000
v 0.000000 1.500000 2.000000
v 0.000000 1.400000 2.000000
v 0.000000 1.400000 1.800000
v 0.000000 1.100000 1.800000
v 0.000000 1.100000 1.600000
v 0.000000 1.000000 1.600000
v 0.000000 1.000000 1.400000
v 0.000000 0.700000 1.400000
v 0.000000 0.700000 1.200000
v 0.000000 0.600000 1.200000
v 0.000000 0.600000 1.000000
v 0.000000 0.300000 1.000000
v 0.000000 0.300000 0.800000
v 0.000000 0.200000 0.800000
v 0.000000 0.200000 0.600000
v 0.000000 0.000000 0.600000
vn -0.0000 -0.0000 1.0000
vn 1.0000 -0.0000 -0.0000
vn -1.0000 -0.0000 -0.0000
vn -0.0000 -1.0000 -0.0000
vn -0.0000 -0.0000 -1.0000
vn -0.0000 1.0000 -0.0000
vt 0.375000 0.000000
vt 0.625000 0.000000
vt 0.625000 0.250000
vt 0.375000 0.250000
vt 0.375000 0.750000
vt 0.375000 0.775000
vt 0.400000 0.775000
vt 0.400000 0.800000
vt 0.425000 0.800000
vt 0.425000 0.825000
vt 0.450000 0.825000
vt 0.450000 0.850000
vt 0.475000 0.850000
vt 0.475000 0.875000
vt 0.500000 0.875000
vt 0.500000 0.900000
vt 0.525000 0.900000
vt 0.525000 0.925000
vt 0.550000 0.925000
vt 0.550000 0.950000
vt 0.575000 0.950000
vt 0.575000 0.975000
vt 0.600000 0.975000
vt 0.600000 1.000000
vt 0.625000 1.000000
vt 0.375000 1.000000
vt 0.600000 0.250000
vt 0.600000 0.275000
vt 0.575000 0.275000
vt 0.575000 0.300000
vt 0.550000 0.300000
vt 0.550000 0.325000
vt 0.525000 0.325000
vt 0.525000 0.350000
vt 0.500000 0.350000
vt 0.500000 0.375000
vt 0.475000 0.375000
vt 0.475000 0.400000
vt 0.450000 0.400000
vt 0.450000 0.425000
vt 0.425000 0.425000
vt 0.425000 0.450000
vt 0.400000 0.450000
vt 0.400000 0.475000
vt 0.375000 0.475000
vt 0.375000 0.500000
vt 0.125000 0.500000
vt 0.125000 0.750000
vt 0.875000 0.500000
vt 0.875000 0.750000
vt 0.850000 0.750000
vt 0.850000 0.500000
vt 0.825000 0.750000
vt 0.825000 0.500000
vt 0.800000 0.750000
vt 0.800000 0.500000
vt 0.775000 0.750000
vt 0.775000 0.500000
vt 0.625000 0.750000
vt 0.625000 0.500000
vt 0.475000 0.750000
vt 0.475000 0.500000
vt 0.450000 0.750000
vt 0.450000 0.500000
vt 0.425000 0.750000
vt 0.425000 0.500000
vt 0.400000 0.750000
vt 0.400000 0.500000
s 0
f 1/1/1 2/2/1 4/3/1 3/4/1
f 5/5/2 7/5/2 9/6/2 10/7/2 11/8/2 12/9/2 13/10/2 14/11/2 15/12/2 16/13/2 17/14/2 18/15/2 19/16/2 20/17/2 21/18/2 22/19/2 23/20/2 24/21/2 25/22/2 26/23/2 27/24/2 8/25/2 2/25/2 1/26/2
f 3/4/3 4/3/3 28/3/3 30/27/3 31/28/3 32/29/3 33/30/3 34/31/3 35/32/3 36/33/3 37/34/3 38/35/3 39/36/3 40/37/3 41/38/3 42/39/3 43/40/3 44/41/3 45/42/3 46/43/3 47/44/3 48/45/3 29/46/3 6/46/3
f 3/47/4 6/46/4 5/5/4 1/48/4
f 6/46/4 29/46/4 7/5/4 5/5/4
f 28/49/5 8/50/5 27/50/5 30/49/5
f 30/49/6 27/50/6 26/51/6 31/52/6
f 31/52/5 26/51/5 25/51/5 32/52/5
f 32/52/6 25/51/6 24/53/6 33/54/6
f 33/54/5 24/53/5 23/53/5 34/54/5
f 34/54/6 23/53/6 22/55/6 35/56/6
f 35/56/5 22/55/5 21/55/5 36/56/5
f 36/56/6 21/55/6 20/57/6 37/58/6
f 37/58/5 20/57/5 19/57/5 38/58/5
f 38/58/6 19/57/6 18/59/6 39/60/6
f 39/60/5 18/59/5 17/61/5 40/62/5
f 40/62/6 17/61/6 16/61/6 41/62/6
f 41/62/5 16/61/5 15/63/5 42/64/5
f 42/64/6 15/63/6 14/63/6 43/64/6
f 43/64/5 14/63/5 13/65/5 44/66/5
f 44/66/6 13/65/6 12/65/6 45/66/6
f 45/66/5 12/65/5 11/67/5 46/68/5
f 46/68/6 11/67/6 10/67/6 47/68/6
f 47/68/5 10/67/5 9/5/5 48/46/5
f 48/46/6 9/5/6 7/5/6 29/46/6
f 28/49/1 4/49/1 2/50/1 8/50/1
