# Blender 4.0.1
# www.blender.org
mtllib Wall_Arena.mtl
o Wall_Arena
v 0.000000 0.000000 10.000000
v 0.000000 5.000000 10.000000
v 0.000000 0.000000 0.000000
v 0.000000 5.000000 0.000000
v 3.000000 0.000000 10.000000
v 3.000000 0.000000 0.000000
v 3.000000 0.000000 10.000000
v 0.000000 5.000000 10.000000
v 2.769710 0.031087 10.000000
v 2.542390 0.099955 10.000000
v 2.319122 0.199017 10.000000
v 2.100884 0.325440 10.000000
v 1.888618 0.477508 10.000000
v 1.683251 0.653937 10.000000
v 1.485693 0.853606 10.000000
v 1.296840 1.075442 10.000000
v 1.117559 1.318340 10.000000
v 0.948683 1.581139 10.000000
v 0.791004 1.862598 10.000000
v 0.645265 2.161399 10.000000
v 0.512164 2.476155 10.000000
v 0.392362 2.805418 10.000000
v 0.286505 3.147697 10.000000
v 0.195264 3.501473 10.000000
v 0.119410 3.865203 10.000000
v 0.059973 4.237317 10.000000
v 0.018652 4.616183 10.000000
v 0.000000 5.000000 0.000000
v 3.000000 0.000000 0.000000
v 0.018652 4.616183 0.000000
v 0.059973 4.237317 0.000000
v 0.119410 3.865203 0.000000
v 0.195264 3.501473 0.000000
v 0.286505 3.147697 0.000000
v 0.392362 2.805418 0.000000
v 0.512164 2.476155 0.000000
v 0.645265 2.161399 0.000000
v 0.791004 1.862598 0.000000
v 0.948683 1.581139 0.000000
v 1.117559 1.318340 0.000000
v 1.296840 1.075442 0.000000
v 1.485693 0.853606 0.000000
v 1.683251 0.653937 0.000000
v 1.888618 0.477508 0.000000
v 2.100884 0.325440 0.000000
v 2.319122 0.199017 0.000000
v 2.542390 0.099955 0.000000
v 2.769710 0.031087 0.000000
v 0.000000 -1.000000 10.000000
v 0.000000 0.000000 10.000000
v 0.000000 -1.000000 0.000000
v 0.000000 0.000000 0.000000
v 10.000000 -1.000000 10.000000
v 10.000000 0.000000 10.000000
v 10.000000 -1.000000 0.000000
v 10.000000 0.000000 0.000000
vn -1.0000 -0.0000 -0.0000
vn -0.0000 -0.0000 1.0000
vn -0.0000 -0.0000 -1.0000
vn -0.0000 -1.0000 -0.0000
vn -0.0000 1.0000 -0.0000
vn 0.9988 0.0485 -0.0000
vn 0.9941 0.1084 -0.0000
vn 0.9875 0.1577 -0.0000
vn 0.9789 0.2042 -0.0000
vn 0.9683 0.2497 -0.0000
vn 0.9554 0.2955 -0.0000
vn 0.9397 0.3419 -0.0000
vn 0.9210 0.3895 -0.0000
vn 0.8988 0.4384 -0.0000
vn 0.8724 0.4887 -0.0000
vn 0.8413 0.5406 -0.0000
vn 0.8046 0.5938 -0.0000
vn 0.7614 0.6482 -0.0000
vn 0.7109 0.7033 -0.0000
vn 0.6516 0.7585 -0.0000
vn 0.5824 0.8129 -0.0000
vn 0.5013 0.8653 -0.0000
vn 0.4056 0.9141 -0.0000
vn 0.2899 0.9570 -0.0000
vn 0.1338 0.9910 -0.0000
vn 1.0000 -0.0000 -0.0000
vt 0.375000 0.000000
vt 0.625000 0.000000
vt 0.625000 0.250000
vt 0.375000 0.250000
vt 0.375000 0.750000
vt 0.376554 0.769191
vt 0.379998 0.788134
vt 0.384951 0.806740
vt 0.391272 0.824926
vt 0.398875 0.842615
vt 0.407697 0.859729
vt 0.417680 0.876192
vt 0.428772 0.891930
vt 0.440917 0.906870
vt 0.454057 0.920943
vt 0.468130 0.934083
vt 0.483070 0.946228
vt 0.498808 0.957320
vt 0.515271 0.967303
vt 0.532385 0.976125
vt 0.550074 0.983728
vt 0.568260 0.990049
vt 0.586866 0.995002
vt 0.605809 0.998446
vt 0.625000 1.000000
vt 0.375000 1.000000
vt 0.605809 0.251554
vt 0.586866 0.254998
vt 0.568260 0.259951
vt 0.550074 0.266272
vt 0.532385 0.273875
vt 0.515271 0.282697
vt 0.498808 0.292680
vt 0.483070 0.303772
vt 0.468130 0.315917
vt 0.454057 0.329057
vt 0.440917 0.343130
vt 0.428772 0.358070
vt 0.417680 0.373808
vt 0.407697 0.390271
vt 0.398875 0.407385
vt 0.391272 0.425074
vt 0.384951 0.443260
vt 0.379998 0.461866
vt 0.376554 0.480809
vt 0.375000 0.500000
vt 0.125000 0.500000
vt 0.125000 0.750000
vt 0.875000 0.500000
vt 0.875000 0.750000
vt 0.873446 0.750000
vt 0.873446 0.500000
vt 0.870002 0.750000
vt 0.870002 0.500000
vt 0.865049 0.750000
vt 0.865049 0.500000
vt 0.858728 0.750000
vt 0.858728 0.500000
vt 0.851125 0.750000
vt 0.851125 0.500000
vt 0.842303 0.750000
vt 0.842303 0.500000
vt 0.832320 0.750000
vt 0.832320 0.500000
vt 0.821228 0.750000
vt 0.821228 0.500000
vt 0.809083 0.750000
vt 0.809083 0.500000
vt 0.625000 0.750000
vt 0.625000 0.500000
vt 0.440917 0.750000
vt 0.440917 0.500000
vt 0.428772 0.750000
vt 0.428772 0.500000
vt 0.417680 0.750000
vt 0.417680 0.500000
vt 0.407697 0.750000
vt 0.407697 0.500000
vt 0.398875 0.750000
vt 0.398875 0.500000
vt 0.391272 0.750000
vt 0.391272 0.500000
vt 0.384951 0.750000
vt 0.384951 0.500000
vt 0.379998 0.750000
vt 0.379998 0.500000
vt 0.376554 0.750000
vt 0.376554 0.500000
s 0
f 1/1/1 2/2/1 4/3/1 3/4/1
f 5/5/2 7/5/2 9/6/2 10/7/2 11/8/2 12/9/2 13/10/2 14/11/2 15/12/2 16/13/2 17/14/2 18/15/2 19/16/2 20/17/2 21/18/2 22/19/2 23/20/2 24/21/2 25/22/2 26/23/2 27/24/2 8/25/2 2/25/2 1/26/2
f 3/4/3 4/3/3 28/3/3 30/27/3 31/28/3 32/29/3 33/30/3 34/31/3 35/32/3 36/33/3 37/34/3 38/35/3 39/36/3 40/37/3 41/38/3 42/39/3 43/40/3 44/41/3 45/42/3 46/43/3 47/44/3 48/45/3 29/46/3 6/46/3
f 3/47/4 6/46/4 5/5/4 1/48/4
f 6/46/5 29/46/5 7/5/5 5/5/5
f 28/49/6 8/50/6 27/51/6 30/52/6
f 30/52/7 27/51/7 26/53/7 31/54/7
f 31/54/8 26/53/8 25/55/8 32/56/8
f 32/56/9 25/55/9 24/57/9 33/58/9
f 33/58/10 24/57/10 23/59/10 34/60/10
f 34/60/11 23/59/11 22/61/11 35/62/11
f 35/62/12 22/61/12 21/63/12 36/64/12
f 36/64/13 21/63/13 20/65/13 37/66/13
f 37/66/14 20/65/14 19/67/14 38/68/14
f 38/68/15 19/67/15 18/69/15 39/70/15
f 39/70/16 18/69/16 17/71/16 40/72/16
f 40/72/17 17/71/17 16/73/17 41/74/17
f 41/74/18 16/73/18 15/75/18 42/76/18
f 42/76/19 15/75/19 14/77/19 43/78/19
f 43/78/20 14/77/20 13/79/20 44/80/20
f 44/80/21 13/79/21 12/81/21 45/82/21
f 45/82/22 12/81/22 11/83/22 46/84/22
f 46/84/23 11/83/23 10/85/23 47/86/23
f 47/86/24 10/85/24 9/87/24 48/88/24
f 48/88/25 9/87/25 7/5/25 29/46/25
f 28/49/5 4/49/5 2/50/5 8/50/5
f 49/1/1 50/2/1 52/3/1 51/4/1
f 51/4/3 52/3/3 56/70/3 55/46/3
f 55/46/26 56/70/26 54/69/26 53/5/26
f 53/5/2 54/69/2 50/25/2 49/26/2
f 51/47/4 55/46/4 53/5/4 49/48/4
f 56/70/5 52/49/5 50/50/5 54/69/5
