# Blender 4.0.1
# www.blender.org
mtllib Wall_Vrille.mtl
o Wall_Vrille
v 0.000000 0.000000 0.300000
v 0.000000 5.000000 0.300000
v 0.000000 0.000000 0.000000
v 0.000000 5.000000 0.000000
v 3.000000 0.000000 0.300000
v 3.000000 0.000000 0.000000
v 3.000000 0.000000 0.300000
v 0.000000 5.000000 0.300000
v 2.769710 0.031087 0.300000
v 2.542390 0.099955 0.300000
v 2.319122 0.199017 0.300000
v 2.100884 0.325440 0.300000
v 1.888618 0.477508 0.300000
v 1.683251 0.653937 0.300000
v 1.485693 0.853606 0.300000
v 1.296840 1.075442 0.300000
v 1.117559 1.318340 0.300000
v 0.948683 1.581139 0.300000
v 0.791004 1.862598 0.300000
v 0.645265 2.161399 0.300000
v 0.512164 2.476155 0.300000
v 0.392362 2.805418 0.300000
v 0.286505 3.147697 0.300000
v 0.195264 3.501473 0.300000
v 0.119410 3.865203 0.300000
v 0.059973 4.237317 0.300000
v 0.018652 4.616183 0.300000
v 0.000000 5.000000 0.000000
v 3.000000 0.000000 0.000000
v 0.018652 4.616183 0.000000
v 0.059973 4.237317 0.000000
v 0.119410 3.865203 0.000000
v 0.195264 3.501473 0.000000
v 0.286505 3.147697 0.000000
v 0.392362 2.805418 0.000000
v 0.512164 2.476155 0.000000
v 0.645265 2.161399 0.000000
v 0.791004 1.862598 0.000000
v 0.948683 1.581139 0.000000
v 1.117559 1.318340 0.000000
v 1.296840 1.075442 0.000000
v 1.485693 0.853606 0.000000
v 1.683251 0.653937 0.000000
v 1.888618 0.477508 0.000000
v 2.100884 0.325440 0.000000
v 2.319122 0.199017 0.000000
v 2.542390 0.099955 0.000000
v 2.769710 0.031087 0.000000
v 0.000000 0.000000 10.000000
v 0.000000 5.000000 10.000000
v 0.000000 0.000000 9.700000
v 0.000000 5.000000 9.700000
v 3.000000 0.000000 10.000000
v 3.000000 0.000000 9.700000
v 3.000000 0.000000 10.000000
v 0.000000 5.000000 10.000000
v 2.769710 0.031087 10.000000
v 2.542390 0.099955 10.000000
v 2.319122 0.199017 10.000000
v 2.100884 0.325440 10.000000
v 1.888618 0.477508 10.000000
v 1.683251 0.653937 10.000000
v 1.485693 0.853606 10.000000
v 1.296840 1.075442 10.000000
v 1.117559 1.318340 10.000000
v 0.948683 1.581139 10.000000
v 0.791004 1.862598 10.000000
v 0.645265 2.161399 10.000000
v 0.512164 2.476155 10.000000
v 0.392362 2.805418 10.000000
v 0.286505 3.147697 10.000000
v 0.195264 3.501473 10.000000
v 0.119410 3.865203 10.000000
v 0.059973 4.237317 10.000000
v 0.018652 4.616183 10.000000
v 0.000000 5.000000 9.700000
v 3.000000 0.000000 9.700000
v 0.018652 4.616183 9.700000
v 0.059973 4.237317 9.700000
v 0.119410 3.865203 9.700000
v 0.195264 3.501473 9.700000
v 0.286505 3.147697 9.700000
v 0.392362 2.805418 9.700000
v 0.512164 2.476155 9.700000
v 0.645265 2.161399 9.700000
v 0.791004 1.862598 9.700000
v 0.948683 1.581139 9.700000
v 1.117559 1.318340 9.700000
v 1.296840 1.075442 9.700000
v 1.485693 0.853606 9.700000
v 1.683251 0.653937 9.700000
v 1.888618 0.477508 9.700000
v 2.100884 0.325440 9.700000
v 2.319122 0.199017 9.700000
v 2.542390 0.099955 9.700000
v 2.769710 0.031087 9.700000
v 0.000000 2.000000 0.300000
v 0.000000 5.000000 0.300000
v 0.753798 2.000000 0.300000
v 0.000001 2.000000 9.700000
v 0.000001 5.000000 9.700000
v 0.753798 2.000000 9.700000
v 0.000000 5.000000 0.300000
v 0.753798 2.000000 0.300000
v 0.007459 4.824175 0.300000
v 0.020169 4.653187 0.300000
v 0.036052 4.486455 0.300000
v 0.054409 4.323795 0.300000
v 0.074848 4.165116 0.300000
v 0.097112 4.010376 0.300000
v 0.121018 3.859567 0.300000
v 0.146429 3.712707 0.300000
v 0.173237 3.569834 0.300000
v 0.201356 3.431011 0.300000
v 0.230717 3.296321 0.300000
v 0.261262 3.165869 0.300000
v 0.292943 3.039782 0.300000
v 0.325721 2.918218 0.300000
v 0.359564 2.801367 0.300000
v 0.394446 2.689457 0.300000
v 0.430345 2.582766 0.300000
v 0.467246 2.481634 0.300000
v 0.505139 2.386491 0.300000
v 0.544020 2.297884 0.300000
v 0.583890 2.216541 0.300000
v 0.624761 2.143483 0.300000
v 0.666655 2.080269 0.300000
v 0.709619 2.029685 0.300000
v 0.753798 2.000000 9.700000
v 0.000001 5.000000 9.700000
v 0.709620 2.029685 9.700000
v 0.666656 2.080269 9.700000
v 0.624762 2.143483 9.700000
v 0.583891 2.216541 9.700000
v 0.544021 2.297884 9.700000
v 0.505140 2.386491 9.700000
v 0.467247 2.481634 9.700000
v 0.430346 2.582766 9.700000
v 0.394447 2.689457 9.700000
v 0.359565 2.801367 9.700000
v 0.325722 2.918218 9.700000
v 0.292944 3.039782 9.700000
v 0.261262 3.165869 9.700000
v 0.230718 3.296321 9.700000
v 0.201357 3.431011 9.700000
v 0.173238 3.569834 9.700000
v 0.146430 3.712707 9.700000
v 0.121019 3.859567 9.700000
v 0.097113 4.010376 9.700000
v 0.074849 4.165116 9.700000
v 0.054410 4.323795 9.700000
v 0.036053 4.486455 9.700000
v 0.020170 4.653187 9.700000
v 0.007460 4.824175 9.700000
vn -1.0000 -0.0000 -0.0000
vn -0.0000 -0.0000 1.0000
vn -0.0000 -0.0000 -1.0000
vn -0.0000 -1.0000 -0.0000
vn -0.0000 1.0000 -0.0000
vn 0.9988 0.0485 -0.0000
vn 0.9941 0.1084 -0.0000
vn 0.9875 0.1577 -0.0000
vn 0.9789 0.2042 -0.0000
vn 0.9683 0.2497 -0.0000
vn 0.9554 0.2955 -0.0000
vn 0.9397 0.3419 -0.0000
vn 0.9210 0.3895 -0.0000
vn 0.8988 0.4384 -0.0000
vn 0.8724 0.4887 -0.0000
vn 0.8413 0.5406 -0.0000
vn 0.8046 0.5938 -0.0000
vn 0.7614 0.6482 -0.0000
vn 0.7109 0.7033 -0.0000
vn 0.6516 0.7585 -0.0000
vn 0.5824 0.8129 -0.0000
vn 0.5013 0.8653 -0.0000
vn 0.4056 0.9141 -0.0000
vn 0.2899 0.9570 -0.0000
vn 0.1338 0.9910 -0.0000
vn 0.9991 0.0424 -0.0000
vn 0.9972 0.0741 -0.0000
vn 0.9955 0.0948 -0.0000
vn 0.9937 0.1121 -0.0000
vn 0.9918 0.1278 -0.0000
vn 0.9898 0.1424 -0.0000
vn 0.9877 0.1566 -0.0000
vn 0.9854 0.1705 -0.0000
vn 0.9828 0.1844 -0.0000
vn 0.9801 0.1985 -0.0000
vn 0.9771 0.2130 -0.0000
vn 0.9737 0.2280 -0.0000
vn 0.9699 0.2437 -0.0000
vn 0.9655 0.2603 -0.0000
vn 0.9605 0.2782 -0.0000
vn 0.9547 0.2976 -0.0000
vn 0.9478 0.3189 -0.0000
vn 0.9394 0.3428 -0.0000
vn 0.9290 0.3700 -0.0000
vn 0.9157 0.4018 -0.0000
vn 0.8979 0.4401 -0.0000
vn 0.8727 0.4882 -0.0000
vn 0.8336 0.5524 -0.0000
vn 0.7622 0.6474 -0.0000
vn 0.5577 0.8300 -0.0000
vt 0.375000 0.000000
vt 0.625000 0.000000
vt 0.625000 0.250000
vt 0.375000 0.250000
vt 0.375000 0.750000
vt 0.376554 0.769191
vt 0.379998 0.788134
vt 0.384951 0.806740
vt 0.391272 0.824926
vt 0.398875 0.842615
vt 0.407697 0.859729
vt 0.417680 0.876192
vt 0.428772 0.891930
vt 0.440917 0.906870
vt 0.454057 0.920943
vt 0.468130 0.934083
vt 0.483070 0.946228
vt 0.498808 0.957320
vt 0.515271 0.967303
vt 0.532385 0.976125
vt 0.550074 0.983728
vt 0.568260 0.990049
vt 0.586866 0.995002
vt 0.605809 0.998446
vt 0.625000 1.000000
vt 0.375000 1.000000
vt 0.605809 0.251554
vt 0.586866 0.254998
vt 0.568260 0.259951
vt 0.550074 0.266272
vt 0.532385 0.273875
vt 0.515271 0.282697
vt 0.498808 0.292680
vt 0.483070 0.303772
vt 0.468130 0.315917
vt 0.454057 0.329057
vt 0.440917 0.343130
vt 0.428772 0.358070
vt 0.417680 0.373808
vt 0.407697 0.390271
vt 0.398875 0.407385
vt 0.391272 0.425074
vt 0.384951 0.443260
vt 0.379998 0.461866
vt 0.376554 0.480809
vt 0.375000 0.500000
vt 0.125000 0.500000
vt 0.125000 0.750000
vt 0.875000 0.500000
vt 0.875000 0.750000
vt 0.873446 0.750000
vt 0.873446 0.500000
vt 0.870002 0.750000
vt 0.870002 0.500000
vt 0.865049 0.750000
vt 0.865049 0.500000
vt 0.858728 0.750000
vt 0.858728 0.500000
vt 0.851125 0.750000
vt 0.851125 0.500000
vt 0.842303 0.750000
vt 0.842303 0.500000
vt 0.832320 0.750000
vt 0.832320 0.500000
vt 0.821228 0.750000
vt 0.821228 0.500000
vt 0.809083 0.750000
vt 0.809083 0.500000
vt 0.625000 0.750000
vt 0.625000 0.500000
vt 0.440917 0.750000
vt 0.440917 0.500000
vt 0.428772 0.750000
vt 0.428772 0.500000
vt 0.417680 0.750000
vt 0.417680 0.500000
vt 0.407697 0.750000
vt 0.407697 0.500000
vt 0.398875 0.750000
vt 0.398875 0.500000
vt 0.391272 0.750000
vt 0.391272 0.500000
vt 0.384951 0.750000
vt 0.384951 0.500000
vt 0.379998 0.750000
vt 0.379998 0.500000
vt 0.376554 0.750000
vt 0.376554 0.500000
vt 0.377474 0.514652
vt 0.381689 0.528901
vt 0.386957 0.542795
vt 0.393045 0.556350
vt 0.399824 0.569574
vt 0.407208 0.582469
vt 0.415136 0.595036
vt 0.423564 0.607274
vt 0.432455 0.619181
vt 0.441781 0.630749
vt 0.451518 0.641973
vt 0.461648 0.652844
vt 0.472156 0.663351
vt 0.483027 0.673482
vt 0.494251 0.683219
vt 0.505819 0.692545
vt 0.517726 0.701436
vt 0.529964 0.709864
vt 0.542531 0.717792
vt 0.555426 0.725176
vt 0.568650 0.731955
vt 0.582205 0.738043
vt 0.596099 0.743311
vt 0.610348 0.747526
vt 0.610348 0.002474
vt 0.596099 0.006689
vt 0.582205 0.011957
vt 0.568650 0.018045
vt 0.555426 0.024824
vt 0.542531 0.032208
vt 0.529964 0.040136
vt 0.517726 0.048564
vt 0.505820 0.057455
vt 0.494251 0.066781
vt 0.483027 0.076518
vt 0.472156 0.086649
vt 0.461648 0.097156
vt 0.451518 0.108027
vt 0.441781 0.119251
vt 0.432455 0.130820
vt 0.423564 0.142726
vt 0.415136 0.154964
vt 0.407208 0.167531
vt 0.399824 0.180426
vt 0.393045 0.193650
vt 0.386957 0.207205
vt 0.381689 0.221099
vt 0.377474 0.235348
vt 0.625000 0.747526
vt 0.875000 0.747526
vt 0.625000 0.743311
vt 0.875000 0.743311
vt 0.625000 0.738043
vt 0.875000 0.738043
vt 0.625000 0.731955
vt 0.875000 0.731955
vt 0.625000 0.725176
vt 0.875000 0.725176
vt 0.625000 0.717792
vt 0.875000 0.717792
vt 0.625000 0.709864
vt 0.875000 0.709864
vt 0.625000 0.701436
vt 0.875000 0.701436
vt 0.625000 0.692545
vt 0.875000 0.692545
vt 0.625000 0.683219
vt 0.875000 0.683219
vt 0.625000 0.673482
vt 0.875000 0.673482
vt 0.461648 0.500000
vt 0.461649 0.250000
vt 0.451518 0.500000
vt 0.451518 0.250000
vt 0.441781 0.500000
vt 0.441781 0.250000
vt 0.432455 0.500000
vt 0.432455 0.250000
vt 0.423564 0.500000
vt 0.423564 0.250000
vt 0.415136 0.500000
vt 0.415136 0.250000
vt 0.407208 0.500000
vt 0.407208 0.250000
vt 0.399824 0.500000
vt 0.399824 0.250000
vt 0.393045 0.500000
vt 0.393045 0.250000
vt 0.386957 0.500000
vt 0.386957 0.250000
vt 0.381689 0.500000
vt 0.381689 0.250000
vt 0.377474 0.500000
vt 0.377474 0.250000
s 0
f 1/1/1 2/2/1 4/3/1 3/4/1
f 5/5/2 7/5/2 9/6/2 10/7/2 11/8/2 12/9/2 13/10/2 14/11/2 15/12/2 16/13/2 17/14/2 18/15/2 19/16/2 20/17/2 21/18/2 22/19/2 23/20/2 24/21/2 25/22/2 26/23/2 27/24/2 8/25/2 2/25/2 1/26/2
f 3/4/3 4/3/3 28/3/3 30/27/3 31/28/3 32/29/3 33/30/3 34/31/3 35/32/3 36/33/3 37/34/3 38/35/3 39/36/3 40/37/3 41/38/3 42/39/3 43/40/3 44/41/3 45/42/3 46/43/3 47/44/3 48/45/3 29/46/3 6/46/3
f 3/47/4 6/46/4 5/5/4 1/48/4
f 6/46/5 29/46/5 7/5/5 5/5/5
f 28/49/6 8/50/6 27/51/6 30/52/6
f 30/52/7 27/51/7 26/53/7 31/54/7
f 31/54/8 26/53/8 25/55/8 32/56/8
f 32/56/9 25/55/9 24/57/9 33/58/9
f 33/58/10 24/57/10 23/59/10 34/60/10
f 34/60/11 23/59/11 22/61/11 35/62/11
f 35/62/12 22/61/12 21/63/12 36/64/12
f 36/64/13 21/63/13 20/65/13 37/66/13
f 37/66/14 20/65/14 19/67/14 38/68/14
f 38/68/15 19/67/15 18/69/15 39/70/15
f 39/70/16 18/69/16 17/71/16 40/72/16
f 40/72/17 17/71/17 16/73/17 41/74/17
f 41/74/18 16/73/18 15/75/18 42/76/18
f 42/76/19 15/75/19 14/77/19 43/78/19
f 43/78/20 14/77/20 13/79/20 44/80/20
f 44/80/21 13/79/21 12/81/21 45/82/21
f 45/82/22 12/81/22 11/83/22 46/84/22
f 46/84/23 11/83/23 10/85/23 47/86/23
f 47/86/24 10/85/24 9/87/24 48/88/24
f 48/88/25 9/87/25 7/5/25 29/46/25
f 28/49/5 4/49/5 2/50/5 8/50/5
f 49/1/1 50/2/1 52/3/1 51/4/1
f 53/5/2 55/5/2 57/6/2 58/7/2 59/8/2 60/9/2 61/10/2 62/11/2 63/12/2 64/13/2 65/14/2 66/15/2 67/16/2 68/17/2 69/18/2 70/19/2 71/20/2 72/21/2 73/22/2 74/23/2 75/24/2 56/25/2 50/25/2 49/26/2
f 51/4/3 52/3/3 76/3/3 78/27/3 79/28/3 80/29/3 81/30/3 82/31/3 83/32/3 84/33/3 85/34/3 86/35/3 87/36/3 88/37/3 89/38/3 90/39/3 91/40/3 92/41/3 93/42/3 94/43/3 95/44/3 96/45/3 77/46/3 54/46/3
f 51/47/4 54/46/4 53/5/4 49/48/4
f 54/46/5 77/46/5 55/5/5 53/5/5
f 76/49/6 56/50/6 75/51/6 78/52/6
f 78/52/7 75/51/7 74/53/7 79/54/7
f 79/54/8 74/53/8 73/55/8 80/56/8
f 80/56/9 73/55/9 72/57/9 81/58/9
f 81/58/10 72/57/10 71/59/10 82/60/10
f 82/60/11 71/59/11 70/61/11 83/62/11
f 83/62/12 70/61/12 69/63/12 84/64/12
f 84/64/13 69/63/13 68/65/13 85/66/13
f 85/66/14 68/65/14 67/67/14 86/68/14
f 86/68/15 67/67/15 66/69/15 87/70/15
f 87/70/16 66/69/16 65/71/16 88/72/16
f 88/72/17 65/71/17 64/73/17 89/74/17
f 89/74/18 64/73/18 63/75/18 90/76/18
f 90/76/19 63/75/19 62/77/19 91/78/19
f 91/78/20 62/77/20 61/79/20 92/80/20
f 92/80/21 61/79/21 60/81/21 93/82/21
f 93/82/22 60/81/22 59/83/22 94/84/22
f 94/84/23 59/83/23 58/85/23 95/86/23
f 95/86/24 58/85/24 57/87/24 96/88/24
f 96/88/25 57/87/25 55/5/25 77/46/25
f 76/49/5 52/49/5 50/50/5 56/50/5
f 99/4/5 104/4/5 129/46/5 102/46/5
f 102/46/2 129/46/2 131/89/2 132/90/2 133/91/2 134/92/2 135/93/2 136/94/2 137/95/2 138/96/2 139/97/2 140/98/2 141/99/2 142/100/2 143/101/2 144/102/2 145/103/2 146/104/2 147/105/2 148/106/2 149/107/2 150/108/2 151/109/2 152/110/2 153/111/2 154/112/2 130/69/2 101/69/2 100/5/2
f 100/5/1 101/69/1 98/25/1 97/26/1
f 99/47/4 102/46/4 100/5/4 97/48/4
f 97/1/3 98/2/3 103/2/3 105/113/3 106/114/3 107/115/3 108/116/3 109/117/3 110/118/3 111/119/3 112/120/3 113/121/3 114/122/3 115/123/3 116/124/3 117/125/3 118/126/3 119/127/3 120/128/3 121/129/3 122/130/3 123/131/3 124/132/3 125/133/3 126/134/3 127/135/3 128/136/3 104/4/3 99/4/3
f 103/50/26 130/69/26 154/137/26 105/138/26
f 105/138/27 154/137/27 153/139/27 106/140/27
f 106/140/28 153/139/28 152/141/28 107/142/28
f 107/142/29 152/141/29 151/143/29 108/144/29
f 108/144/30 151/143/30 150/145/30 109/146/30
f 109/146/31 150/145/31 149/147/31 110/148/31
f 110/148/32 149/147/32 148/149/32 111/150/32
f 111/150/33 148/149/33 147/151/33 112/152/33
f 112/152/34 147/151/34 146/153/34 113/154/34
f 113/154/35 146/153/35 145/155/35 114/156/35
f 114/156/36 145/155/36 144/157/36 115/158/36
f 115/158/37 144/157/37 143/70/37 116/49/37
f 116/3/38 143/70/38 142/159/38 117/160/38
f 117/160/39 142/159/39 141/161/39 118/162/39
f 118/162/40 141/161/40 140/163/40 119/164/40
f 119/164/41 140/163/41 139/165/41 120/166/41
f 120/166/42 139/165/42 138/167/42 121/168/42
f 121/168/43 138/167/43 137/169/43 122/170/43
f 122/170/44 137/169/44 136/171/44 123/172/44
f 123/172/45 136/171/45 135/173/45 124/174/45
f 124/174/46 135/173/46 134/175/46 125/176/46
f 125/176/47 134/175/47 133/177/47 126/178/47
f 126/178/48 133/177/48 132/179/48 127/180/48
f 127/180/49 132/179/49 131/181/49 128/182/49
f 128/182/50 131/181/50 129/46/50 104/4/50
f 130/69/5 103/50/5 98/50/5 101/69/5
