# Blender 4.0.1
# www.blender.org
mtllib Afffiche_Tournois.mtl
o Affiche_tournois
v 3.434782 0.100000 5.160535
v 3.434782 0.453177 5.160535
v 3.434782 0.100000 4.839465
v 3.434782 0.453177 4.839465
v 3.852173 0.100000 5.160535
v 3.852173 0.453177 5.160535
v 3.852173 0.100000 4.839465
v 3.852173 0.453177 4.839465
v 3.559999 0.382542 5.064214
v 3.559999 5.942874 5.064214
v 3.559999 0.382542 4.935786
v 3.559999 5.942874 4.935786
v 3.726955 0.382542 5.064214
v 3.726955 0.382542 4.935786
v -3.643477 0.806354 5.032107
v -3.643477 5.872239 5.032107
v -3.643477 0.806354 4.967893
v -3.643477 5.872239 4.967893
v 3.643477 0.806354 5.032107
v 3.643477 5.872239 5.032107
v 3.643477 0.806354 4.967893
v 3.643477 5.872239 4.967893
v -3.434782 0.100000 5.160535
v -3.434782 0.453177 5.160535
v -3.434782 0.100000 4.839465
v -3.434782 0.453177 4.839465
v -3.852173 0.100000 5.160535
v -3.852173 0.453177 5.160535
v -3.852173 0.100000 4.839465
v -3.852173 0.453177 4.839465
v -3.559999 0.382542 5.064214
v -3.559999 5.942874 5.064214
v -3.559999 0.382542 4.935786
v -3.559999 5.942874 4.935786
v -3.726955 0.382542 5.064214
v -3.726955 0.382542 4.935786
v 3.643477 0.806354 5.032107
v 3.643477 5.872239 5.032107
v 3.643477 0.806354 4.967893
v 3.643477 5.872239 4.967893
v -3.643477 0.806354 5.032107
v -3.643477 5.872239 5.032107
v -3.643477 0.806354 4.967893
v -3.643477 5.872239 4.967893
v 3.434782 0.453177 4.839465
v 3.434782 0.100000 4.839465
v 3.852173 0.100000 4.839465
v 3.852173 0.453177 4.839465
v -3.434782 0.453177 4.839465
v -3.434782 0.100000 4.839465
v -3.852173 0.100000 4.839465
v -3.852173 0.453177 4.839465
v 3.434782 0.100000 4.539465
v 3.852173 0.100000 4.539465
v -3.434782 0.100000 4.539465
v -3.852173 0.100000 4.539465
v 3.434782 0.453177 4.839465
v 3.434782 0.100000 4.539465
v 3.434782 0.406798 4.821553
v 3.434782 0.364034 4.798032
v 3.434782 0.323478 4.771840
v 3.434782 0.284795 4.743677
v 3.434782 0.247881 4.713850
v 3.434782 0.212767 4.682494
v 3.434782 0.179612 4.649636
v 3.434782 0.148777 4.615186
v 3.434782 0.121087 4.578860
v 3.852173 0.100000 4.539465
v 3.852173 0.453177 4.839465
v 3.852173 0.121087 4.578860
v 3.852173 0.148777 4.615186
v 3.852173 0.179612 4.649636
v 3.852173 0.212767 4.682494
v 3.852173 0.247881 4.713850
v 3.852173 0.284795 4.743677
v 3.852173 0.323478 4.771840
v 3.852173 0.364034 4.798032
v 3.852173 0.406798 4.821553
v -3.434782 0.100000 4.539465
v -3.434782 0.453177 4.839465
v -3.434782 0.121087 4.578860
v -3.434782 0.148777 4.615186
v -3.434782 0.179612 4.649636
v -3.434782 0.212767 4.682494
v -3.434782 0.247881 4.713850
v -3.434782 0.284795 4.743677
v -3.434782 0.323478 4.771840
v -3.434782 0.364034 4.798032
v -3.434782 0.406798 4.821553
v -3.852173 0.453177 4.839465
v -3.852173 0.100000 4.539465
v -3.852173 0.406798 4.821553
v -3.852173 0.364034 4.798032
v -3.852173 0.323478 4.771840
v -3.852173 0.284795 4.743677
v -3.852173 0.247881 4.713850
v -3.852173 0.212767 4.682494
v -3.852173 0.179612 4.649636
v -3.852173 0.148777 4.615186
v -3.852173 0.121087 4.578860
v 3.434782 0.100000 5.460535
v 3.852173 0.100000 5.460535
v -3.434782 0.100000 5.460535
v -3.852173 0.100000 5.460535
v 3.434782 0.100000 5.460535
v 3.434782 0.453177 5.160535
v 3.434782 0.121087 5.421140
v 3.434782 0.148777 5.384814
v 3.434782 0.179612 5.350364
v 3.434782 0.212767 5.317506
v 3.434782 0.247881 5.286150
v 3.434782 0.284795 5.256323
v 3.434782 0.323478 5.228160
v 3.434782 0.364034 5.201968
v 3.434782 0.406798 5.178447
v 3.852173 0.453177 5.160535
v 3.852173 0.100000 5.460535
v 3.852173 0.406798 5.178447
v 3.852173 0.364034 5.201968
v 3.852173 0.323478 5.228160
v 3.852173 0.284795 5.256323
v 3.852173 0.247881 5.286150
v 3.852173 0.212767 5.317506
v 3.852173 0.179612 5.350364
v 3.852173 0.148777 5.384814
v 3.852173 0.121087 5.421140
v -3.434782 0.453177 5.160535
v -3.434782 0.100000 5.460535
v -3.434782 0.406798 5.178447
v -3.434782 0.364034 5.201968
v -3.434782 0.323478 5.228160
v -3.434782 0.284795 5.256323
v -3.434782 0.247881 5.286150
v -3.434782 0.212767 5.317506
v -3.434782 0.179612 5.350364
v -3.434782 0.148777 5.384814
v -3.434782 0.121087 5.421140
v -3.852173 0.100000 5.460535
v -3.852173 0.453177 5.160535
v -3.852173 0.121087 5.421140
v -3.852173 0.148777 5.384814
v -3.852173 0.179612 5.350364
v -3.852173 0.212767 5.317506
v -3.852173 0.247881 5.286150
v -3.852173 0.284795 5.256323
v -3.852173 0.323478 5.228160
v -3.852173 0.364034 5.201968
v -3.852173 0.406798 5.178447
v 3.726955 5.836921 5.064214
v 3.601738 5.942874 5.064214
v 3.710512 5.843247 5.064214
v 3.695349 5.851554 5.064214
v 3.680970 5.860805 5.064214
v 3.667256 5.870751 5.064214
v 3.654168 5.881285 5.064214
v 3.641719 5.892359 5.064214
v 3.629964 5.903964 5.064214
v 3.619031 5.916131 5.064214
v 3.609214 5.928961 5.064214
v 3.601738 5.942874 4.935786
v 3.726955 5.836921 4.935786
v 3.609214 5.928961 4.935786
v 3.619031 5.916131 4.935786
v 3.629964 5.903964 4.935786
v 3.641719 5.892359 4.935786
v 3.654168 5.881285 4.935786
v 3.667256 5.870751 4.935786
v 3.680970 5.860805 4.935786
v 3.695349 5.851554 4.935786
v 3.710512 5.843247 4.935786
v -3.601738 5.942874 5.064214
v -3.726955 5.836921 5.064214
v -3.609214 5.928961 5.064214
v -3.619031 5.916131 5.064214
v -3.629964 5.903964 5.064214
v -3.641719 5.892359 5.064214
v -3.654168 5.881285 5.064214
v -3.667256 5.870751 5.064214
v -3.680970 5.860805 5.064214
v -3.695349 5.851554 5.064214
v -3.710512 5.843247 5.064214
v -3.726955 5.836921 4.935786
v -3.601738 5.942874 4.935786
v -3.710512 5.843247 4.935786
v -3.695349 5.851554 4.935786
v -3.680970 5.860805 4.935786
v -3.667256 5.870751 4.935786
v -3.654168 5.881285 4.935786
v -3.641719 5.892359 4.935786
v -3.629964 5.903964 4.935786
v -3.619031 5.916131 4.935786
v -3.609214 5.928961 4.935786
vn -1.0000 -0.0000 -0.0000
vn -0.0000 1.0000 -0.0000
vn 1.0000 -0.0000 -0.0000
vn -0.0000 -1.0000 -0.0000
vn -0.0000 -0.0000 1.0000
vn -0.0000 -0.0000 -1.0000
vn -0.0000 0.3603 -0.9328
vn -0.0000 0.4819 -0.8762
vn -0.0000 0.5425 -0.8400
vn -0.0000 0.5886 -0.8084
vn -0.0000 0.6285 -0.7778
vn -0.0000 0.6661 -0.7459
vn -0.0000 0.7039 -0.7103
vn -0.0000 0.7451 -0.6669
vn -0.0000 0.7953 -0.6062
vn -0.0000 0.8816 -0.4719
vn -0.0000 0.3603 0.9328
vn -0.0000 0.4819 0.8762
vn -0.0000 0.5425 0.8400
vn -0.0000 0.5886 0.8084
vn -0.0000 0.6285 0.7778
vn -0.0000 0.6661 0.7459
vn -0.0000 0.7039 0.7103
vn -0.0000 0.7451 0.6669
vn -0.0000 0.7953 0.6062
vn -0.0000 0.8816 0.4719
vn 0.8809 0.4733 -0.0000
vn 0.7942 0.6077 -0.0000
vn 0.7438 0.6684 -0.0000
vn 0.7026 0.7116 -0.0000
vn 0.6646 0.7472 -0.0000
vn 0.6270 0.7790 -0.0000
vn 0.5871 0.8095 -0.0000
vn 0.5410 0.8410 -0.0000
vn 0.4805 0.8770 -0.0000
vn 0.3590 0.9333 -0.0000
vn -0.3590 0.9333 -0.0000
vn -0.4805 0.8770 -0.0000
vn -0.5410 0.8410 -0.0000
vn -0.5871 0.8095 -0.0000
vn -0.6270 0.7790 -0.0000
vn -0.6646 0.7472 -0.0000
vn -0.7026 0.7116 -0.0000
vn -0.7438 0.6684 -0.0000
vn -0.7942 0.6077 -0.0000
vn -0.8809 0.4733 -0.0000
vt 0.375000 0.000000
vt 0.625000 0.000000
vt 0.625000 0.250000
vt 0.375000 0.250000
vt 0.125000 0.500000
vt 0.375000 0.500000
vt 0.625000 0.500000
vt 0.625000 0.750000
vt 0.375000 0.750000
vt 0.389926 0.750000
vt 0.409527 0.750000
vt 0.431354 0.750000
vt 0.454823 0.750000
vt 0.479679 0.750000
vt 0.505809 0.750000
vt 0.533191 0.750000
vt 0.561899 0.750000
vt 0.592171 0.750000
vt 0.125000 0.750000
vt 0.875000 0.500000
vt 0.875000 0.750000
vt 0.620236 0.750000
vt 0.620521 0.774623
vt 0.620894 0.797327
vt 0.621310 0.818858
vt 0.621757 0.839394
vt 0.622231 0.858991
vt 0.622729 0.877633
vt 0.623251 0.895235
vt 0.623798 0.911605
vt 0.624374 0.926306
vt 0.625000 0.937500
vt 0.625000 1.000000
vt 0.375000 1.000000
vt 0.625000 0.312500
vt 0.624374 0.323694
vt 0.623798 0.338395
vt 0.623251 0.354765
vt 0.622729 0.372367
vt 0.622231 0.391009
vt 0.621757 0.410606
vt 0.621310 0.431142
vt 0.620894 0.452673
vt 0.620521 0.475377
vt 0.620236 0.500000
vt 0.624374 0.926306
vt 0.623798 0.911605
vt 0.623251 0.895235
vt 0.622729 0.877633
vt 0.622231 0.858991
vt 0.620521 0.774623
vt 0.621310 0.431142
vt 0.621757 0.410606
vt 0.623251 0.354765
vt 0.623798 0.338395
vt 0.624374 0.323694
vt 0.389926 0.250000
vt 0.409527 0.250000
vt 0.431354 0.250000
vt 0.454823 0.250000
vt 0.479679 0.250000
vt 0.505809 0.250000
vt 0.533191 0.250000
vt 0.561899 0.250000
vt 0.592171 0.250000
vt 0.592171 0.500000
vt 0.561899 0.500000
vt 0.533191 0.500000
vt 0.505809 0.500000
vt 0.479679 0.500000
vt 0.454823 0.500000
vt 0.431354 0.500000
vt 0.409527 0.500000
vt 0.389926 0.500000
vt 0.389926 0.500000
vt 0.431354 0.500000
vt 0.454823 0.500000
vt 0.505809 0.500000
vt 0.533191 0.500000
vt 0.561899 0.500000
vt 0.592171 0.500000
vt 0.454823 0.500000
vt 0.454823 0.250000
vt 0.431354 0.250000
vt 0.409527 0.500000
vt 0.409527 0.250000
vt 0.389926 0.250000
vt 0.409527 0.500000
vt 0.409527 0.250000
vt 0.875000 0.500000
vt 0.592171 0.250000
vt 0.561899 0.250000
vt 0.533191 0.250000
vt 0.505809 0.250000
vt 0.454823 0.250000
vt 0.592171 0.750000
vt 0.561899 0.750000
vt 0.533191 0.750000
vt 0.431354 0.750000
vt 0.389926 0.750000
vt 0.592171 0.000000
vt 0.561899 0.000000
vt 0.533191 0.000000
vt 0.505809 0.000000
vt 0.479679 0.000000
vt 0.454823 0.000000
vt 0.431354 0.000000
vt 0.409527 0.000000
vt 0.389926 0.000000
vt 0.875000 0.750000
vt 0.875000 0.750000
vt 0.454823 1.000000
vt 0.454823 0.750000
vt 0.431354 1.000000
vt 0.431354 0.750000
vt 0.409527 1.000000
vt 0.409527 0.750000
vt 0.389926 1.000000
vt 0.409527 1.000000
vt 0.409527 0.750000
vt 0.454823 0.750000
vt 0.625000 0.750000
vt 0.389926 0.000000
vt 0.431354 0.000000
vt 0.533191 0.000000
vt 0.812500 0.500000
vt 0.812500 0.750000
vt 0.801306 0.750000
vt 0.801306 0.500000
vt 0.786605 0.750000
vt 0.786605 0.500000
vt 0.770235 0.750000
vt 0.770235 0.500000
vt 0.752633 0.750000
vt 0.752633 0.500000
vt 0.621757 0.750000
vt 0.621757 0.500000
vt 0.621310 0.750000
vt 0.621310 0.500000
vt 0.620894 0.750000
vt 0.620894 0.500000
vt 0.620521 0.750000
vt 0.620521 0.500000
vt 0.620521 0.750000
vt 0.620521 0.500000
vt 0.786605 0.750000
vt 0.786605 0.500000
s 0
f 1/1/1 2/2/1 4/3/1 3/4/1
f 25/5/2 29/6/2 51/6/2 50/5/2
f 7/6/3 8/7/3 6/8/3 5/9/3
f 28/8/1 27/9/1 104/9/1 138/9/1 140/10/1 141/11/1 142/12/1 143/13/1 144/14/1 145/15/1 146/16/1 147/17/1 148/18/1 139/8/1
f 3/5/4 7/6/4 5/9/4 1/19/4
f 8/7/2 4/20/2 2/21/2 6/8/2
f 9/1/1 10/2/1 12/3/1 11/4/1
f 13/9/5 149/22/5 151/23/5 152/24/5 153/25/5 154/26/5 155/27/5 156/28/5 157/29/5 158/30/5 159/31/5 150/32/5 10/33/5 9/34/5
f 11/4/6 12/3/6 160/35/6 162/36/6 163/37/6 164/38/6 165/39/6 166/40/6 167/41/6 168/42/6 169/43/6 170/44/6 161/45/6 14/6/6
f 11/5/4 14/6/4 13/9/4 9/19/4
f 14/6/3 161/45/3 149/22/3 13/9/3
f 15/1/1 16/2/1 18/3/1 17/4/1
f 17/4/6 18/3/6 22/7/6 21/6/6
f 21/6/3 22/7/3 20/8/3 19/9/3
f 17/5/4 21/6/4 19/9/4 15/19/4
f 22/7/2 18/20/2 16/21/2 20/8/2
f 23/1/3 25/4/3 26/3/3 24/2/3
f 29/6/2 30/7/2 52/7/2 51/6/2
f 29/6/1 27/9/1 28/8/1 30/7/1
f 1/19/4 5/9/4 102/9/4 101/19/4
f 25/5/4 23/19/4 27/9/4 29/6/4
f 30/7/2 28/8/2 24/21/2 26/20/2
f 31/1/3 33/4/3 34/3/3 32/2/3
f 35/9/5 31/34/5 32/33/5 171/32/5 173/46/5 174/47/5 175/48/5 176/49/5 177/50/5 178/26/5 179/25/5 180/24/5 181/51/5 172/22/5
f 33/4/6 36/6/6 182/45/6 184/44/6 185/43/6 186/52/6 187/53/6 188/40/6 189/39/6 190/54/6 191/55/6 192/56/6 183/35/6 34/3/6
f 33/5/4 31/19/4 35/9/4 36/6/4
f 36/6/1 35/9/1 172/22/1 182/45/1
f 37/1/3 39/4/3 40/3/3 38/2/3
f 43/6/1 41/9/1 42/8/1 44/7/1
f 39/5/4 37/19/4 41/9/4 43/6/4
f 44/7/2 42/8/2 38/21/2 40/20/2
f 47/6/4 46/5/4 53/5/4 54/6/4
f 49/3/3 50/4/3 55/4/3 79/4/3 81/57/3 82/58/3 83/59/3 84/60/3 85/61/3 86/62/3 87/63/3 88/64/3 89/65/3 80/3/3
f 4/20/2 8/7/2 48/7/2 45/20/2
f 3/4/2 4/3/2 45/3/2 46/4/2
f 30/7/2 26/20/2 49/20/2 52/7/2
f 26/3/2 25/4/2 50/4/2 49/3/2
f 8/7/2 7/6/2 47/6/2 48/7/2
f 7/6/2 3/5/2 46/5/2 47/6/2
f 45/20/2 48/7/2 69/7/2 57/20/2
f 52/7/2 49/20/2 80/20/2 90/7/2
f 51/6/1 52/7/1 90/7/1 92/66/1 93/67/1 94/68/1 95/69/1 96/70/1 97/71/1 98/72/1 99/73/1 100/74/1 91/6/1 56/6/1
f 55/4/2 56/6/2 91/6/2 79/4/2
f 48/7/3 47/6/3 54/6/3 68/6/3 70/75/3 71/73/3 72/76/3 73/77/3 74/70/3 75/78/3 76/79/3 77/80/3 78/81/3 69/7/3
f 53/4/2 58/4/2 68/6/2 54/6/2
f 50/5/4 51/6/4 56/6/4 55/5/4
f 57/20/7 69/7/7 78/7/7 59/20/7
f 59/20/8 78/7/8 77/7/8 60/20/8
f 60/20/9 77/7/9 76/7/9 61/20/9
f 61/20/10 76/7/10 75/7/10 62/20/10
f 62/20/11 75/7/11 74/7/11 63/20/11
f 63/3/12 74/7/12 73/82/12 64/83/12
f 64/83/13 73/82/13 72/72/13 65/84/13
f 65/84/14 72/72/14 71/85/14 66/86/14
f 66/86/15 71/85/15 70/74/15 67/87/15
f 67/87/16 70/74/16 68/6/16 58/4/16
f 79/4/16 91/6/16 100/74/16 81/87/16
f 81/87/15 100/74/15 99/88/15 82/89/15
f 82/89/14 99/88/14 98/72/14 83/84/14
f 83/84/13 98/72/13 97/82/13 84/83/13
f 84/83/12 97/82/12 96/7/12 85/3/12
f 85/20/11 96/7/11 95/7/11 86/20/11
f 86/20/10 95/7/10 94/7/10 87/20/10
f 87/20/9 94/7/9 93/7/9 88/20/9
f 88/20/8 93/7/8 92/7/8 89/90/8
f 89/90/7 92/7/7 90/7/7 80/20/7
f 46/4/1 45/3/1 57/3/1 59/91/1 60/92/1 61/93/1 62/94/1 63/61/1 64/95/1 65/84/1 66/58/1 67/87/1 58/4/1 53/4/1
f 6/8/2 2/21/2 106/21/2 116/8/2
f 24/21/2 28/8/2 139/8/2 127/21/2
f 27/9/4 23/19/4 103/19/4 104/9/4
f 5/9/3 6/8/3 116/8/3 118/96/3 119/97/3 120/98/3 121/15/3 122/14/3 123/13/3 124/99/3 125/11/3 126/100/3 117/9/3 102/9/3
f 104/9/2 103/34/2 128/34/2 138/9/2
f 23/1/3 24/2/3 127/2/3 129/101/3 130/102/3 131/103/3 132/104/3 133/105/3 134/106/3 135/107/3 136/108/3 137/109/3 128/1/3 103/1/3
f 102/9/2 117/9/2 105/34/2 101/34/2
f 116/8/17 106/21/17 115/110/17 118/8/17
f 118/8/18 115/110/18 114/21/18 119/8/18
f 119/8/19 114/21/19 113/21/19 120/8/19
f 120/8/20 113/21/20 112/111/20 121/8/20
f 121/8/21 112/111/21 111/21/21 122/8/21
f 122/8/22 111/33/22 110/112/22 123/113/22
f 123/113/23 110/112/23 109/114/23 124/115/23
f 124/115/24 109/114/24 108/116/24 125/117/24
f 125/117/25 108/116/25 107/118/25 126/100/25
f 126/100/26 107/118/26 105/34/26 117/9/26
f 138/9/26 128/34/26 137/118/26 140/100/26
f 140/100/25 137/118/25 136/119/25 141/120/25
f 141/120/24 136/119/24 135/114/24 142/99/24
f 142/99/23 135/114/23 134/112/23 143/121/23
f 143/121/22 134/112/22 133/33/22 144/8/22
f 144/8/21 133/21/21 132/21/21 145/122/21
f 145/122/20 132/21/20 131/21/20 146/8/20
f 146/8/19 131/21/19 130/21/19 147/8/19
f 147/8/18 130/21/18 129/21/18 148/8/18
f 148/8/17 129/21/17 127/21/17 139/8/17
f 2/2/1 1/1/1 101/1/1 105/1/1 107/123/1 108/108/1 109/124/1 110/106/1 111/105/1 112/104/1 113/125/1 114/102/1 115/101/1 106/2/1
f 160/126/27 150/127/27 159/128/27 162/129/27
f 162/129/28 159/128/28 158/130/28 163/131/28
f 163/131/29 158/130/29 157/132/29 164/133/29
f 164/133/30 157/132/30 156/134/30 165/135/30
f 165/135/31 156/134/31 155/8/31 166/7/31
f 166/7/32 155/8/32 154/136/32 167/137/32
f 167/137/33 154/136/33 153/138/33 168/139/33
f 168/139/34 153/138/34 152/140/34 169/141/34
f 169/141/35 152/140/35 151/142/35 170/143/35
f 170/143/36 151/142/36 149/22/36 161/45/36
f 160/126/2 12/20/2 10/21/2 150/127/2
f 182/45/37 172/22/37 181/144/37 184/145/37
f 184/145/38 181/144/38 180/140/38 185/141/38
f 185/141/39 180/140/39 179/138/39 186/139/39
f 186/139/40 179/138/40 178/136/40 187/137/40
f 187/137/41 178/136/41 177/8/41 188/7/41
f 188/7/42 177/8/42 176/134/42 189/135/42
f 189/135/43 176/134/43 175/132/43 190/133/43
f 190/133/44 175/132/44 174/146/44 191/147/44
f 191/147/45 174/146/45 173/128/45 192/129/45
f 192/129/46 173/128/46 171/127/46 183/126/46
f 183/126/2 171/127/2 32/21/2 34/20/2
