# Blender 4.0.1
# www.blender.org
mtllib Wall-tournament.mtl.mtl
o Wall.007
v -10.000000 0.100000 10.000000
v -10.000000 16.100000 10.000000
v -10.000000 0.100000 -10.000000
v -10.000000 16.100000 -10.000000
v -9.500000 0.100000 10.000000
v -9.500000 16.100000 10.000000
v -9.500000 0.100000 -10.000000
v -9.500000 16.100000 -10.000000
v 9.500000 0.100000 10.000000
v 9.500000 16.102674 10.000000
v 9.500000 0.100000 -10.000000
v 9.500000 16.102674 -10.000000
v 10.000000 0.100000 10.000000
v 10.000000 16.102674 10.000000
v 10.000000 0.100000 -10.000000
v 10.000000 16.102674 -10.000000
v -9.500000 0.100000 10.000000
v -9.500000 16.100000 10.000000
v -9.500000 0.100000 9.500000
v -9.500000 16.100000 9.500000
v 9.500000 0.100000 10.000000
v 9.500000 16.100000 10.000000
v 9.500000 0.100000 9.500000
v 9.500000 16.100000 9.500000
v -8.990000 5.504557 9.500000
v -8.990000 8.653442 9.500000
v -7.010000 8.653442 9.500000
v -7.010000 5.504557 9.500000
v -8.990000 5.504557 10.000000
v -8.990000 8.653442 10.000000
v -7.010000 8.653442 10.000000
v -7.010000 5.504557 10.000000
v 7.010000 5.504557 9.500000
v 7.010000 8.653442 9.500000
v 8.990000 8.653442 9.500000
v 8.990000 5.504557 9.500000
v 7.010000 5.504557 10.000000
v 7.010000 8.653442 10.000000
v 8.990000 8.653442 10.000000
v 8.990000 5.504557 10.000000
vn -1.0000 -0.0000 -0.0000
vn -0.0000 -0.0000 -1.0000
vn 1.0000 -0.0000 -0.0000
vn -0.0000 -0.0000 1.0000
vn -0.0000 -1.0000 -0.0000
vn -0.0000 1.0000 -0.0000
vt 0.375000 0.000000
vt 0.625000 0.000000
vt 0.625000 0.250000
vt 0.375000 0.250000
vt 0.625000 0.500000
vt 0.375000 0.500000
vt 0.625000 0.750000
vt 0.375000 0.750000
vt 0.625000 1.000000
vt 0.375000 1.000000
vt 0.125000 0.500000
vt 0.125000 0.750000
vt 0.875000 0.500000
vt 0.875000 0.750000
vt 0.459446 0.256711
vt 0.508648 0.256711
vt 0.508648 0.493289
vt 0.459446 0.493290
vt 0.459446 0.282763
vt 0.508648 0.282763
vt 0.508648 0.467237
vt 0.459446 0.467237
vt 0.508648 0.993289
vt 0.459446 0.993289
vt 0.459446 0.967237
vt 0.459446 0.756711
vt 0.459446 0.782763
vt 0.508648 0.782763
vt 0.508648 0.756710
vt 0.508648 0.967237
vt 0.375000 0.227519
vt 0.375000 0.242917
vt 0.625000 0.242917
vt 0.625000 0.227519
vt 0.625000 0.522481
vt 0.625000 0.507083
vt 0.375000 0.507083
vt 0.375000 0.522481
vt 0.125000 0.507083
vt 0.125000 0.522481
vt 0.875000 0.507083
vt 0.875000 0.522481
s 0
f 1/1/1 2/2/1 4/3/1 3/4/1
f 3/4/2 4/3/2 8/5/2 7/6/2
f 7/6/3 8/5/3 6/7/3 5/8/3
f 5/8/4 6/7/4 2/9/4 1/10/4
f 3/11/5 7/6/5 5/8/5 1/12/5
f 8/5/6 4/13/6 2/14/6 6/7/6
f 9/1/1 10/2/1 12/3/1 11/4/1
f 11/4/2 12/3/2 16/5/2 15/6/2
f 15/6/3 16/5/3 14/7/3 13/8/3
f 13/8/4 14/7/4 10/9/4 9/10/4
f 11/11/5 15/6/5 13/8/5 9/12/5
f 16/5/6 12/13/6 10/14/6 14/7/6
f 17/1/1 18/2/1 20/3/1 19/4/1
f 25/15/2 19/4/2 20/3/2 26/16/2
f 35/17/2 24/5/2 23/6/2 36/18/2
f 23/6/2 19/4/2 25/15/2 28/19/2 27/20/2 26/16/2 20/3/2 24/5/2 35/17/2 34/21/2 33/22/2 36/18/2
f 23/6/3 24/5/3 22/7/3 21/8/3
f 30/23/4 18/9/4 17/10/4 29/24/4
f 32/25/4 29/24/4 17/10/4 21/8/4 40/26/4 37/27/4 38/28/4 39/29/4 22/7/4 18/9/4 30/23/4 31/30/4
f 40/26/4 21/8/4 22/7/4 39/29/4
f 19/11/5 23/6/5 21/8/5 17/12/5
f 24/5/6 20/13/6 18/14/6 22/7/6
f 29/31/3 25/32/3 26/33/3 30/34/3
f 31/35/1 27/36/1 28/37/1 32/38/1
f 32/38/6 28/37/6 25/39/6 29/40/6
f 26/41/5 27/36/5 31/35/5 30/42/5
f 37/31/3 33/32/3 34/33/3 38/34/3
f 39/35/1 35/36/1 36/37/1 40/38/1
f 40/38/6 36/37/6 33/39/6 37/40/6
f 34/41/5 35/36/5 39/35/5 38/42/5
