# Blender 4.0.1
# www.blender.org
mtllib Gradin_Angle.mtl
o Gradin_Angle
v 0.000000 0.000000 2.400000
v 0.000000 2.000000 2.400000
v 0.000000 0.000000 0.400000
v 0.000000 4.000000 2.400000
v 0.000000 0.000000 0.000000
v 0.000000 1.800000 2.400000
v 0.000000 1.800000 2.200000
v 0.000000 1.500000 2.200000
v 0.000000 1.500000 2.000000
v 0.000000 1.400000 2.000000
v 0.000000 1.400000 1.800000
v 0.000000 1.100000 1.800000
v 0.000000 1.100000 1.600000
v 0.000000 1.000000 1.600000
v 0.000000 1.000000 1.400000
v 0.000000 0.700000 1.400000
v 0.000000 0.700000 1.200000
v 0.000000 0.600000 1.200000
v 0.000000 0.600000 1.000000
v 0.000000 0.300000 1.000000
v 0.000000 0.300000 0.800000
v 0.000000 0.200000 0.800000
v 0.000000 0.200000 0.600000
v 0.000000 0.000000 0.600000
v -2.400000 0.000000 -0.000000
v -2.400000 2.000000 -0.000000
v -0.400000 0.000000 0.000000
v 0.000000 0.000000 -0.000000
v -2.400000 4.000000 -0.000000
v -0.600000 0.000000 0.000000
v -0.600000 0.200000 0.000000
v -0.800000 0.200000 0.000000
v -0.800000 0.300000 0.000000
v -1.000000 0.300000 0.000000
v -1.000000 0.600000 0.000000
v -1.200000 0.600000 0.000000
v -1.200000 0.700000 0.000000
v -1.400000 0.700000 0.000000
v -1.400000 1.000000 0.000000
v -1.600000 1.000000 -0.000000
v -1.600000 1.100000 -0.000000
v -1.800000 1.100000 -0.000000
v -1.800000 1.400000 -0.000000
v -2.000000 1.400000 -0.000000
v -2.000000 1.500000 -0.000000
v -2.200000 1.500000 -0.000000
v -2.200000 1.800000 -0.000000
v -2.400000 1.800000 -0.000000
v -2.400000 0.000000 0.000000
v -2.400000 2.000000 0.000000
v -0.400000 0.000000 0.000000
v -2.400000 4.000000 0.000000
v 0.000000 0.000000 0.000000
v -2.400000 1.800000 0.000000
v -2.200000 1.800000 0.000000
v -2.200000 1.500000 0.000000
v -2.000000 1.500000 0.000000
v -2.000000 1.400000 0.000000
v -1.800000 1.400000 0.000000
v -1.800000 1.100000 0.000000
v -1.600000 1.100000 0.000000
v -1.600000 1.000000 0.000000
v -1.400000 1.000000 0.000000
v -1.400000 0.700000 0.000000
v -1.200000 0.700000 0.000000
v -1.200000 0.600000 0.000000
v -1.000000 0.600000 0.000000
v -1.000000 0.300000 0.000000
v -0.800000 0.300000 0.000000
v -0.800000 0.200000 0.000000
v -0.600000 0.200000 0.000000
v -0.600000 0.000000 0.000000
v 0.000033 0.000000 2.403334
v 0.000033 2.000000 2.403334
v 0.000034 0.000000 0.403333
v 0.000033 4.000000 2.403334
v 0.000034 0.000000 0.003333
v 0.000033 1.800000 2.403334
v 0.000034 1.800000 2.203334
v 0.000034 1.500000 2.203334
v 0.000034 1.500000 2.003334
v 0.000034 1.400000 2.003334
v 0.000034 1.400000 1.803334
v 0.000034 1.100000 1.803334
v 0.000034 1.100000 1.603333
v 0.000034 1.000000 1.603333
v 0.000034 1.000000 1.403333
v 0.000034 0.700000 1.403333
v 0.000034 0.700000 1.203333
v 0.000034 0.600000 1.203333
v 0.000034 0.600000 1.003333
v 0.000034 0.300000 1.003333
v 0.000034 0.300000 0.803333
v 0.000034 0.200000 0.803333
v 0.000034 0.200000 0.603333
v 0.000034 0.000000 0.603333
vn -0.0000 -1.0000 -0.0000
vn -0.0000 1.0000 -0.0000
vn 0.7071 -0.0000 -0.7071
vn -0.7071 -0.0000 0.7071
vn -0.0000 -0.0000 -1.0000
vn -1.0000 -0.0000 -0.0000
vt 0.375000 0.750000
vt 0.375000 0.500000
vt 0.125000 0.750000
vt 0.125000 0.500000
vt 0.400000 0.750000
vt 0.400000 0.500000
vt 0.425000 0.750000
vt 0.425000 0.500000
vt 0.450000 0.750000
vt 0.450000 0.500000
vt 0.475000 0.750000
vt 0.475000 0.500000
vt 0.625000 0.750000
vt 0.625000 0.500000
vt 0.775000 0.750000
vt 0.775000 0.500000
vt 0.800000 0.750000
vt 0.800000 0.500000
vt 0.825000 0.750000
vt 0.825000 0.500000
vt 0.850000 0.750000
vt 0.850000 0.500000
vt 0.875000 0.750000
vt 0.875000 0.500000
vt 0.625000 0.000000
vt 0.375000 0.000000
vt 0.375000 0.250000
vt 0.625000 0.250000
vt 0.600000 0.250000
vt 0.600000 0.275000
vt 0.575000 0.275000
vt 0.575000 0.300000
vt 0.550000 0.300000
vt 0.550000 0.325000
vt 0.525000 0.325000
vt 0.525000 0.350000
vt 0.500000 0.350000
vt 0.500000 0.375000
vt 0.475000 0.375000
vt 0.475000 0.400000
vt 0.450000 0.400000
vt 0.450000 0.425000
vt 0.425000 0.425000
vt 0.425000 0.450000
vt 0.400000 0.450000
vt 0.400000 0.475000
vt 0.375000 0.475000
s 0
f 27/1/1 28/1/1 5/2/1 3/2/1
f 25/3/1 27/1/1 3/2/1 1/4/1
f 28/1/2 30/1/2 24/2/2 5/2/2
f 30/1/3 31/5/3 23/6/3 24/2/3
f 31/5/2 32/5/2 22/6/2 23/6/2
f 32/5/3 33/7/3 21/8/3 22/6/3
f 33/7/2 34/7/2 20/8/2 21/8/2
f 34/7/3 35/9/3 19/10/3 20/8/3
f 35/9/2 36/9/2 18/10/2 19/10/2
f 36/9/3 37/11/3 17/12/3 18/10/3
f 37/11/2 38/11/2 16/12/2 17/12/2
f 38/11/3 39/13/3 15/14/3 16/12/3
f 39/13/2 40/15/2 14/16/2 15/14/2
f 40/15/3 41/15/3 13/16/3 14/16/3
f 41/15/2 42/17/2 12/18/2 13/16/2
f 42/17/3 43/17/3 11/18/3 12/18/3
f 43/17/2 44/19/2 10/20/2 11/18/2
f 44/19/3 45/19/3 9/20/3 10/20/3
f 45/19/2 46/21/2 8/22/2 9/20/2
f 46/21/3 47/21/3 7/22/3 8/22/3
f 47/21/2 48/23/2 6/24/2 7/22/2
f 48/23/3 29/23/3 4/24/3 6/24/3
f 29/23/4 26/23/4 2/24/4 4/24/4
f 26/25/4 25/26/4 1/27/4 2/28/4
f 49/27/5 50/28/5 52/28/5 54/29/5 55/30/5 56/31/5 57/32/5 58/33/5 59/34/5 60/35/5 61/36/5 62/37/5 63/38/5 64/39/5 65/40/5 66/41/5 67/42/5 68/43/5 69/44/5 70/45/5 71/46/5 72/47/5 53/2/5 51/2/5
f 73/27/6 74/28/6 76/28/6 78/29/6 79/30/6 80/31/6 81/32/6 82/33/6 83/34/6 84/35/6 85/36/6 86/37/6 87/38/6 88/39/6 89/40/6 90/41/6 91/42/6 92/43/6 93/44/6 94/45/6 95/46/6 96/47/6 77/2/6 75/2/6
