# Blender 4.0.1
# www.blender.org
mtllib Blade_Anime.001.mtl
o Blade_Anime.001
v 0.443706 -0.033687 1.103088
v 0.443706 -0.049216 1.103088
v 0.443706 -0.033687 1.369312
v 0.443706 -0.049216 1.369312
v 0.000000 -0.002627 1.103088
v -0.000000 -0.064746 1.103088
v 0.000000 -0.002627 1.369312
v -0.000000 -0.064746 1.369312
v 0.665559 -0.033687 1.300865
v 0.665559 -0.033687 1.171535
v 0.665559 -0.049216 1.171535
v 0.665559 -0.049216 1.300865
v 0.887412 -0.041732 1.236116
v 0.887412 -0.041732 1.236284
v 0.887412 -0.041171 1.236284
v 0.887412 -0.041171 1.236116
v 0.443706 -0.033687 0.730375
v 0.443706 -0.049216 0.730375
v 0.443706 -0.033687 0.996599
v 0.443706 -0.049216 0.996599
v 0.000000 -0.002627 0.730375
v -0.000000 -0.064746 0.730375
v 0.000000 -0.002627 0.996599
v -0.000000 -0.064746 0.996599
v 0.665559 -0.033687 0.928152
v 0.665559 -0.033687 0.798823
v 0.665559 -0.049216 0.798823
v 0.665559 -0.049216 0.928152
v 0.887412 -0.041732 0.863403
v 0.887412 -0.041732 0.863572
v 0.887412 -0.041171 0.863572
v 0.887412 -0.041171 0.863403
v 0.443706 -0.033687 0.357662
v 0.443706 -0.049216 0.357662
v 0.443706 -0.033687 0.623886
v 0.443706 -0.049216 0.623886
v 0.000000 -0.002627 0.357662
v -0.000000 -0.064746 0.357662
v 0.000000 -0.002627 0.623886
v -0.000000 -0.064746 0.623886
v 0.665559 -0.033687 0.555439
v 0.665559 -0.033687 0.426109
v 0.665559 -0.049216 0.426109
v 0.665559 -0.049216 0.555439
v 0.887412 -0.041732 0.490690
v 0.887412 -0.041732 0.490858
v 0.887412 -0.041171 0.490858
v 0.887412 -0.041171 0.490690
v 0.443706 -0.033687 -0.015051
v 0.443706 -0.049216 -0.015051
v 0.443706 -0.033687 0.251173
v 0.443706 -0.049216 0.251173
v 0.000000 -0.002627 -0.015051
v -0.000000 -0.064746 -0.015051
v 0.000000 -0.002627 0.251173
v -0.000000 -0.064746 0.251173
v 0.665559 -0.033687 0.182726
v 0.665559 -0.033687 0.053396
v 0.665559 -0.049216 0.053396
v 0.665559 -0.049216 0.182726
v 0.887412 -0.041732 0.117977
v 0.887412 -0.041732 0.118146
v 0.887412 -0.041171 0.118146
v 0.887412 -0.041171 0.117977
v 0.443706 -0.033687 -0.387764
v 0.443706 -0.049216 -0.387764
v 0.443706 -0.033687 -0.121540
v 0.443706 -0.049216 -0.121540
v 0.000000 -0.002627 -0.387764
v -0.000000 -0.064746 -0.387764
v 0.000000 -0.002627 -0.121540
v -0.000000 -0.064746 -0.121540
v 0.665559 -0.033687 -0.189987
v 0.665559 -0.033687 -0.319316
v 0.665559 -0.049216 -0.319316
v 0.665559 -0.049216 -0.189987
v 0.887412 -0.041732 -0.254736
v 0.887412 -0.041732 -0.254567
v 0.887412 -0.041171 -0.254567
v 0.887412 -0.041171 -0.254736
v 0.443706 -0.033687 -0.760476
v 0.443706 -0.049216 -0.760476
v 0.443706 -0.033687 -0.494253
v 0.443706 -0.049216 -0.494253
v 0.000000 -0.002627 -0.760476
v -0.000000 -0.064746 -0.760476
v 0.000000 -0.002627 -0.494253
v -0.000000 -0.064746 -0.494253
v 0.665559 -0.033687 -0.562700
v 0.665559 -0.033687 -0.692029
v 0.665559 -0.049216 -0.692029
v 0.665559 -0.049216 -0.562700
v 0.887412 -0.041732 -0.627449
v 0.887412 -0.041732 -0.627280
v 0.887412 -0.041171 -0.627280
v 0.887412 -0.041171 -0.627449
v 0.443706 -0.033687 -1.133189
v 0.443706 -0.049216 -1.133189
v 0.443706 -0.033687 -0.866966
v 0.443706 -0.049216 -0.866966
v 0.000000 -0.002627 -1.133189
v -0.000000 -0.064746 -1.133189
v 0.000000 -0.002627 -0.866966
v -0.000000 -0.064746 -0.866966
v 0.665559 -0.033687 -0.935413
v 0.665559 -0.033687 -1.064742
v 0.665559 -0.049216 -1.064742
v 0.665559 -0.049216 -0.935413
v 0.887412 -0.041732 -1.000162
v 0.887412 -0.041732 -0.999993
v 0.887412 -0.041171 -0.999993
v 0.887412 -0.041171 -1.000162
v 0.443706 -0.033687 -1.505902
v 0.443706 -0.049216 -1.505902
v 0.443706 -0.033687 -1.239679
v 0.443706 -0.049216 -1.239679
v 0.000000 -0.002627 -1.505902
v -0.000000 -0.064746 -1.505902
v 0.000000 -0.002627 -1.239679
v -0.000000 -0.064746 -1.239679
v 0.665559 -0.033687 -1.308126
v 0.665559 -0.033687 -1.437455
v 0.665559 -0.049216 -1.437455
v 0.665559 -0.049216 -1.308126
v 0.887412 -0.041732 -1.372875
v 0.887412 -0.041732 -1.372706
v 0.887412 -0.041171 -1.372706
v 0.887412 -0.041171 -1.372875
v -0.443706 0.012903 1.324941
v -0.443706 0.028432 1.324941
v -0.443706 0.012903 1.591165
v -0.443706 0.028432 1.591165
v -0.000000 -0.018157 1.324941
v -0.000000 0.043962 1.324941
v -0.000000 -0.018157 1.591165
v -0.000000 0.043962 1.591165
v -0.665559 0.012903 1.522718
v -0.665559 0.012903 1.393389
v -0.665559 0.028432 1.393389
v -0.665559 0.028432 1.522718
v -0.887412 0.020948 1.457969
v -0.887412 0.020948 1.458137
v -0.887412 0.020387 1.458137
v -0.887412 0.020387 1.457969
v -0.443706 0.012903 0.952228
v -0.443706 0.028432 0.952228
v -0.443706 0.012903 1.218452
v -0.443706 0.028432 1.218452
v -0.000000 -0.018157 0.952228
v -0.000000 0.043962 0.952228
v -0.000000 -0.018157 1.218452
v -0.000000 0.043962 1.218452
v -0.665559 0.012903 1.150005
v -0.665559 0.012903 1.020675
v -0.665559 0.028432 1.020675
v -0.665559 0.028432 1.150005
v -0.887412 0.020948 1.085256
v -0.887412 0.020948 1.085425
v -0.887412 0.020387 1.085425
v -0.887412 0.020387 1.085256
v -0.443706 0.012903 0.579515
v -0.443706 0.028432 0.579515
v -0.443706 0.012903 0.845739
v -0.443706 0.028432 0.845739
v -0.000000 -0.018157 0.579515
v -0.000000 0.043962 0.579515
v -0.000000 -0.018157 0.845739
v -0.000000 0.043962 0.845739
v -0.665559 0.012903 0.777292
v -0.665559 0.012903 0.647962
v -0.665559 0.028432 0.647962
v -0.665559 0.028432 0.777292
v -0.887412 0.020948 0.712543
v -0.887412 0.020948 0.712711
v -0.887412 0.020387 0.712711
v -0.887412 0.020387 0.712543
v -0.443706 0.012903 0.206802
v -0.443706 0.028432 0.206802
v -0.443706 0.012903 0.473026
v -0.443706 0.028432 0.473026
v -0.000000 -0.018157 0.206802
v -0.000000 0.043962 0.206802
v -0.000000 -0.018157 0.473026
v -0.000000 0.043962 0.473026
v -0.665559 0.012903 0.404579
v -0.665559 0.012903 0.275249
v -0.665559 0.028432 0.275249
v -0.665559 0.028432 0.404579
v -0.887412 0.020948 0.339830
v -0.887412 0.020948 0.339999
v -0.887412 0.020387 0.339999
v -0.887412 0.020387 0.339830
v -0.443706 0.012903 -0.165911
v -0.443706 0.028432 -0.165911
v -0.443706 0.012903 0.100313
v -0.443706 0.028432 0.100313
v -0.000000 -0.018157 -0.165911
v -0.000000 0.043962 -0.165911
v -0.000000 -0.018157 0.100313
v -0.000000 0.043962 0.100313
v -0.665559 0.012903 0.031866
v -0.665559 0.012903 -0.097464
v -0.665559 0.028432 -0.097464
v -0.665559 0.028432 0.031866
v -0.887412 0.020948 -0.032883
v -0.887412 0.020948 -0.032714
v -0.887412 0.020387 -0.032714
v -0.887412 0.020387 -0.032883
v -0.443706 0.012903 -0.538624
v -0.443706 0.028432 -0.538624
v -0.443706 0.012903 -0.272400
v -0.443706 0.028432 -0.272400
v -0.000000 -0.018157 -0.538624
v -0.000000 0.043962 -0.538624
v -0.000000 -0.018157 -0.272400
v -0.000000 0.043962 -0.272400
v -0.665559 0.012903 -0.340847
v -0.665559 0.012903 -0.470177
v -0.665559 0.028432 -0.470177
v -0.665559 0.028432 -0.340847
v -0.887412 0.020948 -0.405596
v -0.887412 0.020948 -0.405428
v -0.887412 0.020387 -0.405428
v -0.887412 0.020387 -0.405596
v -0.443706 0.012903 -0.911337
v -0.443706 0.028432 -0.911337
v -0.443706 0.012903 -0.645113
v -0.443706 0.028432 -0.645113
v -0.000000 -0.018157 -0.911337
v -0.000000 0.043962 -0.911337
v -0.000000 -0.018157 -0.645113
v -0.000000 0.043962 -0.645113
v -0.665559 0.012903 -0.713560
v -0.665559 0.012903 -0.842890
v -0.665559 0.028432 -0.842890
v -0.665559 0.028432 -0.713560
v -0.887412 0.020948 -0.778309
v -0.887412 0.020948 -0.778141
v -0.887412 0.020387 -0.778141
v -0.887412 0.020387 -0.778309
v -0.443706 0.012903 -1.284050
v -0.443706 0.028432 -1.284050
v -0.443706 0.012903 -1.017826
v -0.443706 0.028432 -1.017826
v -0.000000 -0.018157 -1.284050
v -0.000000 0.043962 -1.284050
v -0.000000 -0.018157 -1.017826
v -0.000000 0.043962 -1.017826
v -0.665559 0.012903 -1.086273
v -0.665559 0.012903 -1.215602
v -0.665559 0.028432 -1.215602
v -0.665559 0.028432 -1.086273
v -0.887412 0.020948 -1.151022
v -0.887412 0.020948 -1.150854
v -0.887412 0.020387 -1.150854
v -0.887412 0.020387 -1.151022
v -0.443706 0.012903 -1.656763
v -0.443706 0.028432 -1.656763
v -0.443706 0.012903 -1.390539
v -0.443706 0.028432 -1.390539
v -0.000000 -0.018157 -1.656763
v -0.000000 0.043962 -1.656763
v -0.000000 -0.018157 -1.390539
v -0.000000 0.043962 -1.390539
v -0.665559 0.012903 -1.458986
v -0.665559 0.012903 -1.588315
v -0.665559 0.028432 -1.588315
v -0.665559 0.028432 -1.458986
v -0.887412 0.020948 -1.523735
v -0.887412 0.020948 -1.523566
v -0.887412 0.020387 -1.523566
v -0.887412 0.020387 -1.523735
vn -0.2948 -0.0000 -0.9556
vn -0.0000 -0.0000 -1.0000
vn 1.0000 -0.0000 -0.0000
vn -0.0000 -0.0000 1.0000
vn -0.0698 -0.9976 -0.0000
vn -0.0350 0.9994 -0.0000
vn -0.0362 0.9993 -0.0000
vn -0.2948 -0.0000 0.9556
vn -0.0000 1.0000 -0.0000
vn -0.0000 -1.0000 -0.0000
vn -1.0000 -0.0000 -0.0000
vn -0.0362 -0.9993 -0.0000
vn -0.2802 -0.0000 -0.9600
vn -0.2802 -0.0000 0.9600
vn 0.2948 -0.0000 -0.9556
vn 0.0698 0.9976 -0.0000
vn 0.0350 -0.9994 -0.0000
vn 0.0362 -0.9993 -0.0000
vn 0.2948 -0.0000 0.9556
vn 0.0362 0.9993 -0.0000
vn 0.2802 -0.0000 -0.9600
vn 0.2802 -0.0000 0.9600
vt 0.625000 0.250000
vt 0.375000 0.250000
vt 0.625000 0.500000
vt 0.375000 0.500000
vt 0.625000 0.750000
vt 0.375000 0.750000
vt 0.625000 1.000000
vt 0.375000 1.000000
vt 0.125000 0.500000
vt 0.125000 0.750000
vt 0.875000 0.500000
vt 0.875000 0.750000
vt 0.375000 0.000000
vt 0.625000 0.000000
s 0
f 4/1/1 3/2/1 9/2/1 12/1/1
f 3/2/2 4/1/2 8/3/2 7/4/2
f 7/4/3 8/3/3 6/5/3 5/6/3
f 5/6/4 6/5/4 2/7/4 1/8/4
f 3/9/5 7/4/5 5/6/5 1/10/5
f 8/3/6 4/11/6 2/12/6 6/5/6
f 11/12/7 12/11/7 16/11/7 15/12/7
f 1/8/8 2/7/8 11/7/8 10/8/8
f 2/12/9 4/11/9 12/11/9 11/12/9
f 3/9/10 1/10/10 10/10/10 9/9/10
f 14/13/11 15/14/11 16/1/11 13/2/11
f 9/9/12 10/10/12 14/10/12 13/9/12
f 12/1/13 9/2/13 13/2/13 16/1/13
f 10/8/14 11/7/14 15/7/14 14/8/14
f 20/1/1 19/2/1 25/2/1 28/1/1
f 19/2/2 20/1/2 24/3/2 23/4/2
f 23/4/3 24/3/3 22/5/3 21/6/3
f 21/6/4 22/5/4 18/7/4 17/8/4
f 19/9/5 23/4/5 21/6/5 17/10/5
f 24/3/6 20/11/6 18/12/6 22/5/6
f 27/12/7 28/11/7 32/11/7 31/12/7
f 17/8/8 18/7/8 27/7/8 26/8/8
f 18/12/9 20/11/9 28/11/9 27/12/9
f 19/9/10 17/10/10 26/10/10 25/9/10
f 30/13/11 31/14/11 32/1/11 29/2/11
f 25/9/12 26/10/12 30/10/12 29/9/12
f 28/1/13 25/2/13 29/2/13 32/1/13
f 26/8/14 27/7/14 31/7/14 30/8/14
f 36/1/1 35/2/1 41/2/1 44/1/1
f 35/2/2 36/1/2 40/3/2 39/4/2
f 39/4/3 40/3/3 38/5/3 37/6/3
f 37/6/4 38/5/4 34/7/4 33/8/4
f 35/9/5 39/4/5 37/6/5 33/10/5
f 40/3/6 36/11/6 34/12/6 38/5/6
f 43/12/7 44/11/7 48/11/7 47/12/7
f 33/8/8 34/7/8 43/7/8 42/8/8
f 34/12/9 36/11/9 44/11/9 43/12/9
f 35/9/10 33/10/10 42/10/10 41/9/10
f 46/13/11 47/14/11 48/1/11 45/2/11
f 41/9/12 42/10/12 46/10/12 45/9/12
f 44/1/13 41/2/13 45/2/13 48/1/13
f 42/8/14 43/7/14 47/7/14 46/8/14
f 52/1/1 51/2/1 57/2/1 60/1/1
f 51/2/2 52/1/2 56/3/2 55/4/2
f 55/4/3 56/3/3 54/5/3 53/6/3
f 53/6/4 54/5/4 50/7/4 49/8/4
f 51/9/5 55/4/5 53/6/5 49/10/5
f 56/3/6 52/11/6 50/12/6 54/5/6
f 59/12/7 60/11/7 64/11/7 63/12/7
f 49/8/8 50/7/8 59/7/8 58/8/8
f 50/12/9 52/11/9 60/11/9 59/12/9
f 51/9/10 49/10/10 58/10/10 57/9/10
f 62/13/11 63/14/11 64/1/11 61/2/11
f 57/9/12 58/10/12 62/10/12 61/9/12
f 60/1/13 57/2/13 61/2/13 64/1/13
f 58/8/14 59/7/14 63/7/14 62/8/14
f 68/1/1 67/2/1 73/2/1 76/1/1
f 67/2/2 68/1/2 72/3/2 71/4/2
f 71/4/3 72/3/3 70/5/3 69/6/3
f 69/6/4 70/5/4 66/7/4 65/8/4
f 67/9/5 71/4/5 69/6/5 65/10/5
f 72/3/6 68/11/6 66/12/6 70/5/6
f 75/12/7 76/11/7 80/11/7 79/12/7
f 65/8/8 66/7/8 75/7/8 74/8/8
f 66/12/9 68/11/9 76/11/9 75/12/9
f 67/9/10 65/10/10 74/10/10 73/9/10
f 78/13/11 79/14/11 80/1/11 77/2/11
f 73/9/12 74/10/12 78/10/12 77/9/12
f 76/1/13 73/2/13 77/2/13 80/1/13
f 74/8/14 75/7/14 79/7/14 78/8/14
f 84/1/1 83/2/1 89/2/1 92/1/1
f 83/2/2 84/1/2 88/3/2 87/4/2
f 87/4/3 88/3/3 86/5/3 85/6/3
f 85/6/4 86/5/4 82/7/4 81/8/4
f 83/9/5 87/4/5 85/6/5 81/10/5
f 88/3/6 84/11/6 82/12/6 86/5/6
f 91/12/7 92/11/7 96/11/7 95/12/7
f 81/8/8 82/7/8 91/7/8 90/8/8
f 82/12/9 84/11/9 92/11/9 91/12/9
f 83/9/10 81/10/10 90/10/10 89/9/10
f 94/13/11 95/14/11 96/1/11 93/2/11
f 89/9/12 90/10/12 94/10/12 93/9/12
f 92/1/13 89/2/13 93/2/13 96/1/13
f 90/8/14 91/7/14 95/7/14 94/8/14
f 100/1/1 99/2/1 105/2/1 108/1/1
f 99/2/2 100/1/2 104/3/2 103/4/2
f 103/4/3 104/3/3 102/5/3 101/6/3
f 101/6/4 102/5/4 98/7/4 97/8/4
f 99/9/5 103/4/5 101/6/5 97/10/5
f 104/3/6 100/11/6 98/12/6 102/5/6
f 107/12/7 108/11/7 112/11/7 111/12/7
f 97/8/8 98/7/8 107/7/8 106/8/8
f 98/12/9 100/11/9 108/11/9 107/12/9
f 99/9/10 97/10/10 106/10/10 105/9/10
f 110/13/11 111/14/11 112/1/11 109/2/11
f 105/9/12 106/10/12 110/10/12 109/9/12
f 108/1/13 105/2/13 109/2/13 112/1/13
f 106/8/14 107/7/14 111/7/14 110/8/14
f 116/1/1 115/2/1 121/2/1 124/1/1
f 115/2/2 116/1/2 120/3/2 119/4/2
f 119/4/3 120/3/3 118/5/3 117/6/3
f 117/6/4 118/5/4 114/7/4 113/8/4
f 115/9/5 119/4/5 117/6/5 113/10/5
f 120/3/6 116/11/6 114/12/6 118/5/6
f 123/12/7 124/11/7 128/11/7 127/12/7
f 113/8/8 114/7/8 123/7/8 122/8/8
f 114/12/9 116/11/9 124/11/9 123/12/9
f 115/9/10 113/10/10 122/10/10 121/9/10
f 126/13/11 127/14/11 128/1/11 125/2/11
f 121/9/12 122/10/12 126/10/12 125/9/12
f 124/1/13 121/2/13 125/2/13 128/1/13
f 122/8/14 123/7/14 127/7/14 126/8/14
f 132/1/15 131/2/15 137/2/15 140/1/15
f 131/2/2 132/1/2 136/3/2 135/4/2
f 135/4/11 136/3/11 134/5/11 133/6/11
f 133/6/4 134/5/4 130/7/4 129/8/4
f 131/9/16 135/4/16 133/6/16 129/10/16
f 136/3/17 132/11/17 130/12/17 134/5/17
f 139/12/18 140/11/18 144/11/18 143/12/18
f 129/8/19 130/7/19 139/7/19 138/8/19
f 130/12/10 132/11/10 140/11/10 139/12/10
f 131/9/9 129/10/9 138/10/9 137/9/9
f 142/13/3 143/14/3 144/1/3 141/2/3
f 137/9/20 138/10/20 142/10/20 141/9/20
f 140/1/21 137/2/21 141/2/21 144/1/21
f 138/8/22 139/7/22 143/7/22 142/8/22
f 148/1/15 147/2/15 153/2/15 156/1/15
f 147/2/2 148/1/2 152/3/2 151/4/2
f 151/4/11 152/3/11 150/5/11 149/6/11
f 149/6/4 150/5/4 146/7/4 145/8/4
f 147/9/16 151/4/16 149/6/16 145/10/16
f 152/3/17 148/11/17 146/12/17 150/5/17
f 155/12/18 156/11/18 160/11/18 159/12/18
f 145/8/19 146/7/19 155/7/19 154/8/19
f 146/12/10 148/11/10 156/11/10 155/12/10
f 147/9/9 145/10/9 154/10/9 153/9/9
f 158/13/3 159/14/3 160/1/3 157/2/3
f 153/9/20 154/10/20 158/10/20 157/9/20
f 156/1/21 153/2/21 157/2/21 160/1/21
f 154/8/22 155/7/22 159/7/22 158/8/22
f 164/1/15 163/2/15 169/2/15 172/1/15
f 163/2/2 164/1/2 168/3/2 167/4/2
f 167/4/11 168/3/11 166/5/11 165/6/11
f 165/6/4 166/5/4 162/7/4 161/8/4
f 163/9/16 167/4/16 165/6/16 161/10/16
f 168/3/17 164/11/17 162/12/17 166/5/17
f 171/12/18 172/11/18 176/11/18 175/12/18
f 161/8/19 162/7/19 171/7/19 170/8/19
f 162/12/10 164/11/10 172/11/10 171/12/10
f 163/9/9 161/10/9 170/10/9 169/9/9
f 174/13/3 175/14/3 176/1/3 173/2/3
f 169/9/20 170/10/20 174/10/20 173/9/20
f 172/1/21 169/2/21 173/2/21 176/1/21
f 170/8/22 171/7/22 175/7/22 174/8/22
f 180/1/15 179/2/15 185/2/15 188/1/15
f 179/2/2 180/1/2 184/3/2 183/4/2
f 183/4/11 184/3/11 182/5/11 181/6/11
f 181/6/4 182/5/4 178/7/4 177/8/4
f 179/9/16 183/4/16 181/6/16 177/10/16
f 184/3/17 180/11/17 178/12/17 182/5/17
f 187/12/18 188/11/18 192/11/18 191/12/18
f 177/8/19 178/7/19 187/7/19 186/8/19
f 178/12/10 180/11/10 188/11/10 187/12/10
f 179/9/9 177/10/9 186/10/9 185/9/9
f 190/13/3 191/14/3 192/1/3 189/2/3
f 185/9/20 186/10/20 190/10/20 189/9/20
f 188/1/21 185/2/21 189/2/21 192/1/21
f 186/8/22 187/7/22 191/7/22 190/8/22
f 196/1/15 195/2/15 201/2/15 204/1/15
f 195/2/2 196/1/2 200/3/2 199/4/2
f 199/4/11 200/3/11 198/5/11 197/6/11
f 197/6/4 198/5/4 194/7/4 193/8/4
f 195/9/16 199/4/16 197/6/16 193/10/16
f 200/3/17 196/11/17 194/12/17 198/5/17
f 203/12/18 204/11/18 208/11/18 207/12/18
f 193/8/19 194/7/19 203/7/19 202/8/19
f 194/12/10 196/11/10 204/11/10 203/12/10
f 195/9/9 193/10/9 202/10/9 201/9/9
f 206/13/3 207/14/3 208/1/3 205/2/3
f 201/9/20 202/10/20 206/10/20 205/9/20
f 204/1/21 201/2/21 205/2/21 208/1/21
f 202/8/22 203/7/22 207/7/22 206/8/22
f 212/1/15 211/2/15 217/2/15 220/1/15
f 211/2/2 212/1/2 216/3/2 215/4/2
f 215/4/11 216/3/11 214/5/11 213/6/11
f 213/6/4 214/5/4 210/7/4 209/8/4
f 211/9/16 215/4/16 213/6/16 209/10/16
f 216/3/17 212/11/17 210/12/17 214/5/17
f 219/12/18 220/11/18 224/11/18 223/12/18
f 209/8/19 210/7/19 219/7/19 218/8/19
f 210/12/10 212/11/10 220/11/10 219/12/10
f 211/9/9 209/10/9 218/10/9 217/9/9
f 222/13/3 223/14/3 224/1/3 221/2/3
f 217/9/20 218/10/20 222/10/20 221/9/20
f 220/1/21 217/2/21 221/2/21 224/1/21
f 218/8/22 219/7/22 223/7/22 222/8/22
f 228/1/15 227/2/15 233/2/15 236/1/15
f 227/2/2 228/1/2 232/3/2 231/4/2
f 231/4/11 232/3/11 230/5/11 229/6/11
f 229/6/4 230/5/4 226/7/4 225/8/4
f 227/9/16 231/4/16 229/6/16 225/10/16
f 232/3/17 228/11/17 226/12/17 230/5/17
f 235/12/18 236/11/18 240/11/18 239/12/18
f 225/8/19 226/7/19 235/7/19 234/8/19
f 226/12/10 228/11/10 236/11/10 235/12/10
f 227/9/9 225/10/9 234/10/9 233/9/9
f 238/13/3 239/14/3 240/1/3 237/2/3
f 233/9/20 234/10/20 238/10/20 237/9/20
f 236/1/21 233/2/21 237/2/21 240/1/21
f 234/8/22 235/7/22 239/7/22 238/8/22
f 244/1/15 243/2/15 249/2/15 252/1/15
f 243/2/2 244/1/2 248/3/2 247/4/2
f 247/4/11 248/3/11 246/5/11 245/6/11
f 245/6/4 246/5/4 242/7/4 241/8/4
f 243/9/16 247/4/16 245/6/16 241/10/16
f 248/3/17 244/11/17 242/12/17 246/5/17
f 251/12/18 252/11/18 256/11/18 255/12/18
f 241/8/19 242/7/19 251/7/19 250/8/19
f 242/12/10 244/11/10 252/11/10 251/12/10
f 243/9/9 241/10/9 250/10/9 249/9/9
f 254/13/3 255/14/3 256/1/3 253/2/3
f 249/9/20 250/10/20 254/10/20 253/9/20
f 252/1/21 249/2/21 253/2/21 256/1/21
f 250/8/22 251/7/22 255/7/22 254/8/22
f 260/1/15 259/2/15 265/2/15 268/1/15
f 259/2/2 260/1/2 264/3/2 263/4/2
f 263/4/11 264/3/11 262/5/11 261/6/11
f 261/6/4 262/5/4 258/7/4 257/8/4
f 259/9/16 263/4/16 261/6/16 257/10/16
f 264/3/17 260/11/17 258/12/17 262/5/17
f 267/12/18 268/11/18 272/11/18 271/12/18
f 257/8/19 258/7/19 267/7/19 266/8/19
f 258/12/10 260/11/10 268/11/10 267/12/10
f 259/9/9 257/10/9 266/10/9 265/9/9
f 270/13/3 271/14/3 272/1/3 269/2/3
f 265/9/20 266/10/20 270/10/20 269/9/20
f 268/1/21 265/2/21 269/2/21 272/1/21
f 266/8/22 267/7/22 271/7/22 270/8/22
