# Blender 4.0.1
# www.blender.org
mtllib Struc_Projo.mtl
o Cube.003
v -1.200000 -1.400000 0.200000
v -1.200000 1.325393 0.200000
v -1.200000 -1.400000 -2.200000
v 1.200000 -1.400000 0.200000
v 1.200000 1.325393 0.200000
v 1.200000 -1.400000 -2.200000
v -1.200000 1.325393 -1.187620
v -1.200000 0.175755 -2.200000
v 1.200000 0.175755 -2.200000
v 1.200000 1.325393 -1.187620
v 0.765600 0.853400 1.480907
v 0.765600 0.853400 1.519093
v -0.645600 0.853401 1.480907
v -0.645600 0.853401 1.519093
v 0.765600 2.264601 2.480907
v 0.765600 2.264601 2.519092
v -0.645600 2.264601 2.480907
v -0.645600 2.264601 2.519092
v 0.765599 -2.296599 2.480908
v 0.765599 -2.296599 2.519093
v -0.645600 -2.296599 2.480908
v -0.645600 -2.296599 2.519093
v 0.765600 -0.885399 1.480907
v 0.765600 -0.885399 1.519093
v -0.645600 -0.885399 1.480907
v -0.645600 -0.885399 1.519093
v 0.933400 -0.705600 1.480907
v 0.933400 -0.705600 1.519093
v 0.933400 0.705600 1.480907
v 0.933400 0.705600 1.519093
v 2.344600 -0.705600 2.480907
v 2.344600 -0.705600 2.519093
v 2.344600 0.705600 2.480908
v 2.344600 0.705600 2.519093
v -2.216600 -0.705600 2.480908
v -2.216600 -0.705600 2.519093
v -2.216600 0.705600 2.480908
v -2.216600 0.705600 2.519093
v -0.805400 -0.705600 1.480907
v -0.805400 -0.705600 1.519093
v -0.805400 0.705600 1.480908
v -0.805400 0.705600 1.519093
v 0.000000 1.100000 -1.240000
v -0.000000 0.992968 1.740000
v 0.214599 1.078864 -1.240000
v 0.193718 0.973888 1.740000
v 0.420952 1.016267 -1.240000
v 0.379992 0.917382 1.740000
v 0.611127 0.914617 -1.240000
v 0.551663 0.825623 1.740000
v 0.777817 0.777817 -1.240000
v 0.702134 0.702134 1.740000
v 0.914617 0.611127 -1.240000
v 0.825622 0.551663 1.740000
v 1.016267 0.420952 -1.240000
v 0.917383 0.379992 1.740000
v 1.078864 0.214600 -1.240000
v 0.973888 0.193718 1.740000
v 1.100000 0.000000 -1.240000
v 0.992968 0.000000 1.740000
v 1.078864 -0.214600 -1.240000
v 0.973888 -0.193718 1.740000
v 1.016267 -0.420952 -1.240000
v 0.917383 -0.379992 1.740000
v 0.914617 -0.611127 -1.240000
v 0.825622 -0.551663 1.740000
v 0.777817 -0.777818 -1.240000
v 0.702134 -0.702135 1.740000
v 0.611127 -0.914617 -1.240000
v 0.551663 -0.825623 1.740000
v 0.420952 -1.016267 -1.240000
v 0.379992 -0.917383 1.740000
v 0.214599 -1.078864 -1.240000
v 0.193718 -0.973888 1.740000
v 0.000000 -1.100000 -1.240000
v -0.000000 -0.992968 1.740000
v -0.214599 -1.078864 -1.240000
v -0.193718 -0.973888 1.740000
v -0.420952 -1.016267 -1.240000
v -0.379992 -0.917383 1.740000
v -0.611127 -0.914617 -1.240000
v -0.551663 -0.825623 1.740000
v -0.777817 -0.777818 -1.240000
v -0.702134 -0.702135 1.740000
v -0.914617 -0.611127 -1.240000
v -0.825623 -0.551664 1.740000
v -1.016268 -0.420952 -1.240000
v -0.917383 -0.379992 1.740000
v -1.078864 -0.214600 -1.240000
v -0.973888 -0.193719 1.740000
v -1.100000 0.000000 -1.240000
v -0.992968 -0.000000 1.740000
v -1.078864 0.214600 -1.240000
v -0.973888 0.193718 1.740000
v -1.016267 0.420952 -1.240000
v -0.917383 0.379992 1.740000
v -0.914617 0.611127 -1.240000
v -0.825622 0.551663 1.740000
v -0.777817 0.777817 -1.240000
v -0.702134 0.702134 1.740000
v -0.611127 0.914617 -1.240000
v -0.551663 0.825623 1.740000
v -0.420952 1.016267 -1.240000
v -0.379992 0.917382 1.740000
v -0.214599 1.078864 -1.240000
v -0.193718 0.973888 1.740000
v 0.214599 1.078864 1.840000
v -0.000000 1.099999 1.840000
v 0.420952 1.016267 1.840000
v 0.611127 0.914617 1.840000
v 0.777817 0.777817 1.840000
v 0.914617 0.611127 1.840000
v 1.016267 0.420952 1.840000
v 1.078864 0.214599 1.840000
v 1.100000 0.000000 1.840000
v 1.078864 -0.214600 1.840000
v 1.016267 -0.420952 1.840000
v 0.914617 -0.611127 1.840000
v 0.777817 -0.777818 1.840000
v 0.611127 -0.914617 1.840000
v 0.420952 -1.016268 1.840000
v 0.214599 -1.078864 1.840000
v 0.000000 -1.100000 1.840000
v -0.214599 -1.078864 1.840000
v -0.420952 -1.016268 1.840000
v -0.611127 -0.914617 1.840000
v -0.777817 -0.777818 1.840000
v -0.914617 -0.611127 1.840000
v -1.016268 -0.420952 1.840000
v -1.078864 -0.214600 1.840000
v -1.100000 0.000000 1.840000
v -1.078864 0.214599 1.840000
v -1.016268 0.420952 1.840000
v -0.914617 0.611127 1.840000
v -0.777817 0.777817 1.840000
v -0.611127 0.914617 1.840000
v -0.420952 1.016267 1.840000
v -0.214599 1.078864 1.840000
vn -0.0000 -0.0000 -1.0000
vn 1.0000 -0.0000 -0.0000
vn -0.0000 -0.0000 1.0000
vn -0.0000 -1.0000 -0.0000
vn -1.0000 -0.0000 -0.0000
vn -0.0000 0.6609 -0.7505
vn -0.0000 1.0000 -0.0000
vn -0.0000 0.5782 -0.8159
vn -0.0000 -0.5782 0.8159
vn -0.0000 -0.5782 -0.8159
vn -0.0000 0.5782 0.8159
vn 0.5782 -0.0000 -0.8159
vn -0.5782 -0.0000 0.8159
vn -0.5782 -0.0000 -0.8159
vn 0.5782 -0.0000 0.8159
vn 0.0980 0.9952 -0.0000
vn 0.2903 0.9569 -0.0000
vn 0.4714 0.8819 -0.0000
vn 0.6344 0.7730 -0.0000
vn 0.7730 0.6344 -0.0000
vn 0.8819 0.4714 -0.0000
vn 0.9569 0.2903 -0.0000
vn 0.9952 0.0980 -0.0000
vn 0.9952 -0.0980 -0.0000
vn 0.9569 -0.2903 -0.0000
vn 0.8819 -0.4714 -0.0000
vn 0.7730 -0.6344 -0.0000
vn 0.6344 -0.7730 -0.0000
vn 0.4714 -0.8819 -0.0000
vn 0.2903 -0.9569 -0.0000
vn 0.0980 -0.9952 -0.0000
vn -0.0980 -0.9952 -0.0000
vn -0.2903 -0.9569 -0.0000
vn -0.4714 -0.8819 -0.0000
vn -0.6344 -0.7730 -0.0000
vn -0.7730 -0.6344 -0.0000
vn -0.8819 -0.4714 -0.0000
vn -0.9569 -0.2903 -0.0000
vn -0.9952 -0.0980 -0.0000
vn -0.9952 0.0980 -0.0000
vn -0.9569 0.2903 -0.0000
vn -0.8819 0.4714 -0.0000
vn -0.7730 0.6344 -0.0000
vn -0.6344 0.7730 -0.0000
vn -0.4714 0.8819 -0.0000
vn -0.2903 0.9569 -0.0000
vn -0.0980 0.9952 -0.0000
vn -0.0671 -0.6812 0.7291
vn -0.1987 -0.6550 0.7291
vn -0.3226 -0.6036 0.7291
vn -0.4342 -0.5291 0.7291
vn -0.5291 -0.4342 0.7291
vn -0.6036 -0.3226 0.7291
vn -0.6550 -0.1987 0.7291
vn -0.6812 -0.0671 0.7291
vn -0.6812 0.0671 0.7291
vn -0.6550 0.1987 0.7291
vn -0.6036 0.3226 0.7291
vn -0.5291 0.4342 0.7291
vn -0.4342 0.5291 0.7291
vn -0.3226 0.6036 0.7291
vn -0.1987 0.6550 0.7291
vn -0.0671 0.6812 0.7291
vn 0.0671 0.6812 0.7291
vn 0.1987 0.6550 0.7291
vn 0.3226 0.6036 0.7291
vn 0.4342 0.5291 0.7291
vn 0.5291 0.4342 0.7291
vn 0.6036 0.3226 0.7291
vn 0.6550 0.1987 0.7291
vn 0.6812 0.0671 0.7291
vn 0.6812 -0.0671 0.7291
vn 0.6550 -0.1987 0.7291
vn 0.6036 -0.3226 0.7291
vn 0.5291 -0.4342 0.7291
vn 0.4342 -0.5291 0.7291
vn 0.3226 -0.6036 0.7291
vn 0.1987 -0.6550 0.7291
vn 0.0671 -0.6812 0.7291
vt 0.375000 0.250000
vt 0.519544 0.250000
vt 0.519544 0.500000
vt 0.375000 0.500000
vt 0.625000 0.605456
vt 0.625000 0.750000
vt 0.375000 0.750000
vt 0.625000 1.000000
vt 0.375000 1.000000
vt 0.125000 0.500000
vt 0.125000 0.750000
vt 0.375000 0.000000
vt 0.625000 0.000000
vt 0.625000 0.144544
vt 0.625000 0.250000
vt 0.625000 0.500000
vt 0.875000 0.605456
vt 0.875000 0.750000
vt 0.875000 0.500000
vt 1.000000 0.500000
vt 1.000000 1.000000
vt 0.968750 1.000000
vt 0.968750 0.500000
vt 0.937500 1.000000
vt 0.937500 0.500000
vt 0.906250 1.000000
vt 0.906250 0.500000
vt 0.875000 1.000000
vt 0.843750 1.000000
vt 0.843750 0.500000
vt 0.812500 1.000000
vt 0.812500 0.500000
vt 0.781250 1.000000
vt 0.781250 0.500000
vt 0.750000 1.000000
vt 0.750000 0.500000
vt 0.718750 1.000000
vt 0.718750 0.500000
vt 0.687500 1.000000
vt 0.687500 0.500000
vt 0.656250 1.000000
vt 0.656250 0.500000
vt 0.593750 1.000000
vt 0.593750 0.500000
vt 0.562500 1.000000
vt 0.562500 0.500000
vt 0.531250 1.000000
vt 0.531250 0.500000
vt 0.500000 1.000000
vt 0.500000 0.500000
vt 0.468750 1.000000
vt 0.468750 0.500000
vt 0.437500 1.000000
vt 0.437500 0.500000
vt 0.406250 1.000000
vt 0.406250 0.500000
vt 0.343750 1.000000
vt 0.343750 0.500000
vt 0.312500 1.000000
vt 0.312500 0.500000
vt 0.281250 1.000000
vt 0.281250 0.500000
vt 0.250000 1.000000
vt 0.250000 0.500000
vt 0.218750 1.000000
vt 0.218750 0.500000
vt 0.187500 1.000000
vt 0.187500 0.500000
vt 0.156250 1.000000
vt 0.156250 0.500000
vt 0.125000 1.000000
vt 0.093750 1.000000
vt 0.093750 0.500000
vt 0.062500 1.000000
vt 0.062500 0.500000
vt 0.031250 1.000000
vt 0.031250 0.500000
vt 0.000000 1.000000
vt 0.000000 0.500000
vt 0.750000 0.490000
vt 0.796822 0.485388
vt 0.841844 0.471731
vt 0.883337 0.449553
vt 0.919706 0.419706
vt 0.949553 0.383337
vt 0.971731 0.341844
vt 0.985388 0.296822
vt 0.990000 0.250000
vt 0.985388 0.203178
vt 0.971731 0.158156
vt 0.949553 0.116663
vt 0.919706 0.080294
vt 0.883337 0.050447
vt 0.841844 0.028269
vt 0.796822 0.014612
vt 0.750000 0.010000
vt 0.703178 0.014612
vt 0.658156 0.028269
vt 0.616663 0.050447
vt 0.580294 0.080294
vt 0.550447 0.116663
vt 0.528269 0.158156
vt 0.514612 0.203178
vt 0.510000 0.250000
vt 0.514612 0.296822
vt 0.528269 0.341844
vt 0.550447 0.383337
vt 0.580294 0.419706
vt 0.616663 0.449553
vt 0.658156 0.471731
vt 0.703178 0.485388
vt 0.250000 0.466648
vt 0.292266 0.462485
vt 0.296822 0.485388
vt 0.250000 0.490000
vt 0.332907 0.450156
vt 0.341844 0.471731
vt 0.370363 0.430136
vt 0.383337 0.449553
vt 0.403193 0.403193
vt 0.419706 0.419706
vt 0.430136 0.370363
vt 0.449553 0.383337
vt 0.450156 0.332907
vt 0.471731 0.341844
vt 0.462485 0.292266
vt 0.485388 0.296822
vt 0.466648 0.250000
vt 0.490000 0.250000
vt 0.462485 0.207734
vt 0.485388 0.203178
vt 0.450156 0.167093
vt 0.471731 0.158156
vt 0.430136 0.129637
vt 0.449553 0.116663
vt 0.403193 0.096807
vt 0.419706 0.080294
vt 0.370363 0.069864
vt 0.383337 0.050447
vt 0.332907 0.049844
vt 0.341844 0.028269
vt 0.292266 0.037515
vt 0.296822 0.014612
vt 0.250000 0.033352
vt 0.250000 0.010000
vt 0.207734 0.037515
vt 0.203178 0.014612
vt 0.167093 0.049844
vt 0.158156 0.028269
vt 0.129637 0.069864
vt 0.116663 0.050447
vt 0.096807 0.096807
vt 0.080294 0.080294
vt 0.069864 0.129637
vt 0.050447 0.116663
vt 0.049844 0.167093
vt 0.028269 0.158156
vt 0.037515 0.207734
vt 0.014612 0.203178
vt 0.033352 0.250000
vt 0.010000 0.250000
vt 0.037515 0.292266
vt 0.014612 0.296822
vt 0.049844 0.332907
vt 0.028269 0.341844
vt 0.069864 0.370363
vt 0.050447 0.383337
vt 0.096807 0.403193
vt 0.080294 0.419706
vt 0.129637 0.430136
vt 0.116663 0.449553
vt 0.167093 0.450156
vt 0.158156 0.471731
vt 0.207734 0.462485
vt 0.203178 0.485388
s 0
f 3/1/1 8/2/1 9/3/1 6/4/1
f 6/4/2 9/3/2 10/5/2 5/6/2 4/7/2
f 4/7/3 5/6/3 2/8/3 1/9/3
f 3/10/4 6/4/4 4/7/4 1/11/4
f 1/12/5 2/13/5 7/14/5 8/2/5 3/1/5
f 7/15/6 10/16/6 9/3/6 8/2/6
f 10/5/7 7/17/7 2/18/7 5/6/7
f 11/12/4 12/13/4 14/15/4 13/1/4
f 13/1/5 14/15/5 18/16/5 17/4/5
f 17/4/7 18/16/7 16/6/7 15/7/7
f 15/7/2 16/6/2 12/8/2 11/9/2
f 13/10/8 17/4/8 15/7/8 11/11/8
f 18/16/9 14/19/9 12/18/9 16/6/9
f 19/12/4 20/13/4 22/15/4 21/1/4
f 21/1/5 22/15/5 26/16/5 25/4/5
f 25/4/7 26/16/7 24/6/7 23/7/7
f 23/7/2 24/6/2 20/8/2 19/9/2
f 21/10/10 25/4/10 23/7/10 19/11/10
f 26/16/11 22/19/11 20/18/11 24/6/11
f 27/12/5 28/13/5 30/15/5 29/1/5
f 29/1/7 30/15/7 34/16/7 33/4/7
f 33/4/2 34/16/2 32/6/2 31/7/2
f 31/7/4 32/6/4 28/8/4 27/9/4
f 29/10/12 33/4/12 31/7/12 27/11/12
f 34/16/13 30/19/13 28/18/13 32/6/13
f 35/12/5 36/13/5 38/15/5 37/1/5
f 37/1/7 38/15/7 42/16/7 41/4/7
f 41/4/2 42/16/2 40/6/2 39/7/2
f 39/7/4 40/6/4 36/8/4 35/9/4
f 37/10/14 41/4/14 39/7/14 35/11/14
f 42/16/15 38/19/15 36/18/15 40/6/15
f 43/20/16 108/21/16 107/22/16 45/23/16
f 45/23/17 107/22/17 109/24/17 47/25/17
f 47/25/18 109/24/18 110/26/18 49/27/18
f 49/27/19 110/26/19 111/28/19 51/19/19
f 51/19/20 111/28/20 112/29/20 53/30/20
f 53/30/21 112/29/21 113/31/21 55/32/21
f 55/32/22 113/31/22 114/33/22 57/34/22
f 57/34/23 114/33/23 115/35/23 59/36/23
f 59/36/24 115/35/24 116/37/24 61/38/24
f 61/38/25 116/37/25 117/39/25 63/40/25
f 63/40/26 117/39/26 118/41/26 65/42/26
f 65/42/27 118/41/27 119/8/27 67/16/27
f 67/16/28 119/8/28 120/43/28 69/44/28
f 69/44/29 120/43/29 121/45/29 71/46/29
f 71/46/30 121/45/30 122/47/30 73/48/30
f 73/48/31 122/47/31 123/49/31 75/50/31
f 75/50/32 123/49/32 124/51/32 77/52/32
f 77/52/33 124/51/33 125/53/33 79/54/33
f 79/54/34 125/53/34 126/55/34 81/56/34
f 81/56/35 126/55/35 127/9/35 83/4/35
f 83/4/36 127/9/36 128/57/36 85/58/36
f 85/58/37 128/57/37 129/59/37 87/60/37
f 87/60/38 129/59/38 130/61/38 89/62/38
f 89/62/39 130/61/39 131/63/39 91/64/39
f 91/64/40 131/63/40 132/65/40 93/66/40
f 93/66/41 132/65/41 133/67/41 95/68/41
f 95/68/42 133/67/42 134/69/42 97/70/42
f 97/70/43 134/69/43 135/71/43 99/10/43
f 99/10/44 135/71/44 136/72/44 101/73/44
f 101/73/45 136/72/45 137/74/45 103/75/45
f 103/75/46 137/74/46 138/76/46 105/77/46
f 105/77/47 138/76/47 108/78/47 43/79/47
f 43/80/1 45/81/1 47/82/1 49/83/1 51/84/1 53/85/1 55/86/1 57/87/1 59/88/1 61/89/1 63/90/1 65/91/1 67/92/1 69/93/1 71/94/1 73/95/1 75/96/1 77/97/1 79/98/1 81/99/1 83/100/1 85/101/1 87/102/1 89/103/1 91/104/1 93/105/1 95/106/1 97/107/1 99/108/1 101/109/1 103/110/1 105/111/1
f 44/112/48 46/113/48 107/114/48 108/115/48
f 46/113/49 48/116/49 109/117/49 107/114/49
f 48/116/50 50/118/50 110/119/50 109/117/50
f 50/118/51 52/120/51 111/121/51 110/119/51
f 52/120/52 54/122/52 112/123/52 111/121/52
f 54/122/53 56/124/53 113/125/53 112/123/53
f 56/124/54 58/126/54 114/127/54 113/125/54
f 58/126/55 60/128/55 115/129/55 114/127/55
f 60/128/56 62/130/56 116/131/56 115/129/56
f 62/130/57 64/132/57 117/133/57 116/131/57
f 64/132/58 66/134/58 118/135/58 117/133/58
f 66/134/59 68/136/59 119/137/59 118/135/59
f 68/136/60 70/138/60 120/139/60 119/137/60
f 70/138/61 72/140/61 121/141/61 120/139/61
f 72/140/62 74/142/62 122/143/62 121/141/62
f 74/142/63 76/144/63 123/145/63 122/143/63
f 76/144/64 78/146/64 124/147/64 123/145/64
f 78/146/65 80/148/65 125/149/65 124/147/65
f 80/148/66 82/150/66 126/151/66 125/149/66
f 82/150/67 84/152/67 127/153/67 126/151/67
f 84/152/68 86/154/68 128/155/68 127/153/68
f 86/154/69 88/156/69 129/157/69 128/155/69
f 88/156/70 90/158/70 130/159/70 129/157/70
f 90/158/71 92/160/71 131/161/71 130/159/71
f 92/160/72 94/162/72 132/163/72 131/161/72
f 94/162/73 96/164/73 133/165/73 132/163/73
f 96/164/74 98/166/74 134/167/74 133/165/74
f 98/166/75 100/168/75 135/169/75 134/167/75
f 100/168/76 102/170/76 136/171/76 135/169/76
f 102/170/77 104/172/77 137/173/77 136/171/77
f 104/172/78 106/174/78 138/175/78 137/173/78
f 106/174/79 44/112/79 108/115/79 138/175/79
