# Blender 4.0.1
# www.blender.org
mtllib Châsssi_exemple.mtl
o Chasis
v -70.256592 3.847171 -16.275467
v -70.256592 3.847170 -18.564260
v -70.256592 4.080715 -18.564260
v -67.556595 3.847171 -16.275467
v -67.556595 3.847170 -18.564260
v -67.556595 4.080715 -18.564260
v -70.256592 4.042943 -16.275467
v -70.256592 4.080715 -16.315775
v -70.256592 4.054657 -16.276121
v -70.256592 4.057613 -16.276621
v -70.256592 4.060503 -16.277447
v -70.256592 4.063296 -16.278591
v -70.256592 4.065963 -16.280043
v -70.256592 4.068473 -16.281780
v -70.256592 4.070798 -16.283791
v -70.256592 4.072915 -16.286049
v -70.256592 4.074798 -16.288530
v -70.256592 4.076427 -16.291208
v -70.256592 4.077786 -16.294054
v -70.256592 4.078858 -16.297035
v -70.256592 4.079633 -16.300121
v -70.256592 4.080101 -16.303274
v -67.556595 4.080715 -16.315775
v -67.556595 4.042943 -16.275467
v -67.556595 4.080101 -16.303274
v -67.556595 4.079633 -16.300121
v -67.556595 4.078858 -16.297035
v -67.556595 4.077786 -16.294054
v -67.556595 4.076427 -16.291208
v -67.556595 4.074798 -16.288530
v -67.556595 4.072915 -16.286049
v -67.556595 4.070798 -16.283791
v -67.556595 4.068473 -16.281780
v -67.556595 4.065963 -16.280043
v -67.556595 4.063296 -16.278591
v -67.556595 4.060503 -16.277447
v -67.556595 4.057613 -16.276621
v -67.556595 4.054657 -16.276121
v -70.256592 3.513942 -18.919863
v -70.256592 3.513943 -15.919863
v -70.256592 4.413943 -18.919863
v -67.556595 4.413943 -18.919863
v -67.556595 3.513942 -18.919863
v -67.556595 3.513943 -15.919863
v -67.556595 4.411958 -16.266052
v -67.556595 4.413943 -16.306463
v -70.256592 4.413943 -16.306463
v -70.256592 4.411958 -16.266052
v -67.556595 4.406026 -16.226084
v -70.256592 4.406026 -16.226084
v -67.556595 4.396212 -16.186996
v -70.256592 4.396212 -16.186996
v -67.556595 4.382623 -16.149220
v -70.256592 4.382623 -16.149220
v -67.556595 4.365407 -16.113163
v -70.256592 4.365407 -16.113163
v -67.556595 4.344754 -16.079226
v -70.256592 4.344754 -16.079226
v -67.556595 4.320890 -16.047777
v -70.256592 4.320890 -16.047777
v -67.556595 4.294077 -16.019163
v -70.256592 4.294077 -16.019163
v -67.556595 4.264608 -15.993697
v -70.256592 4.264608 -15.993697
v -67.556595 4.232805 -15.971658
v -70.256592 4.232805 -15.971658
v -67.556595 4.199019 -15.953286
v -70.256592 4.199019 -15.953286
v -67.556595 4.163618 -15.938785
v -70.256592 4.163618 -15.938785
v -67.556595 4.126989 -15.928311
v -70.256592 4.126989 -15.928311
v -67.556595 4.089537 -15.921981
v -70.256592 4.089537 -15.921981
v -67.556595 4.051669 -15.919863
v -70.256592 4.051669 -15.919863
v -69.440048 3.847170 -18.564260
v -69.440048 3.847171 -16.275467
v -69.440048 4.080715 -18.564260
v -69.440048 4.080715 -16.315775
v -69.440048 4.080101 -16.303274
v -69.440048 4.079633 -16.300121
v -69.440048 4.078858 -16.297035
v -69.440048 4.077786 -16.294054
v -69.440048 4.076427 -16.291208
v -69.440048 4.074798 -16.288530
v -69.440048 4.072915 -16.286049
v -69.440048 4.070798 -16.283791
v -69.440048 4.068473 -16.281780
v -69.440048 4.065963 -16.280043
v -69.440048 4.063296 -16.278591
v -69.440048 4.060503 -16.277447
v -69.440048 4.057613 -16.276621
v -69.440048 4.054657 -16.276121
v -69.440048 4.042943 -16.275467
v -68.200729 4.080715 -18.564260
v -68.200729 3.847170 -18.564260
v -68.200729 3.847171 -16.275467
v -68.200729 4.080101 -16.303274
v -68.200729 4.080715 -16.315775
v -68.200729 4.079633 -16.300121
v -68.200729 4.078858 -16.297035
v -68.200729 4.077786 -16.294054
v -68.200729 4.076427 -16.291208
v -68.200729 4.074798 -16.288530
v -68.200729 4.072915 -16.286049
v -68.200729 4.070798 -16.283791
v -68.200729 4.068473 -16.281780
v -68.200729 4.065963 -16.280043
v -68.200729 4.063296 -16.278591
v -68.200729 4.060503 -16.277447
v -68.200729 4.057613 -16.276621
v -68.200729 4.054657 -16.276121
v -68.200729 4.042943 -16.275467
v -68.529892 4.080715 -18.564260
v -68.529892 3.847170 -18.564260
v -68.529892 3.847171 -16.275467
v -68.529892 4.080101 -16.303274
v -68.529892 4.080715 -16.315775
v -68.529892 4.079633 -16.300121
v -68.529892 4.078858 -16.297035
v -68.529892 4.077786 -16.294054
v -68.529892 4.076427 -16.291208
v -68.529892 4.074798 -16.288530
v -68.529892 4.072915 -16.286049
v -68.529892 4.070798 -16.283791
v -68.529892 4.068473 -16.281780
v -68.529892 4.065963 -16.280043
v -68.529892 4.063296 -16.278591
v -68.529892 4.060503 -16.277447
v -68.529892 4.057613 -16.276621
v -68.529892 4.054657 -16.276121
v -68.529892 4.042943 -16.275467
v -69.135925 3.847170 -18.564260
v -69.135925 3.847171 -16.275467
v -69.135925 4.080715 -18.564260
v -69.135925 4.080715 -16.315775
v -69.135925 4.080101 -16.303274
v -69.135925 4.079633 -16.300121
v -69.135925 4.078858 -16.297035
v -69.135925 4.077786 -16.294054
v -69.135925 4.076427 -16.291208
v -69.135925 4.074798 -16.288530
v -69.135925 4.072915 -16.286049
v -69.135925 4.070798 -16.283791
v -69.135925 4.068473 -16.281780
v -69.135925 4.065963 -16.280043
v -69.135925 4.063296 -16.278591
v -69.135925 4.060503 -16.277447
v -69.135925 4.057613 -16.276621
v -69.135925 4.054657 -16.276121
v -69.135925 4.042943 -16.275467
vn -0.0000 1.0000 -0.0000
vn -0.0000 -0.0000 -1.0000
vn -0.0000 -0.7967 -0.6044
vn -0.0000 -1.0000 -0.0000
vn -0.0000 -0.4777 -0.8785
vn -0.0000 0.9988 0.0490
vn -0.0000 0.9892 0.1468
vn -0.0000 0.9699 0.2435
vn -0.0000 0.9410 0.3385
vn -0.0000 0.9024 0.4309
vn -0.0000 0.8543 0.5199
vn -0.0000 0.7966 0.6045
vn -0.0000 0.7297 0.6838
vn -0.0000 0.6538 0.7566
vn -0.0000 0.5696 0.8219
vn -0.0000 0.4777 0.8785
vn -0.0000 0.3791 0.9254
vn -0.0000 0.2749 0.9615
vn -0.0000 0.1667 0.9860
vn -0.0000 0.0558 0.9984
vn -0.0000 -0.0000 1.0000
vn -1.0000 -0.0000 -0.0000
vn 1.0000 -0.0000 -0.0000
vn -0.0000 -0.0558 -0.9984
vn -0.0000 -0.9410 -0.3385
vn -0.0000 -0.7296 -0.6839
vn -0.0000 -0.3790 -0.9254
vn -0.0000 -0.9988 -0.0491
vn -0.0000 -0.9024 -0.4308
vn -0.0000 -0.6539 -0.7566
vn -0.0000 -0.2749 -0.9615
vn -0.0000 -0.9892 -0.1468
vn -0.0000 -0.8543 -0.5198
vn -0.0000 -0.5696 -0.8219
vn -0.0000 -0.1666 -0.9860
vn -0.0000 -0.9699 -0.2435
vn -0.0000 -0.3791 -0.9254
vn -0.0000 -0.9024 -0.4309
vn -0.0000 -0.1667 -0.9860
vn -0.0000 -0.7966 -0.6044
vt 0.625000 0.500000
vt 0.875000 0.500000
vt 0.875000 0.717783
vt 0.625000 0.717783
vt 0.375000 0.250000
vt 0.625000 0.250000
vt 0.375000 0.500000
vt 0.530270 0.030515
vt 0.530793 0.030722
vt 0.125000 0.500000
vt 0.375000 0.750000
vt 0.125000 0.750000
vt 0.528339 0.719985
vt 0.527598 0.720106
vt 0.875000 0.721151
vt 0.625000 0.721151
vt 0.875000 0.724482
vt 0.625000 0.724482
vt 0.875000 0.727739
vt 0.625000 0.727739
vt 0.875000 0.730887
vt 0.625000 0.730887
vt 0.875000 0.733892
vt 0.625000 0.733892
vt 0.875000 0.736720
vt 0.625000 0.736720
vt 0.875000 0.750000
vt 0.625000 0.750000
vt 0.625000 1.000000
vt 0.591704 1.000000
vt 0.591704 0.750000
vt 0.583518 1.000000
vt 0.583518 0.750000
vt 0.574684 1.000000
vt 0.574684 0.750000
vt 0.565299 1.000000
vt 0.565299 0.750000
vt 0.555465 1.000000
vt 0.555465 0.750000
vt 0.545291 1.000000
vt 0.545291 0.750000
vt 0.534887 1.000000
vt 0.534887 0.750000
vt 0.524368 1.000000
vt 0.524368 0.750000
vt 0.375000 1.000000
vt 0.467563 0.029634
vt 0.467563 0.220366
vt 0.375000 0.000000
vt 0.532437 0.220366
vt 0.532437 0.529634
vt 0.467563 0.529634
vt 0.467563 0.720366
vt 0.532266 0.718049
vt 0.532437 0.717007
vt 0.624449 0.721151
vt 0.532437 0.032993
vt 0.532266 0.031951
vt 0.624449 0.028849
vt 0.625000 0.032217
vt 0.532136 0.718312
vt 0.622801 0.724482
vt 0.532136 0.031688
vt 0.622801 0.025518
vt 0.531921 0.718569
vt 0.620075 0.727739
vt 0.531921 0.031431
vt 0.620075 0.022261
vt 0.531623 0.718817
vt 0.616300 0.730887
vt 0.531623 0.031183
vt 0.616300 0.019113
vt 0.531246 0.719054
vt 0.611518 0.733892
vt 0.531246 0.030945
vt 0.611518 0.016108
vt 0.530793 0.719278
vt 0.605781 0.736720
vt 0.605781 0.013280
vt 0.530270 0.719484
vt 0.599152 0.739341
vt 0.599152 0.010660
vt 0.529682 0.719673
vt 0.591704 0.741725
vt 0.529682 0.030327
vt 0.591704 0.008275
vt 0.529036 0.719840
vt 0.583518 0.743847
vt 0.529036 0.030160
vt 0.583518 0.006153
vt 0.574684 0.745684
vt 0.528339 0.030015
vt 0.574684 0.004316
vt 0.565299 0.747215
vt 0.527598 0.029894
vt 0.565299 0.002785
vt 0.526822 0.720201
vt 0.555465 0.748423
vt 0.526822 0.029799
vt 0.555465 0.001577
vt 0.526019 0.720270
vt 0.545291 0.749296
vt 0.526019 0.029730
vt 0.545291 0.000704
vt 0.525198 0.720312
vt 0.534887 0.749823
vt 0.525198 0.029688
vt 0.534887 0.000176
vt 0.521944 0.720366
vt 0.521944 0.029634
vt 0.524368 0.000000
s 0
f 42/1/1 41/2/1 47/3/1 46/4/1
f 39/5/2 41/6/2 42/1/2 43/7/2
f 16/8/3 17/9/3 86/9/3 87/8/3
f 39/10/4 43/7/4 44/11/4 40/12/4
f 34/13/5 35/14/5 110/14/5 109/13/5
f 46/4/6 47/3/6 48/15/6 45/16/6
f 45/16/7 48/15/7 50/17/7 49/18/7
f 49/18/8 50/17/8 52/19/8 51/20/8
f 51/20/9 52/19/9 54/21/9 53/22/9
f 53/22/10 54/21/10 56/23/10 55/24/10
f 55/24/11 56/23/11 58/25/11 57/26/11
f 57/26/12 58/25/12 60/27/12 59/28/12
f 59/28/13 60/29/13 62/30/13 61/31/13
f 61/31/14 62/30/14 64/32/14 63/33/14
f 63/33/15 64/32/15 66/34/15 65/35/15
f 65/35/16 66/34/16 68/36/16 67/37/16
f 67/37/17 68/36/17 70/38/17 69/39/17
f 69/39/18 70/38/18 72/40/18 71/41/18
f 71/41/19 72/40/19 74/42/19 73/43/19
f 73/43/20 74/42/20 76/44/20 75/45/20
f 44/11/21 75/45/21 76/44/21 40/46/21
f 1/47/22 2/48/22 39/5/22 40/49/22
f 2/48/22 3/50/22 41/6/22 39/5/22
f 6/51/23 5/52/23 43/7/23 42/1/23
f 5/52/23 4/53/23 44/11/23 43/7/23
f 25/54/23 23/55/23 46/4/23 45/56/23
f 8/57/22 22/58/22 48/59/22 47/60/22
f 26/61/23 25/54/23 45/56/23 49/62/23
f 22/58/22 21/63/22 50/64/22 48/59/22
f 27/65/23 26/61/23 49/62/23 51/66/23
f 21/63/22 20/67/22 52/68/22 50/64/22
f 28/69/23 27/65/23 51/66/23 53/70/23
f 20/67/22 19/71/22 54/72/22 52/68/22
f 29/73/23 28/69/23 53/70/23 55/74/23
f 19/71/22 18/75/22 56/76/22 54/72/22
f 30/77/23 29/73/23 55/74/23 57/78/23
f 18/75/22 17/9/22 58/79/22 56/76/22
f 31/80/23 30/77/23 57/78/23 59/81/23
f 17/9/22 16/8/22 60/82/22 58/79/22
f 32/83/23 31/80/23 59/81/23 61/84/23
f 16/8/22 15/85/22 62/86/22 60/82/22
f 33/87/23 32/83/23 61/84/23 63/88/23
f 15/85/22 14/89/22 64/90/22 62/86/22
f 34/13/23 33/87/23 63/88/23 65/91/23
f 14/89/22 13/92/22 66/93/22 64/90/22
f 35/14/23 34/13/23 65/91/23 67/94/23
f 13/92/22 12/95/22 68/96/22 66/93/22
f 36/97/23 35/14/23 67/94/23 69/98/23
f 12/95/22 11/99/22 70/100/22 68/96/22
f 37/101/23 36/97/23 69/98/23 71/102/23
f 11/99/22 10/103/22 72/104/22 70/100/22
f 38/105/23 37/101/23 71/102/23 73/106/23
f 10/103/22 9/107/22 74/108/22 72/104/22
f 24/109/23 38/105/23 73/106/23 75/45/23
f 9/107/22 7/110/22 76/111/22 74/108/22
f 4/53/23 24/109/23 75/45/23 44/11/23
f 7/110/22 1/47/22 40/49/22 76/111/22
f 3/50/22 8/57/22 47/60/22 41/6/22
f 23/55/23 6/51/23 42/1/23 46/4/23
f 77/48/1 78/47/1 135/47/1 134/48/1
f 12/95/5 13/92/5 90/92/5 91/95/5
f 7/110/24 9/107/24 94/107/24 95/110/24
f 19/71/25 20/67/25 83/67/25 84/71/25
f 15/85/26 16/8/26 87/8/26 88/85/26
f 11/99/27 12/95/27 91/95/27 92/99/27
f 22/58/28 8/57/28 80/57/28 81/58/28
f 1/47/2 7/110/2 95/110/2 78/47/2
f 18/75/29 19/71/29 84/71/29 85/75/29
f 14/89/30 15/85/30 88/85/30 89/89/30
f 8/57/4 3/50/4 79/50/4 80/57/4
f 10/103/31 11/99/31 92/99/31 93/103/31
f 21/63/32 22/58/32 81/58/32 82/63/32
f 2/48/1 1/47/1 78/47/1 77/48/1
f 17/9/33 18/75/33 85/75/33 86/9/33
f 13/92/34 14/89/34 89/89/34 90/92/34
f 3/50/21 2/48/21 77/48/21 79/50/21
f 9/107/35 10/103/35 93/103/35 94/107/35
f 20/67/36 21/63/36 82/63/36 83/67/36
f 111/97/31 112/101/31 131/101/31 130/97/31
f 5/52/21 6/51/21 96/51/21 97/52/21
f 38/105/24 24/109/24 114/109/24 113/105/24
f 27/65/25 28/69/25 103/69/25 102/65/25
f 4/53/1 5/52/1 97/52/1 98/53/1
f 31/80/26 32/83/26 107/83/26 106/80/26
f 35/14/37 36/97/37 111/97/37 110/14/37
f 23/55/28 25/54/28 99/54/28 100/55/28
f 24/109/2 4/53/2 98/53/2 114/109/2
f 28/69/38 29/73/38 104/73/38 103/69/38
f 32/83/30 33/87/30 108/87/30 107/83/30
f 36/97/31 37/101/31 112/101/31 111/97/31
f 25/54/32 26/61/32 101/61/32 99/54/32
f 29/73/33 30/77/33 105/77/33 104/73/33
f 33/87/34 34/13/34 109/13/34 108/87/34
f 6/51/4 23/55/4 100/55/4 96/51/4
f 37/101/39 38/105/39 113/105/39 112/101/39
f 26/61/36 27/65/36 102/65/36 101/61/36
f 30/77/3 31/80/3 106/80/3 105/77/3
f 116/52/23 115/51/23 119/55/23 118/54/23 120/61/23 121/65/23 122/69/23 123/73/23 124/77/23 125/80/23 126/83/23 127/87/23 128/13/23 129/14/23 130/97/23 131/101/23 132/105/23 133/109/23 117/53/23
f 104/73/33 105/77/33 124/77/33 123/73/33
f 97/52/21 96/51/21 115/51/21 116/52/21
f 112/101/39 113/105/39 132/105/39 131/101/39
f 105/77/3 106/80/3 125/80/3 124/77/3
f 98/53/1 97/52/1 116/52/1 117/53/1
f 113/105/24 114/109/24 133/109/24 132/105/24
f 106/80/26 107/83/26 126/83/26 125/80/26
f 100/55/28 99/54/28 118/54/28 119/55/28
f 114/109/2 98/53/2 117/53/2 133/109/2
f 107/83/30 108/87/30 127/87/30 126/83/30
f 99/54/32 101/61/32 120/61/32 118/54/32
f 96/51/4 100/55/4 119/55/4 115/51/4
f 108/87/34 109/13/34 128/13/34 127/87/34
f 101/61/36 102/65/36 121/65/36 120/61/36
f 109/13/5 110/14/5 129/14/5 128/13/5
f 102/65/25 103/69/25 122/69/25 121/65/25
f 110/14/37 111/97/37 130/97/37 129/14/37
f 103/69/38 104/73/38 123/73/38 122/69/38
f 135/47/22 152/110/22 151/107/22 150/103/22 149/99/22 148/95/22 147/92/22 146/89/22 145/85/22 144/8/22 143/9/22 142/75/22 141/71/22 140/67/22 139/63/22 138/58/22 137/57/22 136/50/22 134/48/22
f 94/107/35 93/103/35 150/103/35 151/107/35
f 87/8/40 86/9/40 143/9/40 144/8/40
f 79/50/21 77/48/21 134/48/21 136/50/21
f 95/110/24 94/107/24 151/107/24 152/110/24
f 88/85/26 87/8/26 144/8/26 145/85/26
f 81/58/28 80/57/28 137/57/28 138/58/28
f 78/47/2 95/110/2 152/110/2 135/47/2
f 89/89/30 88/85/30 145/85/30 146/89/30
f 82/63/32 81/58/32 138/58/32 139/63/32
f 80/57/4 79/50/4 136/50/4 137/57/4
f 90/92/34 89/89/34 146/89/34 147/92/34
f 83/67/36 82/63/36 139/63/36 140/67/36
f 91/95/5 90/92/5 147/92/5 148/95/5
f 84/71/25 83/67/25 140/67/25 141/71/25
f 92/99/27 91/95/27 148/95/27 149/99/27
f 85/75/38 84/71/38 141/71/38 142/75/38
f 93/103/31 92/99/31 149/99/31 150/103/31
f 86/9/33 85/75/33 142/75/33 143/9/33
