# Blender 4.0.1
# www.blender.org
mtllib Floor_Trap.mtl
o Sol_Trap
v 0.000000 -1.000000 10.000000
v 0.000000 0.000000 10.000000
v 0.000000 -1.000000 0.000000
v 0.000000 0.000000 0.000000
v 10.000000 -1.000000 10.000000
v 10.000000 0.000000 10.000000
v 10.000000 -1.000000 0.000000
v 10.000000 0.000000 0.000000
v 3.500001 -1.900000 6.500000
v 3.985709 -2.507192 5.975769
v 3.985710 -2.507192 3.975769
v 3.500001 0.100000 6.500000
v 3.985709 -2.507192 6.032877
v 3.500001 -1.900000 3.500000
v 3.985710 -2.507192 4.032877
v 5.993506 -2.507192 5.975769
v 3.500001 0.100000 3.500000
v 6.500001 -1.900000 6.500000
v 5.993506 -2.507192 6.032877
v 5.993506 -2.507192 3.975769
v 6.500001 0.100000 6.500000
v 6.500001 -1.900000 3.500000
v 5.993506 -2.507192 4.032877
v 6.500001 0.100000 3.500000
v 3.985710 0.100000 4.032877
v 3.985710 0.100000 3.975769
v 5.993506 0.100000 3.975769
v 5.993506 0.100000 4.032877
v 5.993506 0.100000 5.975769
v 3.985709 0.100000 6.032877
v 3.985709 0.100000 5.975769
v 5.993506 0.100000 6.032877
vn -1.0000 -0.0000 -0.0000
vn -0.0000 -0.0000 -1.0000
vn 1.0000 -0.0000 -0.0000
vn -0.0000 -0.0000 1.0000
vn -0.0000 -1.0000 -0.0000
vn -0.0000 1.0000 -0.0000
vt 0.375000 0.000000
vt 0.625000 0.000000
vt 0.625000 0.250000
vt 0.375000 0.250000
vt 0.625000 0.500000
vt 0.375000 0.500000
vt 0.625000 0.750000
vt 0.375000 0.750000
vt 0.625000 1.000000
vt 0.375000 1.000000
vt 0.125000 0.500000
vt 0.125000 0.750000
vt 0.875000 0.500000
vt 0.875000 0.750000
vt 0.834524 0.711073
vt 0.667208 0.711073
vt 0.667208 0.539647
vt 0.667208 0.544406
vt 0.834524 0.544406
vt 0.834524 0.539647
vt 0.834524 0.706314
vt 0.667208 0.706314
vt 0.592266 0.250000
vt 0.592266 0.000000
vt 0.592266 0.500000
vt 0.592266 0.750000
vt 0.592266 1.000000
s 0
f 1/1/1 2/2/1 4/3/1 3/4/1
f 3/4/2 4/3/2 8/5/2 7/6/2
f 7/6/3 8/5/3 6/7/3 5/8/3
f 5/8/4 6/7/4 2/9/4 1/10/4
f 3/11/5 7/6/5 5/8/5 1/12/5
f 8/5/6 4/13/6 2/14/6 6/7/6
f 9/1/1 12/2/1 17/3/1 14/4/1
f 14/4/2 17/3/2 24/5/2 22/6/2
f 22/6/3 24/5/3 21/7/3 18/8/3
f 18/8/4 21/7/4 12/9/4 9/10/4
f 14/11/5 22/6/5 18/8/5 9/12/5
f 30/15/6 12/14/6 21/7/6 32/16/6
f 21/7/6 24/5/6 27/17/6 28/18/6 25/19/6 26/20/6 17/13/6 12/14/6 30/15/6 31/21/6 29/22/6 32/16/6
f 27/17/6 24/5/6 17/13/6 26/20/6
f 25/23/3 15/4/3 11/1/3 26/24/3
f 23/6/2 15/4/2 25/23/2 28/25/2
f 20/8/1 23/6/1 28/25/1 27/26/1
f 26/27/4 11/10/4 20/8/4 27/26/4
f 11/12/6 15/11/6 23/6/6 20/8/6
f 30/23/3 13/4/3 10/1/3 31/24/3
f 19/6/2 13/4/2 30/23/2 32/25/2
f 16/8/1 19/6/1 32/25/1 29/26/1
f 31/27/4 10/10/4 16/8/4 29/26/4
f 10/12/6 13/11/6 19/6/6 16/8/6
