# Blender 4.0.1
# www.blender.org
mtllib Tournament.mtl
o Cube.005
v -1.000000 1.000000 1.000000
v -1.000000 3.000000 1.000000
v -1.000000 1.000000 -1.000000
v -1.000000 3.000000 -1.000000
v 1.000000 1.000000 1.000000
v 1.000000 3.000000 1.000000
v 1.000000 1.000000 -1.000000
v 1.000000 3.000000 -1.000000
v -1.000000 2.800000 -3.000000
v -1.000000 0.800000 -3.000000
v 1.000000 0.800000 -3.000000
v 1.000000 2.800000 -3.000000
v -1.000000 2.400000 -5.000000
v -1.000000 0.400000 -5.000000
v 1.000000 0.400000 -5.000000
v 1.000000 2.400000 -5.000000
v -1.000000 1.800000 -7.000000
v -1.000000 -0.200000 -7.000000
v 1.000000 -0.200000 -7.000000
v 1.000000 1.800000 -7.000000
v -1.000000 2.800000 -9.000000
v -1.000000 -0.200000 -9.000000
v 1.000000 -0.200000 -9.000000
v 1.000000 2.800000 -9.000000
v -1.000000 -1.000000 1.000000
v -1.000000 1.000000 1.000000
v -1.000000 -1.000000 -1.000000
v -1.000000 1.000000 -1.000000
v 1.000000 -1.000000 1.000000
v 1.000000 1.000000 1.000000
v 1.000000 -1.000000 -1.000000
v 1.000000 1.000000 -1.000000
v -1.000000 0.800000 -3.000000
v -1.000000 -1.200000 -3.000000
v 1.000000 -1.200000 -3.000000
v 1.000000 0.800000 -3.000000
v -1.000000 0.400000 -5.000000
v -1.000000 -1.600000 -5.000000
v 1.000000 -1.600000 -5.000000
v 1.000000 0.400000 -5.000000
v -1.000000 -0.200000 -7.000000
v -1.000000 -2.200000 -7.000000
v 1.000000 -2.200000 -7.000000
v 1.000000 -0.200000 -7.000000
v -1.000000 -1.200000 -9.000000
v -1.000000 -3.200000 -9.000000
v 1.000000 -3.200000 -9.000000
v 1.000000 -1.200000 -9.000000
v -1.000000 1.000000 -1.000000
v -1.000000 3.000000 -1.000000
v -1.000000 1.000000 1.000000
v -1.000000 3.000000 1.000000
v 1.000000 1.000000 -1.000000
v 1.000000 3.000000 -1.000000
v 1.000000 1.000000 1.000000
v 1.000000 3.000000 1.000000
v -1.000000 2.800000 3.000000
v -1.000000 0.800000 3.000000
v 1.000000 0.800000 3.000000
v 1.000000 2.800000 3.000000
v -1.000000 2.400000 5.000000
v -1.000000 0.400000 5.000000
v 1.000000 0.400000 5.000000
v 1.000000 2.400000 5.000000
v -1.000000 1.800000 7.000000
v -1.000000 -0.200000 7.000000
v 1.000000 -0.200000 7.000000
v 1.000000 1.800000 7.000000
v -1.000000 2.800000 9.000000
v -1.000000 -0.200000 9.000000
v 1.000000 -0.200000 9.000000
v 1.000000 2.800000 9.000000
v -1.000000 -1.000000 -1.000000
v -1.000000 1.000000 -1.000000
v -1.000000 -1.000000 1.000000
v -1.000000 1.000000 1.000000
v 1.000000 -1.000000 -1.000000
v 1.000000 1.000000 -1.000000
v 1.000000 -1.000000 1.000000
v 1.000000 1.000000 1.000000
v -1.000000 0.800000 3.000000
v -1.000000 -1.200000 3.000000
v 1.000000 -1.200000 3.000000
v 1.000000 0.800000 3.000000
v -1.000000 0.400000 5.000000
v -1.000000 -1.600000 5.000000
v 1.000000 -1.600000 5.000000
v 1.000000 0.400000 5.000000
v -1.000000 -0.200000 7.000000
v -1.000000 -2.200000 7.000000
v 1.000000 -2.200000 7.000000
v 1.000000 -0.200000 7.000000
v -1.000000 -1.200000 9.000000
v -1.000000 -3.200000 9.000000
v 1.000000 -3.200000 9.000000
v 1.000000 -1.200000 9.000000
vn -1.0000 -0.0000 -0.0000
vn -0.0000 0.9950 -0.0995
vn 1.0000 -0.0000 -0.0000
vn -0.0000 -0.0000 1.0000
vn -0.0000 -1.0000 -0.0000
vn -0.0000 1.0000 -0.0000
vn -0.0000 0.9806 -0.1961
vn -0.0000 -0.9950 0.0995
vn -0.0000 -0.9806 0.1961
vn -0.0000 0.8944 0.4472
vn -0.0000 -0.9578 0.2873
vn -0.0000 0.9578 -0.2873
vn -0.0000 -0.0000 -1.0000
vn -0.0000 0.8944 -0.4472
vn -0.0000 -0.8944 0.4472
vn -0.0000 0.9950 0.0995
vn -0.0000 0.9806 0.1961
vn -0.0000 -0.9950 -0.0995
vn -0.0000 -0.9806 -0.1961
vn -0.0000 -0.9578 -0.2873
vn -0.0000 0.9578 0.2873
vn -0.0000 -0.8944 -0.4472
vt 0.375000 0.000000
vt 0.625000 0.000000
vt 0.625000 0.250000
vt 0.375000 0.250000
vt 0.875000 0.500000
vt 0.625000 0.500000
vt 0.375000 0.500000
vt 0.625000 0.750000
vt 0.375000 0.750000
vt 0.625000 1.000000
vt 0.375000 1.000000
vt 0.125000 0.500000
vt 0.125000 0.750000
vt 0.875000 0.750000
s 0
f 1/1/1 2/2/1 4/3/1 3/4/1
f 4/5/2 8/6/2 12/6/2 9/5/2
f 7/7/3 8/6/3 6/8/3 5/9/3
f 5/9/4 6/8/4 2/10/4 1/11/4
f 3/12/5 7/7/5 5/9/5 1/13/5
f 8/6/6 4/5/6 2/14/6 6/8/6
f 9/5/7 12/6/7 16/6/7 13/5/7
f 3/4/1 4/3/1 9/3/1 10/4/1
f 8/6/3 7/7/3 11/7/3 12/6/3
f 7/7/8 3/12/8 10/12/8 11/7/8
f 16/6/3 15/7/3 19/7/3 20/6/3
f 10/4/1 9/3/1 13/3/1 14/4/1
f 12/6/3 11/7/3 15/7/3 16/6/3
f 11/7/9 10/12/9 14/12/9 15/7/9
f 17/5/10 20/6/10 24/6/10 21/5/10
f 15/7/11 14/12/11 18/12/11 19/7/11
f 13/5/12 16/6/12 20/6/12 17/5/12
f 14/4/1 13/3/1 17/3/1 18/4/1
f 22/4/13 21/3/13 24/6/13 23/7/13
f 18/4/1 17/3/1 21/3/1 22/4/1
f 20/6/3 19/7/3 23/7/3 24/6/3
f 19/7/5 18/12/5 22/12/5 23/7/5
f 25/1/1 26/2/1 28/3/1 27/4/1
f 28/5/2 32/6/2 36/6/2 33/5/2
f 31/7/3 32/6/3 30/8/3 29/9/3
f 29/9/4 30/8/4 26/10/4 25/11/4
f 27/12/5 31/7/5 29/9/5 25/13/5
f 32/6/6 28/5/6 26/14/6 30/8/6
f 33/5/7 36/6/7 40/6/7 37/5/7
f 27/4/1 28/3/1 33/3/1 34/4/1
f 32/6/3 31/7/3 35/7/3 36/6/3
f 31/7/8 27/12/8 34/12/8 35/7/8
f 40/6/3 39/7/3 43/7/3 44/6/3
f 34/4/1 33/3/1 37/3/1 38/4/1
f 36/6/3 35/7/3 39/7/3 40/6/3
f 35/7/9 34/12/9 38/12/9 39/7/9
f 41/5/14 44/6/14 48/6/14 45/5/14
f 39/7/11 38/12/11 42/12/11 43/7/11
f 37/5/12 40/6/12 44/6/12 41/5/12
f 38/4/1 37/3/1 41/3/1 42/4/1
f 46/4/13 45/3/13 48/6/13 47/7/13
f 42/4/1 41/3/1 45/3/1 46/4/1
f 44/6/3 43/7/3 47/7/3 48/6/3
f 43/7/15 42/12/15 46/12/15 47/7/15
f 49/1/1 51/4/1 52/3/1 50/2/1
f 52/5/16 57/5/16 60/6/16 56/6/16
f 55/7/3 53/9/3 54/8/3 56/6/3
f 53/9/13 49/11/13 50/10/13 54/8/13
f 51/12/5 49/13/5 53/9/5 55/7/5
f 56/6/6 54/8/6 50/14/6 52/5/6
f 57/5/17 61/5/17 64/6/17 60/6/17
f 51/4/1 58/4/1 57/3/1 52/3/1
f 56/6/3 60/6/3 59/7/3 55/7/3
f 55/7/18 59/7/18 58/12/18 51/12/18
f 64/6/3 68/6/3 67/7/3 63/7/3
f 58/4/1 62/4/1 61/3/1 57/3/1
f 60/6/3 64/6/3 63/7/3 59/7/3
f 59/7/19 63/7/19 62/12/19 58/12/19
f 65/5/14 69/5/14 72/6/14 68/6/14
f 63/7/20 67/7/20 66/12/20 62/12/20
f 61/5/21 65/5/21 68/6/21 64/6/21
f 62/4/1 66/4/1 65/3/1 61/3/1
f 70/4/4 71/7/4 72/6/4 69/3/4
f 66/4/1 70/4/1 69/3/1 65/3/1
f 68/6/3 72/6/3 71/7/3 67/7/3
f 67/7/5 71/7/5 70/12/5 66/12/5
f 73/1/1 75/4/1 76/3/1 74/2/1
f 76/5/16 81/5/16 84/6/16 80/6/16
f 79/7/3 77/9/3 78/8/3 80/6/3
f 77/9/13 73/11/13 74/10/13 78/8/13
f 75/12/5 73/13/5 77/9/5 79/7/5
f 80/6/6 78/8/6 74/14/6 76/5/6
f 81/5/17 85/5/17 88/6/17 84/6/17
f 75/4/1 82/4/1 81/3/1 76/3/1
f 80/6/3 84/6/3 83/7/3 79/7/3
f 79/7/18 83/7/18 82/12/18 75/12/18
f 88/6/3 92/6/3 91/7/3 87/7/3
f 82/4/1 86/4/1 85/3/1 81/3/1
f 84/6/3 88/6/3 87/7/3 83/7/3
f 83/7/19 87/7/19 86/12/19 82/12/19
f 89/5/10 93/5/10 96/6/10 92/6/10
f 87/7/20 91/7/20 90/12/20 86/12/20
f 85/5/21 89/5/21 92/6/21 88/6/21
f 86/4/1 90/4/1 89/3/1 85/3/1
f 94/4/4 95/7/4 96/6/4 93/3/4
f 90/4/1 94/4/1 93/3/1 89/3/1
f 92/6/3 96/6/3 95/7/3 91/7/3
f 91/7/22 95/7/22 94/12/22 90/12/22
