# Blender 4.0.1
# www.blender.org
mtllib Windows.mtl
o Fenètre
v -11.603806 0.515276 0.283133
v -11.603806 3.385174 0.283133
v -11.603806 0.515276 -0.283133
v -11.603806 3.385174 -0.283133
v -9.396194 0.515276 0.283133
v -9.396194 3.385174 0.283133
v -9.396194 0.515276 -0.283133
v -9.396194 3.385174 -0.283133
v -12.000000 0.000225 0.500000
v -12.000000 3.900000 0.500000
v -12.000000 3.900000 -0.500000
v -12.000000 0.000225 -0.500000
v -9.000000 0.000225 -0.500000
v -9.000000 3.900000 -0.500000
v -9.000000 3.900000 0.500000
v -9.000000 0.000225 0.500000
v -12.396194 0.515276 0.283133
v -12.396194 3.385174 0.283133
v -12.396194 0.515276 -0.283133
v -12.396194 3.385174 -0.283133
v -14.603806 0.515276 0.283133
v -14.603806 3.385174 0.283133
v -14.603806 0.515276 -0.283133
v -14.603806 3.385174 -0.283133
v -15.000000 0.000225 -0.500000
v -15.000000 3.900000 -0.500000
v -15.000000 3.900000 0.500000
v -15.000000 0.000225 0.500000
v -11.603806 7.284724 0.283133
v -11.603806 4.414826 0.283133
v -11.603806 7.284724 -0.283133
v -11.603806 4.414826 -0.283133
v -9.396194 7.284724 0.283133
v -9.396194 4.414826 0.283133
v -9.396194 7.284724 -0.283133
v -9.396194 4.414826 -0.283133
v -12.000000 7.799775 0.500000
v -12.000000 7.799775 -0.500000
v -9.000000 7.799775 -0.500000
v -9.000000 7.799775 0.500000
v -12.396194 7.284724 0.283133
v -12.396194 4.414826 0.283133
v -12.396194 7.284724 -0.283133
v -12.396194 4.414826 -0.283133
v -14.603806 7.284724 0.283133
v -14.603806 4.414826 0.283133
v -14.603806 7.284724 -0.283133
v -14.603806 4.414826 -0.283133
v -15.000000 7.799775 -0.500000
v -15.000000 7.799775 0.500000
vn -1.0000 -0.0000 -0.0000
vn 1.0000 -0.0000 -0.0000
vn -0.0000 -1.0000 -0.0000
vn -0.0000 1.0000 -0.0000
vn 0.4802 -0.0000 0.8772
vn 0.4802 -0.0000 -0.8772
vn -0.0000 0.3881 -0.9216
vn -0.0000 -0.3882 -0.9216
vn -0.4802 -0.0000 -0.8772
vn -0.4802 -0.0000 0.8772
vn -0.0000 0.3881 0.9216
vn -0.0000 -0.3882 0.9216
vn -0.0000 -0.3881 -0.9216
vn -0.0000 0.3882 -0.9216
vn -0.0000 -0.3881 0.9216
vn -0.0000 0.3882 0.9216
vt 0.375000 0.000000
vt 0.625000 0.000000
vt 0.625000 0.250000
vt 0.375000 0.250000
vt 0.375000 0.500000
vt 0.625000 0.500000
vt 0.625000 0.750000
vt 0.375000 0.750000
vt 0.125000 0.500000
vt 0.125000 0.750000
vt 0.875000 0.500000
vt 0.875000 0.750000
vt 0.408016 0.966984
vt 0.591984 0.966984
vt 0.625000 1.000000
vt 0.375000 1.000000
vt 0.591984 0.283016
vt 0.408016 0.283016
vt 0.408016 0.466984
vt 0.591984 0.466984
vt 0.591984 0.783016
vt 0.408016 0.783016
s 0
f 9/1/1 10/2/1 11/3/1 12/4/1
f 13/5/2 14/6/2 15/7/2 16/8/2
f 12/9/3 13/5/3 16/8/3 9/10/3
f 14/6/4 11/11/4 10/12/4 15/7/4
f 1/13/5 2/14/5 10/15/5 9/16/5
f 4/17/6 3/18/6 12/4/6 11/3/6
f 3/18/7 7/19/7 13/5/7 12/4/7
f 8/20/8 4/17/8 11/3/8 14/6/8
f 7/19/9 8/20/9 14/6/9 13/5/9
f 6/21/10 5/22/10 16/8/10 15/7/10
f 5/22/11 1/13/11 9/16/11 16/8/11
f 2/14/12 6/21/12 15/7/12 10/15/12
f 25/5/1 28/8/1 27/7/1 26/6/1
f 12/9/3 9/10/3 28/8/3 25/5/3
f 26/6/4 27/7/4 10/12/4 11/11/4
f 17/13/10 9/16/10 10/15/10 18/14/10
f 20/17/9 11/3/9 12/4/9 19/18/9
f 19/18/7 12/4/7 25/5/7 23/19/7
f 24/20/8 26/6/8 11/3/8 20/17/8
f 23/19/6 25/5/6 26/6/6 24/20/6
f 22/21/5 27/7/5 28/8/5 21/22/5
f 21/22/11 28/8/11 9/16/11 17/13/11
f 18/14/12 10/15/12 27/7/12 22/21/12
f 37/1/1 38/4/1 11/3/1 10/2/1
f 39/5/2 40/8/2 15/7/2 14/6/2
f 38/9/4 37/10/4 40/8/4 39/5/4
f 29/13/5 37/16/5 10/15/5 30/14/5
f 32/17/6 11/3/6 38/4/6 31/18/6
f 31/18/13 38/4/13 39/5/13 35/19/13
f 36/20/14 14/6/14 11/3/14 32/17/14
f 35/19/9 39/5/9 14/6/9 36/20/9
f 34/21/10 15/7/10 40/8/10 33/22/10
f 33/22/15 40/8/15 37/16/15 29/13/15
f 30/14/16 10/15/16 15/7/16 34/21/16
f 49/5/1 26/6/1 27/7/1 50/8/1
f 38/9/4 49/5/4 50/8/4 37/10/4
f 41/13/10 42/14/10 10/15/10 37/16/10
f 44/17/9 43/18/9 38/4/9 11/3/9
f 43/18/13 47/19/13 49/5/13 38/4/13
f 48/20/14 44/17/14 11/3/14 26/6/14
f 47/19/6 48/20/6 26/6/6 49/5/6
f 46/21/5 45/22/5 50/8/5 27/7/5
f 45/22/15 41/13/15 37/16/15 50/8/15
f 42/14/16 46/21/16 27/7/16 10/15/16
