# Blender 4.0.1
# www.blender.org
mtllib Robot_Shelves.mtl
o Robot_Shelves
v 29.149837 0.000000 -21.200001
v 29.149837 10.043944 -21.200001
v 29.149837 0.000000 -21.700001
v 29.149837 10.043944 -21.700001
v 29.399837 0.000000 -21.200001
v 29.399837 10.043944 -21.200001
v 29.399837 0.000000 -21.700001
v 29.399837 10.043944 -21.700001
v 29.149837 0.000000 -15.200000
v 29.149837 10.043944 -15.200000
v 29.149837 0.000000 -15.700000
v 29.149837 10.043944 -15.700000
v 29.399837 0.000000 -15.200000
v 29.399837 10.043944 -15.200000
v 29.399837 0.000000 -15.700000
v 29.399837 10.043944 -15.700000
v 26.649839 0.000000 -21.200001
v 26.649839 10.043944 -21.200001
v 26.649839 0.000000 -21.700001
v 26.649839 10.043944 -21.700001
v 26.899839 0.000000 -21.200001
v 26.899839 10.043944 -21.200001
v 26.899839 0.000000 -21.700001
v 26.899839 10.043944 -21.700001
v 26.649839 0.000000 -15.200000
v 26.649839 10.043944 -15.200000
v 26.649839 0.000000 -15.700000
v 26.649839 10.043944 -15.700000
v 26.899839 0.000000 -15.200000
v 26.899839 10.043944 -15.200000
v 26.899839 0.000000 -15.700000
v 26.899839 10.043944 -15.700000
v 29.509838 9.000000 -14.999999
v 29.509838 9.200000 -14.999999
v 29.509838 9.000000 -22.000000
v 29.509838 9.200000 -22.000000
v 26.509840 9.000000 -14.999999
v 26.509840 9.200000 -14.999999
v 26.509840 9.000000 -22.000000
v 26.509840 9.200000 -22.000000
v 29.509838 7.000000 -14.999999
v 29.509838 7.200000 -14.999999
v 29.509838 7.000000 -22.000000
v 29.509838 7.200000 -22.000000
v 26.509840 7.000000 -14.999999
v 26.509840 7.200000 -14.999999
v 26.509840 7.000000 -22.000000
v 26.509840 7.200000 -22.000000
v 29.509838 5.000000 -14.999999
v 29.509838 5.200000 -14.999999
v 29.509838 5.000000 -22.000000
v 29.509838 5.200000 -22.000000
v 26.509840 5.000000 -14.999999
v 26.509840 5.200000 -14.999999
v 26.509840 5.000000 -22.000000
v 26.509840 5.200000 -22.000000
v 29.509838 3.000000 -14.999999
v 29.509838 3.200000 -14.999999
v 29.509838 3.000000 -22.000000
v 29.509838 3.200000 -22.000000
v 26.509840 3.000000 -14.999999
v 26.509840 3.200000 -14.999999
v 26.509840 3.000000 -22.000000
v 26.509840 3.200000 -22.000000
v 29.509838 1.000000 -14.999999
v 29.509838 1.200000 -14.999999
v 29.509838 1.000000 -22.000000
v 29.509838 1.200000 -22.000000
v 26.509840 1.000000 -14.999999
v 26.509840 1.200000 -14.999999
v 26.509840 1.000000 -22.000000
v 26.509840 1.200000 -22.000000
vn -1.0000 -0.0000 -0.0000
vn -0.0000 -0.0000 -1.0000
vn 1.0000 -0.0000 -0.0000
vn -0.0000 -0.0000 1.0000
vn -0.0000 -1.0000 -0.0000
vn -0.0000 1.0000 -0.0000
vt 0.375000 0.000000
vt 0.625000 0.000000
vt 0.625000 0.250000
vt 0.375000 0.250000
vt 0.625000 0.500000
vt 0.375000 0.500000
vt 0.625000 0.750000
vt 0.375000 0.750000
vt 0.625000 1.000000
vt 0.375000 1.000000
vt 0.125000 0.500000
vt 0.125000 0.750000
vt 0.875000 0.500000
vt 0.875000 0.750000
s 0
f 1/1/1 2/2/1 4/3/1 3/4/1
f 3/4/2 4/3/2 8/5/2 7/6/2
f 7/6/3 8/5/3 6/7/3 5/8/3
f 5/8/4 6/7/4 2/9/4 1/10/4
f 3/11/5 7/6/5 5/8/5 1/12/5
f 8/5/6 4/13/6 2/14/6 6/7/6
f 9/1/1 10/2/1 12/3/1 11/4/1
f 11/4/2 12/3/2 16/5/2 15/6/2
f 15/6/3 16/5/3 14/7/3 13/8/3
f 13/8/4 14/7/4 10/9/4 9/10/4
f 11/11/5 15/6/5 13/8/5 9/12/5
f 16/5/6 12/13/6 10/14/6 14/7/6
f 17/1/1 18/2/1 20/3/1 19/4/1
f 19/4/2 20/3/2 24/5/2 23/6/2
f 23/6/3 24/5/3 22/7/3 21/8/3
f 21/8/4 22/7/4 18/9/4 17/10/4
f 19/11/5 23/6/5 21/8/5 17/12/5
f 24/5/6 20/13/6 18/14/6 22/7/6
f 25/1/1 26/2/1 28/3/1 27/4/1
f 27/4/2 28/3/2 32/5/2 31/6/2
f 31/6/3 32/5/3 30/7/3 29/8/3
f 29/8/4 30/7/4 26/9/4 25/10/4
f 27/11/5 31/6/5 29/8/5 25/12/5
f 32/5/6 28/13/6 26/14/6 30/7/6
f 33/1/1 34/2/1 36/3/1 35/4/1
f 35/4/4 36/3/4 40/5/4 39/6/4
f 39/6/3 40/5/3 38/7/3 37/8/3
f 37/8/2 38/7/2 34/9/2 33/10/2
f 35/11/6 39/6/6 37/8/6 33/12/6
f 40/5/5 36/13/5 34/14/5 38/7/5
f 41/1/1 42/2/1 44/3/1 43/4/1
f 43/4/4 44/3/4 48/5/4 47/6/4
f 47/6/3 48/5/3 46/7/3 45/8/3
f 45/8/2 46/7/2 42/9/2 41/10/2
f 43/11/6 47/6/6 45/8/6 41/12/6
f 48/5/5 44/13/5 42/14/5 46/7/5
f 49/1/1 50/2/1 52/3/1 51/4/1
f 51/4/4 52/3/4 56/5/4 55/6/4
f 55/6/3 56/5/3 54/7/3 53/8/3
f 53/8/2 54/7/2 50/9/2 49/10/2
f 51/11/6 55/6/6 53/8/6 49/12/6
f 56/5/5 52/13/5 50/14/5 54/7/5
f 57/1/1 58/2/1 60/3/1 59/4/1
f 59/4/4 60/3/4 64/5/4 63/6/4
f 63/6/3 64/5/3 62/7/3 61/8/3
f 61/8/2 62/7/2 58/9/2 57/10/2
f 59/11/6 63/6/6 61/8/6 57/12/6
f 64/5/5 60/13/5 58/14/5 62/7/5
f 65/1/1 66/2/1 68/3/1 67/4/1
f 67/4/4 68/3/4 72/5/4 71/6/4
f 71/6/3 72/5/3 70/7/3 69/8/3
f 69/8/2 70/7/2 66/9/2 65/10/2
f 67/11/6 71/6/6 69/8/6 65/12/6
f 72/5/5 68/13/5 66/14/5 70/7/5
