# Blender 4.0.1
# www.blender.org
mtllib Workbench.mtl
o Workbench
v 8.799994 0.000000 -32.900002
v 8.799994 3.000000 -32.900002
v 7.999994 0.000000 -32.900002
v 7.999994 3.000000 -32.900002
v 8.799994 0.000000 -33.400002
v 8.799994 3.000000 -33.400002
v 7.999994 0.000000 -33.400002
v 7.999994 3.000000 -33.400002
v 8.799994 0.000000 -36.900002
v 8.799994 3.000000 -36.900002
v 7.999994 0.000000 -36.900002
v 7.999994 3.000000 -36.900002
v 8.799994 0.000000 -37.400002
v 8.799994 3.000000 -37.400002
v 7.999994 0.000000 -37.400002
v 7.999994 3.000000 -37.400002
v 21.799992 0.000000 -36.900002
v 21.799992 3.000000 -36.900002
v 20.999992 0.000000 -36.900002
v 20.999992 3.000000 -36.900002
v 21.799992 0.000000 -37.400002
v 21.799992 3.000000 -37.400002
v 20.999992 0.000000 -37.400002
v 20.999992 3.000000 -37.400002
v 8.799994 3.500000 -38.900002
v 8.799994 10.000000 -38.900002
v 8.549994 3.500000 -38.900002
v 8.549994 10.000000 -38.900002
v 8.799994 3.500000 -39.150002
v 8.799994 10.000000 -39.150002
v 8.549994 3.500000 -39.150002
v 8.549994 10.000000 -39.150002
v 21.799992 3.500000 -35.900002
v 21.799992 10.000000 -35.900002
v 21.549992 3.500000 -35.900002
v 21.549992 10.000000 -35.900002
v 21.799992 3.500000 -36.150002
v 21.799992 10.000000 -36.150002
v 21.549992 3.500000 -36.150002
v 21.549992 10.000000 -36.150002
v 8.799994 3.500000 -35.900002
v 8.799994 9.994242 -35.900002
v 8.549994 3.500000 -35.900002
v 8.549994 9.994242 -35.900002
v 8.799994 3.500000 -36.150002
v 8.799994 9.994242 -36.150002
v 8.549994 3.500000 -36.150002
v 8.549994 9.994242 -36.150002
v 21.799992 3.500000 -38.900002
v 21.799992 10.000000 -38.900002
v 21.549992 3.500000 -38.900002
v 21.549992 10.000000 -38.900002
v 21.799992 3.500000 -39.150002
v 21.799992 10.000000 -39.150002
v 21.549992 3.500000 -39.150002
v 21.549992 10.000000 -39.150002
v 21.799992 0.000000 -32.900002
v 21.799992 3.000000 -32.900002
v 20.999992 0.000000 -32.900002
v 20.999992 3.000000 -32.900002
v 21.799992 0.000000 -33.400002
v 21.799992 3.000000 -33.400002
v 20.999992 0.000000 -33.400002
v 20.999992 3.000000 -33.400002
v 23.799992 3.000000 -39.400002
v 23.799992 3.500000 -39.400002
v 5.847993 3.000000 -39.400002
v 5.847993 3.500000 -39.400002
v 23.799992 3.000000 -31.400002
v 23.799992 3.500000 -31.400002
v 5.847993 3.000000 -31.400003
v 5.847993 3.500000 -31.400003
v 22.139992 7.700000 -39.599998
v 22.139992 7.900001 -39.599998
v 8.139996 7.700000 -39.600002
v 8.139996 7.900001 -39.600002
v 22.139992 7.700000 -35.599998
v 22.139992 7.900001 -35.599998
v 8.139996 7.700000 -35.600002
v 8.139996 7.900001 -35.600002
v 22.139992 5.600000 -39.599998
v 22.139992 5.800000 -39.599998
v 8.139996 5.600000 -39.600002
v 8.139996 5.800000 -39.600002
v 22.139992 5.600000 -35.599998
v 22.139992 5.800000 -35.599998
v 8.139996 5.600000 -35.600002
v 8.139996 5.800000 -35.600002
vn -0.0000 -0.0000 1.0000
vn -1.0000 -0.0000 -0.0000
vn -0.0000 -0.0000 -1.0000
vn 1.0000 -0.0000 -0.0000
vn -0.0000 -1.0000 -0.0000
vn -0.0000 1.0000 -0.0000
vt 0.375000 0.000000
vt 0.625000 0.000000
vt 0.625000 0.250000
vt 0.375000 0.250000
vt 0.625000 0.500000
vt 0.375000 0.500000
vt 0.625000 0.750000
vt 0.375000 0.750000
vt 0.625000 1.000000
vt 0.375000 1.000000
vt 0.125000 0.500000
vt 0.125000 0.750000
vt 0.875000 0.500000
vt 0.875000 0.750000
s 0
f 1/1/1 2/2/1 4/3/1 3/4/1
f 3/4/2 4/3/2 8/5/2 7/6/2
f 7/6/3 8/5/3 6/7/3 5/8/3
f 5/8/4 6/7/4 2/9/4 1/10/4
f 3/11/5 7/6/5 5/8/5 1/12/5
f 8/5/6 4/13/6 2/14/6 6/7/6
f 9/1/1 10/2/1 12/3/1 11/4/1
f 11/4/2 12/3/2 16/5/2 15/6/2
f 15/6/3 16/5/3 14/7/3 13/8/3
f 13/8/4 14/7/4 10/9/4 9/10/4
f 11/11/5 15/6/5 13/8/5 9/12/5
f 16/5/6 12/13/6 10/14/6 14/7/6
f 17/1/1 18/2/1 20/3/1 19/4/1
f 19/4/2 20/3/2 24/5/2 23/6/2
f 23/6/3 24/5/3 22/7/3 21/8/3
f 21/8/4 22/7/4 18/9/4 17/10/4
f 19/11/5 23/6/5 21/8/5 17/12/5
f 24/5/6 20/13/6 18/14/6 22/7/6
f 25/1/1 26/2/1 28/3/1 27/4/1
f 27/4/2 28/3/2 32/5/2 31/6/2
f 31/6/3 32/5/3 30/7/3 29/8/3
f 29/8/4 30/7/4 26/9/4 25/10/4
f 27/11/5 31/6/5 29/8/5 25/12/5
f 32/5/6 28/13/6 26/14/6 30/7/6
f 33/1/1 34/2/1 36/3/1 35/4/1
f 35/4/2 36/3/2 40/5/2 39/6/2
f 39/6/3 40/5/3 38/7/3 37/8/3
f 37/8/4 38/7/4 34/9/4 33/10/4
f 35/11/5 39/6/5 37/8/5 33/12/5
f 40/5/6 36/13/6 34/14/6 38/7/6
f 41/1/1 42/2/1 44/3/1 43/4/1
f 43/4/2 44/3/2 48/5/2 47/6/2
f 47/6/3 48/5/3 46/7/3 45/8/3
f 45/8/4 46/7/4 42/9/4 41/10/4
f 43/11/5 47/6/5 45/8/5 41/12/5
f 48/5/6 44/13/6 42/14/6 46/7/6
f 49/1/1 50/2/1 52/3/1 51/4/1
f 51/4/2 52/3/2 56/5/2 55/6/2
f 55/6/3 56/5/3 54/7/3 53/8/3
f 53/8/4 54/7/4 50/9/4 49/10/4
f 51/11/5 55/6/5 53/8/5 49/12/5
f 56/5/6 52/13/6 50/14/6 54/7/6
f 57/1/1 58/2/1 60/3/1 59/4/1
f 59/4/2 60/3/2 64/5/2 63/6/2
f 63/6/3 64/5/3 62/7/3 61/8/3
f 61/8/4 62/7/4 58/9/4 57/10/4
f 59/11/5 63/6/5 61/8/5 57/12/5
f 64/5/6 60/13/6 58/14/6 62/7/6
f 65/1/1 66/2/1 68/3/1 67/4/1
f 67/4/4 68/3/4 72/5/4 71/6/4
f 71/6/3 72/5/3 70/7/3 69/8/3
f 69/8/2 70/7/2 66/9/2 65/10/2
f 67/11/6 71/6/6 69/8/6 65/12/6
f 72/5/5 68/13/5 66/14/5 70/7/5
f 73/1/1 74/2/1 76/3/1 75/4/1
f 75/4/4 76/3/4 80/5/4 79/6/4
f 79/6/3 80/5/3 78/7/3 77/8/3
f 77/8/2 78/7/2 74/9/2 73/10/2
f 75/11/6 79/6/6 77/8/6 73/12/6
f 80/5/5 76/13/5 74/14/5 78/7/5
f 81/1/1 82/2/1 84/3/1 83/4/1
f 83/4/4 84/3/4 88/5/4 87/6/4
f 87/6/3 88/5/3 86/7/3 85/8/3
f 85/8/2 86/7/2 82/9/2 81/10/2
f 83/11/6 87/6/6 85/8/6 81/12/6
f 88/5/5 84/13/5 82/14/5 86/7/5
