# Blender 4.0.1
# www.blender.org
mtllib Ordinator.mtl
o ordisupport_ecran
v -0.020000 -0.097500 1.100000
v -0.020000 2.102500 1.100000
v -0.020000 -0.097500 -1.100000
v -0.020000 2.102500 -1.100000
v 2.000000 0.000000 1.000000
v 2.000000 1.500000 0.759389
v 2.000000 0.000000 -1.000000
v 2.000000 1.500000 -0.759389
v 0.135000 0.100000 0.716000
v -0.033000 0.100000 0.716000
v 0.135000 0.116388 0.717614
v -0.033000 0.116388 0.717614
v 0.135000 0.132145 0.722394
v -0.033000 0.132145 0.722394
v 0.135000 0.146668 0.730157
v -0.033000 0.146668 0.730157
v 0.135000 0.159397 0.740603
v -0.033000 0.159397 0.740603
v 0.135000 0.169843 0.753332
v -0.033000 0.169843 0.753332
v 0.135000 0.177606 0.767855
v -0.033000 0.177606 0.767855
v 0.135000 0.182386 0.783612
v -0.033000 0.182386 0.783612
v 0.135000 0.184000 0.800000
v -0.033000 0.184000 0.800000
v 0.135000 0.182386 0.816388
v -0.033000 0.182386 0.816388
v 0.135000 0.177606 0.832145
v -0.033000 0.177606 0.832145
v 0.135000 0.169843 0.846668
v -0.033000 0.169843 0.846668
v 0.135000 0.159397 0.859397
v -0.033000 0.159397 0.859397
v 0.135000 0.146668 0.869843
v -0.033000 0.146668 0.869843
v 0.135000 0.132145 0.877606
v -0.033000 0.132145 0.877606
v 0.135000 0.116388 0.882386
v -0.033000 0.116388 0.882386
v 0.135000 0.100000 0.884000
v -0.033000 0.100000 0.884000
v 0.135000 0.083612 0.882386
v -0.033000 0.083612 0.882386
v 0.135000 0.067855 0.877606
v -0.033000 0.067855 0.877606
v 0.135000 0.053332 0.869843
v -0.033000 0.053332 0.869843
v 0.135000 0.040603 0.859397
v -0.033000 0.040603 0.859397
v 0.135000 0.030157 0.846668
v -0.033000 0.030157 0.846668
v 0.135000 0.022394 0.832145
v -0.033000 0.022394 0.832145
v 0.135000 0.017614 0.816388
v -0.033000 0.017614 0.816388
v 0.135000 0.016000 0.800000
v -0.033000 0.016000 0.800000
v 0.135000 0.017614 0.783612
v -0.033000 0.017614 0.783612
v 0.135000 0.022394 0.767855
v -0.033000 0.022394 0.767855
v 0.135000 0.030157 0.753332
v -0.033000 0.030157 0.753332
v 0.135000 0.040603 0.740603
v -0.033000 0.040603 0.740603
v 0.135000 0.053332 0.730157
v -0.033000 0.053332 0.730157
v 0.135000 0.067855 0.722394
v -0.033000 0.067855 0.722394
v 0.135000 0.083612 0.717614
v -0.033000 0.083612 0.717614
v -0.072000 0.028000 0.672000
v -0.072000 0.172000 0.672000
v -0.072000 0.028000 0.528000
v -0.072000 0.172000 0.528000
v 0.072000 0.028000 0.672000
v 0.072000 0.172000 0.672000
v 0.072000 0.028000 0.528000
v 0.072000 0.172000 0.528000
v 0.420000 -0.097500 -1.100000
v 0.420000 1.992500 -1.047065
v 0.420000 -0.097500 1.100000
v 0.420000 1.992500 1.047065
vn -1.0000 -0.0000 -0.0000
vn 0.1313 0.0808 -0.9880
vn 1.0000 -0.0000 -0.0000
vn 0.0616 0.0123 0.9980
vn 0.0616 -0.9981 -0.0000
vn 0.2425 0.9701 -0.0000
vn -0.0000 0.0980 -0.9952
vn -0.0000 0.2903 -0.9569
vn -0.0000 0.4714 -0.8819
vn -0.0000 0.6344 -0.7730
vn -0.0000 0.7730 -0.6344
vn -0.0000 0.8819 -0.4714
vn -0.0000 0.9569 -0.2903
vn -0.0000 0.9952 -0.0980
vn -0.0000 0.9952 0.0980
vn -0.0000 0.9569 0.2903
vn -0.0000 0.8819 0.4714
vn -0.0000 0.7730 0.6344
vn -0.0000 0.6344 0.7730
vn -0.0000 0.4714 0.8819
vn -0.0000 0.2903 0.9569
vn -0.0000 0.0980 0.9952
vn -0.0000 -0.0980 0.9952
vn -0.0000 -0.2903 0.9569
vn -0.0000 -0.4714 0.8819
vn -0.0000 -0.6344 0.7730
vn -0.0000 -0.7730 0.6344
vn -0.0000 -0.8819 0.4714
vn -0.0000 -0.9569 0.2903
vn -0.0000 -0.9952 0.0980
vn -0.0000 -0.9952 -0.0980
vn -0.0000 -0.9569 -0.2903
vn -0.0000 -0.8819 -0.4714
vn -0.0000 -0.7730 -0.6344
vn -0.0000 -0.6344 -0.7730
vn -0.0000 -0.4714 -0.8819
vn -0.0000 -0.2903 -0.9569
vn -0.0000 -0.0980 -0.9952
vn -0.0000 -0.0000 -1.0000
vn -0.0000 -0.0000 1.0000
vn -0.0000 -1.0000 -0.0000
vn -0.0000 1.0000 -0.0000
vn 0.2976 0.9547 -0.0000
vn 0.1313 0.0808 0.9880
vn 0.0616 0.0123 -0.9980
vt 0.375000 0.000000
vt 0.625000 0.000000
vt 0.625000 0.250000
vt 0.375000 0.250000
vt 0.375000 0.300000
vt 0.625000 0.300000
vt 0.625000 0.500000
vt 0.375000 0.500000
vt 0.625000 0.750000
vt 0.375000 0.750000
vt 0.375000 0.950000
vt 0.625000 0.950000
vt 0.625000 1.000000
vt 0.375000 1.000000
vt 0.175000 0.500000
vt 0.175000 0.750000
vt 0.825000 0.500000
vt 0.875000 0.500000
vt 0.875000 0.750000
vt 0.825000 0.750000
vt 1.000000 0.500000
vt 1.000000 1.000000
vt 0.968750 1.000000
vt 0.968750 0.500000
vt 0.937500 1.000000
vt 0.937500 0.500000
vt 0.906250 1.000000
vt 0.906250 0.500000
vt 0.875000 1.000000
vt 0.843750 1.000000
vt 0.843750 0.500000
vt 0.812500 1.000000
vt 0.812500 0.500000
vt 0.781250 1.000000
vt 0.781250 0.500000
vt 0.750000 1.000000
vt 0.750000 0.500000
vt 0.718750 1.000000
vt 0.718750 0.500000
vt 0.687500 1.000000
vt 0.687500 0.500000
vt 0.656250 1.000000
vt 0.656250 0.500000
vt 0.593750 1.000000
vt 0.593750 0.500000
vt 0.562500 1.000000
vt 0.562500 0.500000
vt 0.531250 1.000000
vt 0.531250 0.500000
vt 0.500000 1.000000
vt 0.500000 0.500000
vt 0.468750 1.000000
vt 0.468750 0.500000
vt 0.437500 1.000000
vt 0.437500 0.500000
vt 0.406250 1.000000
vt 0.406250 0.500000
vt 0.343750 1.000000
vt 0.343750 0.500000
vt 0.312500 1.000000
vt 0.312500 0.500000
vt 0.281250 1.000000
vt 0.281250 0.500000
vt 0.250000 1.000000
vt 0.250000 0.500000
vt 0.218750 1.000000
vt 0.218750 0.500000
vt 0.187500 1.000000
vt 0.187500 0.500000
vt 0.156250 1.000000
vt 0.156250 0.500000
vt 0.125000 1.000000
vt 0.125000 0.500000
vt 0.093750 1.000000
vt 0.093750 0.500000
vt 0.062500 1.000000
vt 0.062500 0.500000
vt 0.296822 0.485388
vt 0.250000 0.490000
vt 0.203178 0.485388
vt 0.158156 0.471731
vt 0.116663 0.449553
vt 0.080294 0.419706
vt 0.050447 0.383337
vt 0.028269 0.341844
vt 0.014612 0.296822
vt 0.010000 0.250000
vt 0.014612 0.203178
vt 0.028269 0.158156
vt 0.050447 0.116663
vt 0.080294 0.080294
vt 0.116663 0.050447
vt 0.158156 0.028269
vt 0.203178 0.014612
vt 0.250000 0.010000
vt 0.296822 0.014612
vt 0.341844 0.028269
vt 0.383337 0.050447
vt 0.419706 0.080294
vt 0.449553 0.116663
vt 0.471731 0.158156
vt 0.485388 0.203178
vt 0.490000 0.250000
vt 0.485388 0.296822
vt 0.471731 0.341844
vt 0.449553 0.383337
vt 0.419706 0.419706
vt 0.383337 0.449553
vt 0.341844 0.471731
vt 0.031250 1.000000
vt 0.031250 0.500000
vt 0.000000 1.000000
vt 0.000000 0.500000
vt 0.750000 0.490000
vt 0.796822 0.485388
vt 0.841844 0.471731
vt 0.883337 0.449553
vt 0.919706 0.419706
vt 0.949553 0.383337
vt 0.971731 0.341844
vt 0.985388 0.296822
vt 0.990000 0.250000
vt 0.985388 0.203178
vt 0.971731 0.158156
vt 0.949553 0.116663
vt 0.919706 0.080294
vt 0.883337 0.050447
vt 0.841844 0.028269
vt 0.796822 0.014612
vt 0.750000 0.010000
vt 0.703178 0.014612
vt 0.658156 0.028269
vt 0.616663 0.050447
vt 0.580294 0.080294
vt 0.550447 0.116663
vt 0.528269 0.158156
vt 0.514612 0.203178
vt 0.510000 0.250000
vt 0.514612 0.296822
vt 0.528269 0.341844
vt 0.550447 0.383337
vt 0.580294 0.419706
vt 0.616663 0.449553
vt 0.658156 0.471731
vt 0.703178 0.485388
vt 0.125000 0.750000
s 0
f 1/1/1 2/2/1 4/3/1 3/4/1
f 81/5/2 82/6/2 8/7/2 7/8/2
f 7/8/3 8/7/3 6/9/3 5/10/3
f 83/11/4 84/12/4 2/13/4 1/14/4
f 81/15/5 7/8/5 5/10/5 83/16/5
f 82/17/6 4/18/6 2/19/6 84/20/6
f 9/21/7 10/22/7 12/23/7 11/24/7
f 11/24/8 12/23/8 14/25/8 13/26/8
f 13/26/9 14/25/9 16/27/9 15/28/9
f 15/28/10 16/27/10 18/29/10 17/18/10
f 17/18/11 18/29/11 20/30/11 19/31/11
f 19/31/12 20/30/12 22/32/12 21/33/12
f 21/33/13 22/32/13 24/34/13 23/35/13
f 23/35/14 24/34/14 26/36/14 25/37/14
f 25/37/15 26/36/15 28/38/15 27/39/15
f 27/39/16 28/38/16 30/40/16 29/41/16
f 29/41/17 30/40/17 32/42/17 31/43/17
f 31/43/18 32/42/18 34/13/18 33/7/18
f 33/7/19 34/13/19 36/44/19 35/45/19
f 35/45/20 36/44/20 38/46/20 37/47/20
f 37/47/21 38/46/21 40/48/21 39/49/21
f 39/49/22 40/48/22 42/50/22 41/51/22
f 41/51/23 42/50/23 44/52/23 43/53/23
f 43/53/24 44/52/24 46/54/24 45/55/24
f 45/55/25 46/54/25 48/56/25 47/57/25
f 47/57/26 48/56/26 50/14/26 49/8/26
f 49/8/27 50/14/27 52/58/27 51/59/27
f 51/59/28 52/58/28 54/60/28 53/61/28
f 53/61/29 54/60/29 56/62/29 55/63/29
f 55/63/30 56/62/30 58/64/30 57/65/30
f 57/65/31 58/64/31 60/66/31 59/67/31
f 59/67/32 60/66/32 62/68/32 61/69/32
f 61/69/33 62/68/33 64/70/33 63/71/33
f 63/71/34 64/70/34 66/72/34 65/73/34
f 65/73/35 66/72/35 68/74/35 67/75/35
f 67/75/36 68/74/36 70/76/36 69/77/36
f 12/78/1 10/79/1 72/80/1 70/81/1 68/82/1 66/83/1 64/84/1 62/85/1 60/86/1 58/87/1 56/88/1 54/89/1 52/90/1 50/91/1 48/92/1 46/93/1 44/94/1 42/95/1 40/96/1 38/97/1 36/98/1 34/99/1 32/100/1 30/101/1 28/102/1 26/103/1 24/104/1 22/105/1 20/106/1 18/107/1 16/108/1 14/109/1
f 69/77/37 70/76/37 72/110/37 71/111/37
f 71/111/38 72/110/38 10/112/38 9/113/38
f 9/114/3 11/115/3 13/116/3 15/117/3 17/118/3 19/119/3 21/120/3 23/121/3 25/122/3 27/123/3 29/124/3 31/125/3 33/126/3 35/127/3 37/128/3 39/129/3 41/130/3 43/131/3 45/132/3 47/133/3 49/134/3 51/135/3 53/136/3 55/137/3 57/138/3 59/139/3 61/140/3 63/141/3 65/142/3 67/143/3 69/144/3 71/145/3
f 73/1/1 74/2/1 76/3/1 75/4/1
f 75/4/39 76/3/39 80/7/39 79/8/39
f 79/8/3 80/7/3 78/9/3 77/10/3
f 77/10/40 78/9/40 74/13/40 73/14/40
f 75/73/41 79/8/41 77/10/41 73/146/41
f 80/7/42 76/18/42 74/19/42 78/9/42
f 8/7/43 82/17/43 84/20/43 6/9/43
f 3/73/41 81/15/41 83/16/41 1/146/41
f 5/10/44 6/9/44 84/12/44 83/11/44
f 3/4/45 4/3/45 82/6/45 81/5/45
