# Blender 4.0.1
# www.blender.org
mtllib Orid.mtl
o Ordi
v 1.000000 0.000000 1.500000
v 0.928803 0.096767 1.400129
v 1.000000 0.000000 -1.500000
v 0.928803 0.096767 -1.400129
v 1.684040 1.879385 1.500000
v 1.567299 1.851022 1.400129
v 1.684040 1.879385 -1.500000
v 1.567299 1.851022 -1.400129
v 0.906031 0.034202 1.500000
v 0.906031 0.034202 -1.500000
v 1.590071 1.913587 -1.500000
v 1.590071 1.913587 1.500000
v 0.906031 0.034202 -1.500000
v 1.590071 1.913587 -1.500000
v 1.590071 1.913587 1.500000
v 0.906031 0.034202 1.500000
v 0.928803 0.096767 -1.400129
v 1.567299 1.851022 -1.400129
v 1.567299 1.851022 1.400129
v 0.928803 0.096767 1.400129
v 0.896634 0.037622 -1.500000
v 1.580674 1.917007 -1.500000
v 1.580674 1.917007 1.500000
v 0.896634 0.037622 1.500000
v 0.919406 0.100187 -1.400129
v 1.557902 1.854442 -1.400129
v 1.557902 1.854442 1.400129
v 0.919406 0.100187 1.400129
v -1.000000 0.000000 1.500000
v -1.000000 0.100000 1.500000
v -1.000000 0.000000 -1.500000
v -1.000000 0.100000 -1.500000
v 1.000000 0.000000 1.500000
v 1.000000 0.100000 1.500000
v 1.000000 0.000000 -1.500000
v 1.000000 0.100000 -1.500000
v -1.000000 0.000000 0.000000
v 1.000000 0.000000 0.000000
v 1.000000 0.100000 0.000000
v 1.000000 0.000000 -0.750000
v -1.000000 0.000000 -0.750000
v 1.000000 0.100000 -0.750000
v -1.000000 0.000000 0.750000
v 1.000000 0.100000 0.750000
v 1.000000 0.000000 0.750000
v -0.950000 0.100000 0.000000
v -1.000000 0.050000 0.000000
v -1.000000 0.050000 -0.750000
v -0.950000 0.100000 -0.750000
v -1.000000 0.100000 -0.800000
v -0.950000 0.100000 0.750000
v -1.000000 0.050000 0.750000
v -1.000000 0.100000 0.800000
vn -0.3420 -0.9397 -0.0000
vn -0.0000 -0.0000 -1.0000
vn 0.3420 0.9397 -0.0000
vn -0.0000 -0.0000 1.0000
vn 0.9397 -0.3420 -0.0000
vn -0.9397 0.3420 -0.0000
vn -0.0000 1.0000 -0.0000
vn -0.2846 -0.7819 -0.5547
vn -0.2846 -0.7819 0.5547
vn -1.0000 -0.0000 -0.0000
vn 1.0000 -0.0000 -0.0000
vn -0.0000 -1.0000 -0.0000
vn -0.5774 0.5774 0.5774
vn -0.5774 0.5774 -0.5774
vn -0.7071 0.7071 -0.0000
vt 0.375000 0.000000
vt 0.625000 0.000000
vt 0.625000 0.250000
vt 0.375000 0.250000
vt 0.625000 0.500000
vt 0.375000 0.500000
vt 0.625000 0.750000
vt 0.375000 0.750000
vt 0.625000 1.000000
vt 0.375000 1.000000
vt 0.125000 0.500000
vt 0.125000 0.750000
vt 0.866677 0.741677
vt 0.866677 0.508323
vt 0.875000 0.500000
vt 0.875000 0.750000
vt 0.633323 0.508323
vt 0.633323 0.741677
vt 0.625000 0.058333
vt 0.500000 0.062500
vt 0.375000 0.062500
vt 0.375000 0.687500
vt 0.625000 0.687500
vt 0.125000 0.687500
vt 0.500000 0.062500
vt 0.500000 0.125000
vt 0.375000 0.125000
vt 0.125000 0.562500
vt 0.375000 0.562500
vt 0.375000 0.625000
vt 0.125000 0.625000
vt 0.625000 0.562500
vt 0.625000 0.625000
vt 0.500000 0.125000
vt 0.500000 0.187500
vt 0.375000 0.187500
vt 0.500000 0.187500
vt 0.625000 0.191667
vt 0.875000 0.558333
vt 0.868750 0.562500
vt 0.868750 0.687500
vt 0.875000 0.691667
vt 0.868750 0.625000
vt 0.625000 0.187500
vt 0.625000 0.062500
vt 0.625000 0.125000
s 0
f 1/1/1 9/2/1 10/3/1 3/4/1
f 3/4/2 10/3/2 11/5/2 7/6/2
f 7/6/3 11/5/3 12/7/3 5/8/3
f 5/8/4 12/7/4 9/9/4 1/10/4
f 3/11/5 7/6/5 5/8/5 1/12/5
f 2/13/6 4/14/6 10/15/6 9/16/6
f 9/9/7 12/7/7 15/7/7 16/9/7
f 4/14/7 8/17/7 18/17/7 17/14/7
f 6/18/7 2/13/7 20/13/7 19/18/7
f 16/9/4 15/7/4 23/7/4 24/9/4
f 18/17/1 19/18/1 27/18/1 26/17/1
f 20/13/8 16/16/8 24/16/8 28/13/8
f 2/13/7 9/16/7 16/16/7 20/13/7
f 11/5/7 10/3/7 13/3/7 14/5/7
f 8/17/7 6/18/7 19/18/7 18/17/7
f 12/7/7 11/5/7 14/5/7 15/7/7
f 10/15/7 4/14/7 17/14/7 13/15/7
f 25/14/6 26/17/6 22/5/6 21/15/6
f 26/17/6 27/18/6 23/7/6 22/5/6
f 27/18/6 28/13/6 24/16/6 23/7/6
f 14/5/2 13/3/2 21/3/2 22/5/2
f 13/15/9 17/14/9 25/14/9 21/15/9
f 19/18/2 20/13/2 28/13/2 27/18/2
f 17/14/4 18/17/4 26/17/4 25/14/4
f 15/7/3 14/5/3 22/5/3 23/7/3
f 29/1/10 30/2/10 53/19/10 52/20/10 43/21/10
f 31/4/2 32/3/2 36/5/2 35/6/2
f 45/22/11 44/23/11 34/7/11 33/8/11
f 33/8/4 34/7/4 30/9/4 29/10/4
f 43/24/12 45/22/12 33/8/12 29/12/12
f 43/21/10 52/25/10 47/26/10 37/27/10
f 41/28/12 40/29/12 38/30/12 37/31/12
f 40/29/11 42/32/11 39/33/11 38/30/11
f 37/27/10 47/34/10 48/35/10 41/36/10
f 35/6/11 36/5/11 42/32/11 40/29/11
f 31/11/12 35/6/12 40/29/12 41/28/12
f 41/36/10 48/37/10 50/38/10 32/3/10 31/4/10
f 36/5/7 32/15/7 50/39/7 49/40/7 42/32/7
f 44/23/7 51/41/7 53/42/7 30/16/7 34/7/7
f 42/32/7 49/40/7 46/43/7 39/33/7
f 37/31/12 38/30/12 45/22/12 43/24/12
f 38/30/11 39/33/11 44/23/11 45/22/11
f 48/37/13 49/44/13 50/38/13
f 51/45/14 52/20/14 53/19/14
f 51/45/15 46/46/15 47/26/15 52/25/15
f 46/46/15 49/44/15 48/35/15 47/34/15
f 39/33/7 46/43/7 51/41/7 44/23/7
