# Blender 4.0.1
# www.blender.org
mtllib Screeeen.mtl
o screen
v 0.072860 1.822345 0.717736
v -0.013952 1.567662 0.797506
v -0.067411 1.291316 0.846627
v -0.085461 1.003925 0.863213
v -0.067411 0.716535 0.846627
v -0.013952 0.440188 0.797506
v 0.072860 0.185506 0.717736
v -0.013952 1.822345 0.494385
v -0.110412 1.567662 0.549331
v -0.169813 1.291316 0.583167
v -0.189869 1.003925 0.594591
v -0.169813 0.716535 0.583167
v -0.110412 0.440188 0.549331
v -0.013952 0.185506 0.494385
v -0.067410 1.822345 0.252035
v -0.169812 1.567662 0.280047
v -0.232871 1.291316 0.297296
v -0.254163 1.003925 0.303120
v -0.232871 0.716535 0.297296
v -0.169812 0.440188 0.280047
v -0.067410 0.185506 0.252035
v -0.085461 1.822345 -0.000000
v -0.189869 1.567662 -0.000000
v -0.254164 1.291316 -0.000000
v -0.275873 1.003925 -0.000001
v -0.254164 0.716535 -0.000000
v -0.189869 0.440188 -0.000000
v -0.085461 0.185506 -0.000000
v -0.067410 1.822345 -0.252036
v -0.169812 1.567662 -0.280047
v -0.232871 1.291316 -0.297296
v -0.254163 1.003925 -0.303121
v -0.232871 0.716535 -0.297296
v -0.169812 0.440188 -0.280047
v -0.067410 0.185506 -0.252036
v -0.013951 1.822345 -0.494385
v -0.110412 1.567662 -0.549331
v -0.169812 1.291316 -0.583167
v -0.189869 1.003925 -0.594592
v -0.169812 0.716535 -0.583167
v -0.110412 0.440188 -0.549331
v -0.013951 0.185506 -0.494385
v 0.072861 1.822345 -0.717736
v -0.013952 1.567662 -0.797505
v -0.067410 1.291316 -0.846628
v -0.085460 1.003925 -0.863214
v -0.067410 0.716535 -0.846628
v -0.013952 0.440188 -0.797505
v 0.072861 0.185506 -0.717736
vn -0.8857 0.3116 0.3442
vn -0.8559 0.3959 0.3327
vn -0.8822 0.3908 0.2627
vn -0.9089 0.3128 0.2757
vn -0.9207 0.1558 0.3579
vn -0.9451 0.1562 0.2869
vn -0.9321 -0.0000 0.3623
vn -0.9569 -0.0000 0.2905
vn -0.9207 -0.1558 0.3579
vn -0.9451 -0.1562 0.2869
vn -0.8857 -0.3116 0.3442
vn -0.9089 -0.3128 0.2757
vn -0.8559 -0.3959 0.3327
vn -0.8822 -0.3908 0.2627
vn -0.9895 -0.0000 0.1442
vn -0.9780 -0.1522 0.1425
vn -0.9423 -0.3054 0.1372
vn -0.9148 -0.3822 0.1308
vn -0.9148 0.3822 0.1308
vn -0.9423 0.3054 0.1372
vn -0.9780 0.1522 0.1425
vn -0.9253 0.3793 -0.0000
vn -0.9530 0.3029 -0.0000
vn -0.9886 0.1509 -0.0000
vn -1.0000 -0.0000 -0.0000
vn -0.9886 -0.1509 -0.0000
vn -0.9530 -0.3029 -0.0000
vn -0.9253 -0.3793 -0.0000
vn -0.9895 -0.0000 -0.1442
vn -0.9780 -0.1522 -0.1425
vn -0.9423 -0.3054 -0.1372
vn -0.9148 -0.3822 -0.1308
vn -0.9148 0.3822 -0.1308
vn -0.9423 0.3054 -0.1372
vn -0.9780 0.1522 -0.1425
vn -0.8822 0.3908 -0.2627
vn -0.9089 0.3128 -0.2757
vn -0.9451 0.1562 -0.2869
vn -0.9569 -0.0000 -0.2905
vn -0.9451 -0.1562 -0.2869
vn -0.9089 -0.3128 -0.2757
vn -0.8822 -0.3908 -0.2627
vn -0.9207 -0.1558 -0.3579
vn -0.8857 -0.3116 -0.3442
vn -0.8559 -0.3959 -0.3327
vn -0.8559 0.3959 -0.3327
vn -0.8857 0.3116 -0.3442
vn -0.9207 0.1558 -0.3579
vn -0.9321 -0.0000 -0.3623
vt 0.093750 0.625000
vt 0.093750 0.687500
vt 0.062500 0.687500
vt 0.062500 0.625000
vt 0.093750 0.562500
vt 0.062500 0.562500
vt 0.093750 0.500000
vt 0.062500 0.500000
vt 0.093750 0.437500
vt 0.062500 0.437500
vt 0.093750 0.375000
vt 0.062500 0.375000
vt 0.093750 0.312500
vt 0.062500 0.312500
vt 0.031250 0.500000
vt 0.031250 0.437500
vt 0.031250 0.375000
vt 0.031250 0.312500
vt 0.031250 0.687500
vt 0.031250 0.625000
vt 0.031250 0.562500
vt 0.000000 0.687500
vt 0.000000 0.625000
vt 0.000000 0.562500
vt 0.000000 0.500000
vt 0.000000 0.437500
vt 0.000000 0.375000
vt 0.000000 0.312500
vt 1.000000 0.437500
vt 1.000000 0.500000
vt 0.968750 0.500000
vt 0.968750 0.437500
vt 1.000000 0.375000
vt 0.968750 0.375000
vt 1.000000 0.312500
vt 0.968750 0.312500
vt 1.000000 0.625000
vt 1.000000 0.687500
vt 0.968750 0.687500
vt 0.968750 0.625000
vt 1.000000 0.562500
vt 0.968750 0.562500
vt 0.937500 0.687500
vt 0.937500 0.625000
vt 0.937500 0.562500
vt 0.937500 0.500000
vt 0.937500 0.437500
vt 0.937500 0.375000
vt 0.937500 0.312500
vt 0.906250 0.437500
vt 0.906250 0.375000
vt 0.906250 0.312500
vt 0.906250 0.687500
vt 0.906250 0.625000
vt 0.906250 0.562500
vt 0.906250 0.500000
s 1
f 2/1/1 1/2/2 8/3/3 9/4/4
f 3/5/5 2/1/1 9/4/4 10/6/6
f 4/7/7 3/5/5 10/6/6 11/8/8
f 5/9/9 4/7/7 11/8/8 12/10/10
f 6/11/11 5/9/9 12/10/10 13/12/12
f 7/13/13 6/11/11 13/12/12 14/14/14
f 12/10/10 11/8/8 18/15/15 19/16/16
f 13/12/12 12/10/10 19/16/16 20/17/17
f 14/14/14 13/12/12 20/17/17 21/18/18
f 9/4/4 8/3/3 15/19/19 16/20/20
f 10/6/6 9/4/4 16/20/20 17/21/21
f 11/8/8 10/6/6 17/21/21 18/15/15
f 16/20/20 15/19/19 22/22/22 23/23/23
f 17/21/21 16/20/20 23/23/23 24/24/24
f 18/15/15 17/21/21 24/24/24 25/25/25
f 19/16/16 18/15/15 25/25/25 26/26/26
f 20/17/17 19/16/16 26/26/26 27/27/27
f 21/18/18 20/17/17 27/27/27 28/28/28
f 26/29/26 25/30/25 32/31/29 33/32/30
f 27/33/27 26/29/26 33/32/30 34/34/31
f 28/35/28 27/33/27 34/34/31 35/36/32
f 23/37/23 22/38/22 29/39/33 30/40/34
f 24/41/24 23/37/23 30/40/34 31/42/35
f 25/30/25 24/41/24 31/42/35 32/31/29
f 30/40/34 29/39/33 36/43/36 37/44/37
f 31/42/35 30/40/34 37/44/37 38/45/38
f 32/31/29 31/42/35 38/45/38 39/46/39
f 33/32/30 32/31/29 39/46/39 40/47/40
f 34/34/31 33/32/30 40/47/40 41/48/41
f 35/36/32 34/34/31 41/48/41 42/49/42
f 41/48/41 40/47/40 47/50/43 48/51/44
f 42/49/42 41/48/41 48/51/44 49/52/45
f 37/44/37 36/43/36 43/53/46 44/54/47
f 38/45/38 37/44/37 44/54/47 45/55/48
f 39/46/39 38/45/38 45/55/48 46/56/49
f 40/47/40 39/46/39 46/56/49 47/50/43
