# Blender 4.0.1
# www.blender.org
mtllib Blade_Anime.mtl
o Blade_Anime
v -0.443706 -0.033686 1.103088
v -0.443706 -0.018157 1.103088
v -0.443706 -0.033686 1.369312
v -0.443706 -0.018157 1.369312
v 0.000000 -0.064746 1.103088
v 0.000000 -0.002627 1.103088
v 0.000000 -0.064746 1.369312
v 0.000000 -0.002627 1.369312
v -0.665559 -0.033686 1.300865
v -0.665559 -0.033686 1.171535
v -0.665559 -0.018157 1.171535
v -0.665559 -0.018157 1.300865
v -0.887412 -0.025641 1.236116
v -0.887412 -0.025641 1.236284
v -0.887412 -0.026202 1.236284
v -0.887412 -0.026202 1.236116
v -0.443706 -0.033686 0.730375
v -0.443706 -0.018157 0.730375
v -0.443706 -0.033686 0.996599
v -0.443706 -0.018157 0.996599
v 0.000000 -0.064746 0.730375
v 0.000000 -0.002627 0.730375
v 0.000000 -0.064746 0.996599
v 0.000000 -0.002627 0.996599
v -0.665559 -0.033686 0.928152
v -0.665559 -0.033686 0.798823
v -0.665559 -0.018157 0.798823
v -0.665559 -0.018157 0.928152
v -0.887412 -0.025641 0.863403
v -0.887412 -0.025641 0.863572
v -0.887412 -0.026202 0.863572
v -0.887412 -0.026202 0.863403
v -0.443706 -0.033686 0.357662
v -0.443706 -0.018157 0.357662
v -0.443706 -0.033686 0.623886
v -0.443706 -0.018157 0.623886
v 0.000000 -0.064746 0.357662
v 0.000000 -0.002627 0.357662
v 0.000000 -0.064746 0.623886
v 0.000000 -0.002627 0.623886
v -0.665559 -0.033686 0.555439
v -0.665559 -0.033686 0.426109
v -0.665559 -0.018157 0.426109
v -0.665559 -0.018157 0.555439
v -0.887412 -0.025641 0.490690
v -0.887412 -0.025641 0.490858
v -0.887412 -0.026202 0.490858
v -0.887412 -0.026202 0.490690
v -0.443706 -0.033686 -0.015051
v -0.443706 -0.018157 -0.015051
v -0.443706 -0.033686 0.251173
v -0.443706 -0.018157 0.251173
v 0.000000 -0.064746 -0.015051
v 0.000000 -0.002627 -0.015051
v 0.000000 -0.064746 0.251173
v 0.000000 -0.002627 0.251173
v -0.665559 -0.033686 0.182726
v -0.665559 -0.033686 0.053396
v -0.665559 -0.018157 0.053396
v -0.665559 -0.018157 0.182726
v -0.887412 -0.025641 0.117977
v -0.887412 -0.025641 0.118146
v -0.887412 -0.026202 0.118146
v -0.887412 -0.026202 0.117977
v -0.443706 -0.033686 -0.387764
v -0.443706 -0.018157 -0.387764
v -0.443706 -0.033686 -0.121540
v -0.443706 -0.018157 -0.121540
v 0.000000 -0.064746 -0.387764
v 0.000000 -0.002627 -0.387764
v 0.000000 -0.064746 -0.121540
v 0.000000 -0.002627 -0.121540
v -0.665559 -0.033686 -0.189987
v -0.665559 -0.033686 -0.319316
v -0.665559 -0.018157 -0.319316
v -0.665559 -0.018157 -0.189987
v -0.887412 -0.025641 -0.254736
v -0.887412 -0.025641 -0.254567
v -0.887412 -0.026202 -0.254567
v -0.887412 -0.026202 -0.254736
v -0.443706 -0.033686 -0.760476
v -0.443706 -0.018157 -0.760476
v -0.443706 -0.033686 -0.494253
v -0.443706 -0.018157 -0.494253
v 0.000000 -0.064746 -0.760476
v 0.000000 -0.002627 -0.760476
v 0.000000 -0.064746 -0.494253
v 0.000000 -0.002627 -0.494253
v -0.665559 -0.033686 -0.562700
v -0.665559 -0.033686 -0.692029
v -0.665559 -0.018157 -0.692029
v -0.665559 -0.018157 -0.562700
v -0.887412 -0.025641 -0.627449
v -0.887412 -0.025641 -0.627280
v -0.887412 -0.026202 -0.627280
v -0.887412 -0.026202 -0.627449
v -0.443706 -0.033686 -1.133189
v -0.443706 -0.018157 -1.133189
v -0.443706 -0.033686 -0.866966
v -0.443706 -0.018157 -0.866966
v 0.000000 -0.064746 -1.133189
v 0.000000 -0.002627 -1.133189
v 0.000000 -0.064746 -0.866966
v 0.000000 -0.002627 -0.866966
v -0.665559 -0.033686 -0.935413
v -0.665559 -0.033686 -1.064742
v -0.665559 -0.018157 -1.064742
v -0.665559 -0.018157 -0.935413
v -0.887412 -0.025641 -1.000162
v -0.887412 -0.025641 -0.999993
v -0.887412 -0.026202 -0.999993
v -0.887412 -0.026202 -1.000162
v -0.443706 -0.033686 -1.505902
v -0.443706 -0.018157 -1.505902
v -0.443706 -0.033686 -1.239679
v -0.443706 -0.018157 -1.239679
v 0.000000 -0.064746 -1.505902
v 0.000000 -0.002627 -1.505902
v 0.000000 -0.064746 -1.239679
v 0.000000 -0.002627 -1.239679
v -0.665559 -0.033686 -1.308126
v -0.665559 -0.033686 -1.437455
v -0.665559 -0.018157 -1.437455
v -0.665559 -0.018157 -1.308126
v -0.887412 -0.025641 -1.372875
v -0.887412 -0.025641 -1.372706
v -0.887412 -0.026202 -1.372706
v -0.887412 -0.026202 -1.372875
v 0.445400 0.006114 1.324941
v 0.446023 -0.009410 1.324941
v 0.445400 0.006114 1.591165
v 0.446023 -0.009410 1.591165
v 0.000623 0.028438 1.324941
v 0.003115 -0.033656 1.324941
v 0.000623 0.028438 1.591165
v 0.003115 -0.033656 1.591165
v 0.667165 0.010475 1.522718
v 0.667165 0.010475 1.393389
v 0.667789 -0.005049 1.393389
v 0.667789 -0.005049 1.522718
v 0.889254 0.006794 1.457969
v 0.889254 0.006794 1.458137
v 0.889231 0.007355 1.458137
v 0.889231 0.007355 1.457969
v 0.445400 0.006114 0.952228
v 0.446023 -0.009410 0.952228
v 0.445400 0.006114 1.218452
v 0.446023 -0.009410 1.218452
v 0.000623 0.028438 0.952228
v 0.003115 -0.033656 0.952228
v 0.000623 0.028438 1.218452
v 0.003115 -0.033656 1.218452
v 0.667165 0.010475 1.150005
v 0.667165 0.010475 1.020675
v 0.667789 -0.005049 1.020675
v 0.667789 -0.005049 1.150005
v 0.889254 0.006794 1.085256
v 0.889254 0.006794 1.085425
v 0.889231 0.007355 1.085425
v 0.889231 0.007355 1.085256
v 0.445400 0.006114 0.579515
v 0.446023 -0.009410 0.579515
v 0.445400 0.006114 0.845739
v 0.446023 -0.009410 0.845739
v 0.000623 0.028438 0.579515
v 0.003115 -0.033656 0.579515
v 0.000623 0.028438 0.845739
v 0.003115 -0.033656 0.845739
v 0.667165 0.010475 0.777292
v 0.667165 0.010475 0.647962
v 0.667789 -0.005049 0.647962
v 0.667789 -0.005049 0.777292
v 0.889254 0.006794 0.712543
v 0.889254 0.006794 0.712711
v 0.889231 0.007355 0.712711
v 0.889231 0.007355 0.712543
v 0.445400 0.006114 0.206802
v 0.446023 -0.009410 0.206802
v 0.445400 0.006114 0.473026
v 0.446023 -0.009410 0.473026
v 0.000623 0.028438 0.206802
v 0.003115 -0.033656 0.206802
v 0.000623 0.028438 0.473026
v 0.003115 -0.033656 0.473026
v 0.667165 0.010475 0.404579
v 0.667165 0.010475 0.275249
v 0.667789 -0.005049 0.275249
v 0.667789 -0.005049 0.404579
v 0.889254 0.006794 0.339830
v 0.889254 0.006794 0.339999
v 0.889231 0.007355 0.339999
v 0.889231 0.007355 0.339830
v 0.445400 0.006114 -0.165911
v 0.446023 -0.009410 -0.165911
v 0.445400 0.006114 0.100313
v 0.446023 -0.009410 0.100313
v 0.000623 0.028438 -0.165911
v 0.003115 -0.033656 -0.165911
v 0.000623 0.028438 0.100313
v 0.003115 -0.033656 0.100313
v 0.667165 0.010475 0.031866
v 0.667165 0.010475 -0.097464
v 0.667789 -0.005049 -0.097464
v 0.667789 -0.005049 0.031866
v 0.889254 0.006794 -0.032883
v 0.889254 0.006794 -0.032714
v 0.889231 0.007355 -0.032714
v 0.889231 0.007355 -0.032883
v 0.445400 0.006114 -0.538624
v 0.446023 -0.009410 -0.538624
v 0.445400 0.006114 -0.272400
v 0.446023 -0.009410 -0.272400
v 0.000623 0.028438 -0.538624
v 0.003115 -0.033656 -0.538624
v 0.000623 0.028438 -0.272400
v 0.003115 -0.033656 -0.272400
v 0.667165 0.010475 -0.340847
v 0.667165 0.010475 -0.470177
v 0.667789 -0.005049 -0.470177
v 0.667789 -0.005049 -0.340847
v 0.889254 0.006794 -0.405596
v 0.889254 0.006794 -0.405428
v 0.889231 0.007355 -0.405428
v 0.889231 0.007355 -0.405596
v 0.445400 0.006114 -0.911337
v 0.446023 -0.009410 -0.911337
v 0.445400 0.006114 -0.645113
v 0.446023 -0.009410 -0.645113
v 0.000623 0.028438 -0.911337
v 0.003115 -0.033656 -0.911337
v 0.000623 0.028438 -0.645113
v 0.003115 -0.033656 -0.645113
v 0.667165 0.010475 -0.713560
v 0.667165 0.010475 -0.842890
v 0.667789 -0.005049 -0.842890
v 0.667789 -0.005049 -0.713560
v 0.889254 0.006794 -0.778309
v 0.889254 0.006794 -0.778141
v 0.889231 0.007355 -0.778141
v 0.889231 0.007355 -0.778309
v 0.445400 0.006114 -1.284050
v 0.446023 -0.009410 -1.284050
v 0.445400 0.006114 -1.017826
v 0.446023 -0.009410 -1.017826
v 0.000623 0.028438 -1.284050
v 0.003115 -0.033656 -1.284050
v 0.000623 0.028438 -1.017826
v 0.003115 -0.033656 -1.017826
v 0.667165 0.010475 -1.086273
v 0.667165 0.010475 -1.215602
v 0.667789 -0.005049 -1.215602
v 0.667789 -0.005049 -1.086273
v 0.889254 0.006794 -1.151022
v 0.889254 0.006794 -1.150854
v 0.889231 0.007355 -1.150854
v 0.889231 0.007355 -1.151022
v 0.445400 0.006114 -1.656763
v 0.446023 -0.009410 -1.656763
v 0.445400 0.006114 -1.390539
v 0.446023 -0.009410 -1.390539
v 0.000623 0.028438 -1.656763
v 0.003115 -0.033656 -1.656763
v 0.000623 0.028438 -1.390539
v 0.003115 -0.033656 -1.390539
v 0.667165 0.010475 -1.458986
v 0.667165 0.010475 -1.588315
v 0.667789 -0.005049 -1.588315
v 0.667789 -0.005049 -1.458986
v 0.889254 0.006794 -1.523735
v 0.889254 0.006794 -1.523566
v 0.889231 0.007355 -1.523566
v 0.889231 0.007355 -1.523735
vn 0.2948 -0.0000 -0.9556
vn -0.0000 -0.0000 -1.0000
vn -1.0000 -0.0000 -0.0000
vn -0.0000 -0.0000 1.0000
vn 0.0698 0.9976 -0.0000
vn 0.0350 -0.9994 -0.0000
vn 0.0362 -0.9993 -0.0000
vn 0.2948 -0.0000 0.9556
vn -0.0000 -1.0000 -0.0000
vn -0.0000 1.0000 -0.0000
vn 1.0000 -0.0000 -0.0000
vn 0.0362 0.9993 -0.0000
vn 0.2802 -0.0000 -0.9600
vn 0.2802 -0.0000 0.9600
vn -0.2947 -0.0118 -0.9555
vn 0.9992 0.0401 -0.0000
vn -0.0501 -0.9987 -0.0000
vn -0.0547 0.9985 -0.0000
vn -0.0559 0.9984 -0.0000
vn -0.2947 -0.0118 0.9555
vn -0.0197 0.9998 -0.0000
vn 0.0197 -0.9998 -0.0000
vn -0.9992 -0.0401 -0.0000
vn -0.0166 -0.9999 -0.0000
vn -0.2800 -0.0112 -0.9599
vn -0.2800 -0.0112 0.9599
vt 0.625000 0.250000
vt 0.375000 0.250000
vt 0.625000 0.500000
vt 0.375000 0.500000
vt 0.625000 0.750000
vt 0.375000 0.750000
vt 0.625000 1.000000
vt 0.375000 1.000000
vt 0.125000 0.500000
vt 0.125000 0.750000
vt 0.875000 0.500000
vt 0.875000 0.750000
vt 0.375000 0.000000
vt 0.625000 0.000000
s 0
f 4/1/1 3/2/1 9/2/1 12/1/1
f 3/2/2 4/1/2 8/3/2 7/4/2
f 7/4/3 8/3/3 6/5/3 5/6/3
f 5/6/4 6/5/4 2/7/4 1/8/4
f 3/9/5 7/4/5 5/6/5 1/10/5
f 8/3/6 4/11/6 2/12/6 6/5/6
f 11/12/7 12/11/7 16/11/7 15/12/7
f 1/8/8 2/7/8 11/7/8 10/8/8
f 2/12/9 4/11/9 12/11/9 11/12/9
f 3/9/10 1/10/10 10/10/10 9/9/10
f 14/13/11 15/14/11 16/1/11 13/2/11
f 9/9/12 10/10/12 14/10/12 13/9/12
f 12/1/13 9/2/13 13/2/13 16/1/13
f 10/8/14 11/7/14 15/7/14 14/8/14
f 20/1/1 19/2/1 25/2/1 28/1/1
f 19/2/2 20/1/2 24/3/2 23/4/2
f 23/4/3 24/3/3 22/5/3 21/6/3
f 21/6/4 22/5/4 18/7/4 17/8/4
f 19/9/5 23/4/5 21/6/5 17/10/5
f 24/3/6 20/11/6 18/12/6 22/5/6
f 27/12/7 28/11/7 32/11/7 31/12/7
f 17/8/8 18/7/8 27/7/8 26/8/8
f 18/12/9 20/11/9 28/11/9 27/12/9
f 19/9/10 17/10/10 26/10/10 25/9/10
f 30/13/11 31/14/11 32/1/11 29/2/11
f 25/9/12 26/10/12 30/10/12 29/9/12
f 28/1/13 25/2/13 29/2/13 32/1/13
f 26/8/14 27/7/14 31/7/14 30/8/14
f 36/1/1 35/2/1 41/2/1 44/1/1
f 35/2/2 36/1/2 40/3/2 39/4/2
f 39/4/3 40/3/3 38/5/3 37/6/3
f 37/6/4 38/5/4 34/7/4 33/8/4
f 35/9/5 39/4/5 37/6/5 33/10/5
f 40/3/6 36/11/6 34/12/6 38/5/6
f 43/12/7 44/11/7 48/11/7 47/12/7
f 33/8/8 34/7/8 43/7/8 42/8/8
f 34/12/9 36/11/9 44/11/9 43/12/9
f 35/9/10 33/10/10 42/10/10 41/9/10
f 46/13/11 47/14/11 48/1/11 45/2/11
f 41/9/12 42/10/12 46/10/12 45/9/12
f 44/1/13 41/2/13 45/2/13 48/1/13
f 42/8/14 43/7/14 47/7/14 46/8/14
f 52/1/1 51/2/1 57/2/1 60/1/1
f 51/2/2 52/1/2 56/3/2 55/4/2
f 55/4/3 56/3/3 54/5/3 53/6/3
f 53/6/4 54/5/4 50/7/4 49/8/4
f 51/9/5 55/4/5 53/6/5 49/10/5
f 56/3/6 52/11/6 50/12/6 54/5/6
f 59/12/7 60/11/7 64/11/7 63/12/7
f 49/8/8 50/7/8 59/7/8 58/8/8
f 50/12/9 52/11/9 60/11/9 59/12/9
f 51/9/10 49/10/10 58/10/10 57/9/10
f 62/13/11 63/14/11 64/1/11 61/2/11
f 57/9/12 58/10/12 62/10/12 61/9/12
f 60/1/13 57/2/13 61/2/13 64/1/13
f 58/8/14 59/7/14 63/7/14 62/8/14
f 68/1/1 67/2/1 73/2/1 76/1/1
f 67/2/2 68/1/2 72/3/2 71/4/2
f 71/4/3 72/3/3 70/5/3 69/6/3
f 69/6/4 70/5/4 66/7/4 65/8/4
f 67/9/5 71/4/5 69/6/5 65/10/5
f 72/3/6 68/11/6 66/12/6 70/5/6
f 75/12/7 76/11/7 80/11/7 79/12/7
f 65/8/8 66/7/8 75/7/8 74/8/8
f 66/12/9 68/11/9 76/11/9 75/12/9
f 67/9/10 65/10/10 74/10/10 73/9/10
f 78/13/11 79/14/11 80/1/11 77/2/11
f 73/9/12 74/10/12 78/10/12 77/9/12
f 76/1/13 73/2/13 77/2/13 80/1/13
f 74/8/14 75/7/14 79/7/14 78/8/14
f 84/1/1 83/2/1 89/2/1 92/1/1
f 83/2/2 84/1/2 88/3/2 87/4/2
f 87/4/3 88/3/3 86/5/3 85/6/3
f 85/6/4 86/5/4 82/7/4 81/8/4
f 83/9/5 87/4/5 85/6/5 81/10/5
f 88/3/6 84/11/6 82/12/6 86/5/6
f 91/12/7 92/11/7 96/11/7 95/12/7
f 81/8/8 82/7/8 91/7/8 90/8/8
f 82/12/9 84/11/9 92/11/9 91/12/9
f 83/9/10 81/10/10 90/10/10 89/9/10
f 94/13/11 95/14/11 96/1/11 93/2/11
f 89/9/12 90/10/12 94/10/12 93/9/12
f 92/1/13 89/2/13 93/2/13 96/1/13
f 90/8/14 91/7/14 95/7/14 94/8/14
f 100/1/1 99/2/1 105/2/1 108/1/1
f 99/2/2 100/1/2 104/3/2 103/4/2
f 103/4/3 104/3/3 102/5/3 101/6/3
f 101/6/4 102/5/4 98/7/4 97/8/4
f 99/9/5 103/4/5 101/6/5 97/10/5
f 104/3/6 100/11/6 98/12/6 102/5/6
f 107/12/7 108/11/7 112/11/7 111/12/7
f 97/8/8 98/7/8 107/7/8 106/8/8
f 98/12/9 100/11/9 108/11/9 107/12/9
f 99/9/10 97/10/10 106/10/10 105/9/10
f 110/13/11 111/14/11 112/1/11 109/2/11
f 105/9/12 106/10/12 110/10/12 109/9/12
f 108/1/13 105/2/13 109/2/13 112/1/13
f 106/8/14 107/7/14 111/7/14 110/8/14
f 116/1/1 115/2/1 121/2/1 124/1/1
f 115/2/2 116/1/2 120/3/2 119/4/2
f 119/4/3 120/3/3 118/5/3 117/6/3
f 117/6/4 118/5/4 114/7/4 113/8/4
f 115/9/5 119/4/5 117/6/5 113/10/5
f 120/3/6 116/11/6 114/12/6 118/5/6
f 123/12/7 124/11/7 128/11/7 127/12/7
f 113/8/8 114/7/8 123/7/8 122/8/8
f 114/12/9 116/11/9 124/11/9 123/12/9
f 115/9/10 113/10/10 122/10/10 121/9/10
f 126/13/11 127/14/11 128/1/11 125/2/11
f 121/9/12 122/10/12 126/10/12 125/9/12
f 124/1/13 121/2/13 125/2/13 128/1/13
f 122/8/14 123/7/14 127/7/14 126/8/14
f 132/1/15 131/2/15 137/2/15 140/1/15
f 131/2/2 132/1/2 136/3/2 135/4/2
f 135/4/16 136/3/16 134/5/16 133/6/16
f 133/6/4 134/5/4 130/7/4 129/8/4
f 131/9/17 135/4/17 133/6/17 129/10/17
f 136/3/18 132/11/18 130/12/18 134/5/18
f 139/12/19 140/11/19 144/11/19 143/12/19
f 129/8/20 130/7/20 139/7/20 138/8/20
f 130/12/21 132/11/21 140/11/21 139/12/21
f 131/9/22 129/10/22 138/10/22 137/9/22
f 142/13/23 143/14/23 144/1/23 141/2/23
f 137/9/24 138/10/24 142/10/24 141/9/24
f 140/1/25 137/2/25 141/2/25 144/1/25
f 138/8/26 139/7/26 143/7/26 142/8/26
f 148/1/15 147/2/15 153/2/15 156/1/15
f 147/2/2 148/1/2 152/3/2 151/4/2
f 151/4/16 152/3/16 150/5/16 149/6/16
f 149/6/4 150/5/4 146/7/4 145/8/4
f 147/9/17 151/4/17 149/6/17 145/10/17
f 152/3/18 148/11/18 146/12/18 150/5/18
f 155/12/19 156/11/19 160/11/19 159/12/19
f 145/8/20 146/7/20 155/7/20 154/8/20
f 146/12/21 148/11/21 156/11/21 155/12/21
f 147/9/22 145/10/22 154/10/22 153/9/22
f 158/13/23 159/14/23 160/1/23 157/2/23
f 153/9/24 154/10/24 158/10/24 157/9/24
f 156/1/25 153/2/25 157/2/25 160/1/25
f 154/8/26 155/7/26 159/7/26 158/8/26
f 164/1/15 163/2/15 169/2/15 172/1/15
f 163/2/2 164/1/2 168/3/2 167/4/2
f 167/4/16 168/3/16 166/5/16 165/6/16
f 165/6/4 166/5/4 162/7/4 161/8/4
f 163/9/17 167/4/17 165/6/17 161/10/17
f 168/3/18 164/11/18 162/12/18 166/5/18
f 171/12/19 172/11/19 176/11/19 175/12/19
f 161/8/20 162/7/20 171/7/20 170/8/20
f 162/12/21 164/11/21 172/11/21 171/12/21
f 163/9/22 161/10/22 170/10/22 169/9/22
f 174/13/23 175/14/23 176/1/23 173/2/23
f 169/9/24 170/10/24 174/10/24 173/9/24
f 172/1/25 169/2/25 173/2/25 176/1/25
f 170/8/26 171/7/26 175/7/26 174/8/26
f 180/1/15 179/2/15 185/2/15 188/1/15
f 179/2/2 180/1/2 184/3/2 183/4/2
f 183/4/16 184/3/16 182/5/16 181/6/16
f 181/6/4 182/5/4 178/7/4 177/8/4
f 179/9/17 183/4/17 181/6/17 177/10/17
f 184/3/18 180/11/18 178/12/18 182/5/18
f 187/12/19 188/11/19 192/11/19 191/12/19
f 177/8/20 178/7/20 187/7/20 186/8/20
f 178/12/21 180/11/21 188/11/21 187/12/21
f 179/9/22 177/10/22 186/10/22 185/9/22
f 190/13/23 191/14/23 192/1/23 189/2/23
f 185/9/24 186/10/24 190/10/24 189/9/24
f 188/1/25 185/2/25 189/2/25 192/1/25
f 186/8/26 187/7/26 191/7/26 190/8/26
f 196/1/15 195/2/15 201/2/15 204/1/15
f 195/2/2 196/1/2 200/3/2 199/4/2
f 199/4/16 200/3/16 198/5/16 197/6/16
f 197/6/4 198/5/4 194/7/4 193/8/4
f 195/9/17 199/4/17 197/6/17 193/10/17
f 200/3/18 196/11/18 194/12/18 198/5/18
f 203/12/19 204/11/19 208/11/19 207/12/19
f 193/8/20 194/7/20 203/7/20 202/8/20
f 194/12/21 196/11/21 204/11/21 203/12/21
f 195/9/22 193/10/22 202/10/22 201/9/22
f 206/13/23 207/14/23 208/1/23 205/2/23
f 201/9/24 202/10/24 206/10/24 205/9/24
f 204/1/25 201/2/25 205/2/25 208/1/25
f 202/8/26 203/7/26 207/7/26 206/8/26
f 212/1/15 211/2/15 217/2/15 220/1/15
f 211/2/2 212/1/2 216/3/2 215/4/2
f 215/4/16 216/3/16 214/5/16 213/6/16
f 213/6/4 214/5/4 210/7/4 209/8/4
f 211/9/17 215/4/17 213/6/17 209/10/17
f 216/3/18 212/11/18 210/12/18 214/5/18
f 219/12/19 220/11/19 224/11/19 223/12/19
f 209/8/20 210/7/20 219/7/20 218/8/20
f 210/12/21 212/11/21 220/11/21 219/12/21
f 211/9/22 209/10/22 218/10/22 217/9/22
f 222/13/23 223/14/23 224/1/23 221/2/23
f 217/9/24 218/10/24 222/10/24 221/9/24
f 220/1/25 217/2/25 221/2/25 224/1/25
f 218/8/26 219/7/26 223/7/26 222/8/26
f 228/1/15 227/2/15 233/2/15 236/1/15
f 227/2/2 228/1/2 232/3/2 231/4/2
f 231/4/16 232/3/16 230/5/16 229/6/16
f 229/6/4 230/5/4 226/7/4 225/8/4
f 227/9/17 231/4/17 229/6/17 225/10/17
f 232/3/18 228/11/18 226/12/18 230/5/18
f 235/12/19 236/11/19 240/11/19 239/12/19
f 225/8/20 226/7/20 235/7/20 234/8/20
f 226/12/21 228/11/21 236/11/21 235/12/21
f 227/9/22 225/10/22 234/10/22 233/9/22
f 238/13/23 239/14/23 240/1/23 237/2/23
f 233/9/24 234/10/24 238/10/24 237/9/24
f 236/1/25 233/2/25 237/2/25 240/1/25
f 234/8/26 235/7/26 239/7/26 238/8/26
f 244/1/15 243/2/15 249/2/15 252/1/15
f 243/2/2 244/1/2 248/3/2 247/4/2
f 247/4/16 248/3/16 246/5/16 245/6/16
f 245/6/4 246/5/4 242/7/4 241/8/4
f 243/9/17 247/4/17 245/6/17 241/10/17
f 248/3/18 244/11/18 242/12/18 246/5/18
f 251/12/19 252/11/19 256/11/19 255/12/19
f 241/8/20 242/7/20 251/7/20 250/8/20
f 242/12/21 244/11/21 252/11/21 251/12/21
f 243/9/22 241/10/22 250/10/22 249/9/22
f 254/13/23 255/14/23 256/1/23 253/2/23
f 249/9/24 250/10/24 254/10/24 253/9/24
f 252/1/25 249/2/25 253/2/25 256/1/25
f 250/8/26 251/7/26 255/7/26 254/8/26
f 260/1/15 259/2/15 265/2/15 268/1/15
f 259/2/2 260/1/2 264/3/2 263/4/2
f 263/4/16 264/3/16 262/5/16 261/6/16
f 261/6/4 262/5/4 258/7/4 257/8/4
f 259/9/17 263/4/17 261/6/17 257/10/17
f 264/3/18 260/11/18 258/12/18 262/5/18
f 267/12/19 268/11/19 272/11/19 271/12/19
f 257/8/20 258/7/20 267/7/20 266/8/20
f 258/12/21 260/11/21 268/11/21 267/12/21
f 259/9/22 257/10/22 266/10/22 265/9/22
f 270/13/23 271/14/23 272/1/23 269/2/23
f 265/9/24 266/10/24 270/10/24 269/9/24
f 268/1/25 265/2/25 269/2/25 272/1/25
f 266/8/26 267/7/26 271/7/26 270/8/26
