# Blender 4.0.1
# www.blender.org
mtllib Jumper.mtl
o Cataputle
v 0.641624 0.003287 0.892857
v 0.449490 0.083860 -0.000000
v 0.449490 0.256140 -0.000000
v 0.641624 0.218873 0.906723
v -0.449490 0.083860 -0.000000
v -0.641625 0.003287 0.892857
v -0.641625 0.218873 0.906723
v -0.449490 0.256140 -0.000000
v -0.300000 -0.003271 2.000812
v -0.641625 0.003287 0.892857
v -0.416387 -0.003271 2.000809
v -0.532710 -0.003270 2.000610
v -0.648353 -0.003257 1.998336
v -0.760428 -0.003183 1.985834
v -0.856975 -0.002895 1.937241
v -0.897140 -0.002124 1.806980
v -0.870365 -0.001072 1.629287
v -0.818814 0.000016 1.445494
v -0.760669 0.001106 1.261291
v -0.701209 0.002197 1.077074
v -0.641625 0.218873 0.906723
v -0.300000 0.001941 1.993254
v -0.701209 0.182804 1.087378
v -0.760669 0.146735 1.268033
v -0.818814 0.110669 1.448675
v -0.870364 0.074684 1.628913
v -0.897140 0.039892 1.803170
v -0.856975 0.014388 1.930912
v -0.760428 0.004874 1.978565
v -0.648352 0.002426 1.990826
v -0.532709 0.001981 1.993056
v -0.416387 0.001942 1.993251
v 0.641624 0.003287 0.892857
v 0.300000 -0.003271 2.000812
v 0.701209 0.002197 1.077074
v 0.760669 0.001106 1.261291
v 0.818814 0.000016 1.445494
v 0.870364 -0.001072 1.629287
v 0.897140 -0.002124 1.806980
v 0.856975 -0.002895 1.937241
v 0.760428 -0.003183 1.985834
v 0.648352 -0.003257 1.998336
v 0.532709 -0.003270 2.000610
v 0.416387 -0.003271 2.000809
v 0.300000 0.001941 1.993254
v 0.641624 0.218873 0.906723
v 0.416386 0.001942 1.993251
v 0.532709 0.001981 1.993056
v 0.648352 0.002426 1.990826
v 0.760427 0.004874 1.978565
v 0.856975 0.014388 1.930912
v 0.897139 0.039892 1.803170
v 0.870364 0.074684 1.628913
v 0.818814 0.110669 1.448675
v 0.760669 0.146735 1.268033
v 0.701209 0.182804 1.087378
vn -0.0000 1.0000 -0.0000
vn -0.0000 0.8232 0.5677
vn -0.0000 0.9992 0.0411
vn -0.0000 -0.9960 -0.0899
vn -0.0000 0.9806 0.1958
vn -0.9780 0.0074 -0.2084
vn -0.0000 -1.0000 -0.0059
vn 0.9780 0.0074 -0.2084
vn -0.0000 0.8232 0.5678
vn 0.0008 0.8221 0.5693
vn 0.0098 0.8093 0.5874
vn 0.0668 0.7308 0.6793
vn 0.3835 0.4367 0.8138
vn 0.9520 0.0516 0.3017
vn 0.9885 -0.0054 -0.1510
vn 0.9623 0.0041 -0.2721
vn 0.9531 0.0117 -0.3026
vn 0.9511 0.0161 -0.3084
vn 0.9510 0.0188 -0.3087
vn -0.9510 0.0188 -0.3087
vn -0.9511 0.0161 -0.3084
vn -0.9531 0.0117 -0.3026
vn -0.9623 0.0041 -0.2721
vn -0.9885 -0.0054 -0.1510
vn -0.9520 0.0516 0.3017
vn -0.3835 0.4367 0.8138
vn -0.0668 0.7308 0.6793
vn -0.0098 0.8093 0.5874
vn -0.0008 0.8221 0.5693
vt 0.375000 0.812500
vt 0.625000 0.812500
vt 0.375000 0.587500
vt 0.625000 0.587500
vt 0.625000 0.662500
vt 0.375000 0.662500
vt 0.375000 0.437500
vt 0.625000 0.437500
vt 0.687500 0.500000
vt 0.750000 0.500000
vt 0.750000 0.750000
vt 0.687500 0.750000
vt 0.250000 0.500000
vt 0.312500 0.500000
vt 0.312500 0.750000
vt 0.250000 0.750000
vt 0.625000 0.572952
vt 0.625011 0.558407
vt 0.625140 0.543894
vt 0.625845 0.529525
vt 0.628586 0.515837
vt 0.635934 0.505497
vt 0.645958 0.501327
vt 0.656326 0.500223
vt 0.666717 0.500018
vt 0.677108 0.500000
vt 0.677108 0.750000
vt 0.666717 0.749982
vt 0.656326 0.749777
vt 0.645958 0.748673
vt 0.635934 0.744503
vt 0.628586 0.734163
vt 0.625845 0.720475
vt 0.625140 0.706106
vt 0.625011 0.691593
vt 0.625000 0.677048
vt 0.625000 0.875000
vt 0.375000 0.875000
vt 0.322892 0.500000
vt 0.333283 0.500018
vt 0.343674 0.500223
vt 0.354042 0.501327
vt 0.364066 0.505497
vt 0.371414 0.515837
vt 0.374155 0.529525
vt 0.374860 0.543894
vt 0.374989 0.558407
vt 0.375000 0.572952
vt 0.375000 0.677048
vt 0.374989 0.691593
vt 0.374860 0.706106
vt 0.374155 0.720475
vt 0.371414 0.734163
vt 0.364066 0.744503
vt 0.354042 0.748673
vt 0.343674 0.749777
vt 0.333283 0.749982
vt 0.322892 0.750000
vt 0.375000 0.375000
vt 0.625000 0.375000
vt 0.375008 0.558411
vt 0.624992 0.558411
vt 0.375102 0.543956
vt 0.624898 0.543956
vt 0.375617 0.529947
vt 0.624383 0.529947
vt 0.377620 0.517878
vt 0.622380 0.517878
vt 0.373304 0.486993
vt 0.626696 0.486993
vt 0.374598 0.478554
vt 0.625402 0.478554
vt 0.374933 0.468594
vt 0.625067 0.468594
vt 0.374994 0.458277
vt 0.625006 0.458277
vt 0.375000 0.447892
vt 0.625000 0.447892
vt 0.375000 0.802108
vt 0.625000 0.802108
vt 0.374994 0.791723
vt 0.625006 0.791723
vt 0.374933 0.781406
vt 0.625067 0.781406
vt 0.374598 0.771446
vt 0.625402 0.771446
vt 0.373304 0.763007
vt 0.626696 0.763007
vt 0.377620 0.732122
vt 0.622380 0.732122
vt 0.375617 0.720053
vt 0.624383 0.720053
vt 0.375102 0.706044
vt 0.624898 0.706044
vt 0.375008 0.691589
vt 0.624992 0.691589
s 0
f 10/1/1 21/2/1 7/2/1 6/1/1
f 34/3/2 45/4/2 22/5/2 9/6/2
f 1/7/1 4/8/1 46/8/1 33/7/1
f 4/9/3 3/10/3 8/11/3 7/12/3
f 2/13/4 1/14/4 6/15/4 5/16/4
f 45/4/5 47/17/5 48/18/5 49/19/5 50/20/5 51/21/5 52/22/5 53/23/5 54/24/5 55/25/5 56/26/5 46/9/5 4/9/5 7/12/5 21/12/5 23/27/5 24/28/5 25/29/5 26/30/5 27/31/5 28/32/5 29/33/5 30/34/5 31/35/5 32/36/5 22/5/5
f 6/1/6 7/2/6 8/37/6 5/38/6
f 1/14/7 33/14/7 35/39/7 36/40/7 37/41/7 38/42/7 39/43/7 40/44/7 41/45/7 42/46/7 43/47/7 44/48/7 34/3/7 9/6/7 11/49/7 12/50/7 13/51/7 14/52/7 15/53/7 16/54/7 17/55/7 18/56/7 19/57/7 20/58/7 10/15/7 6/15/7
f 2/59/8 3/60/8 4/8/8 1/7/8
f 45/4/9 34/3/9 44/48/9 47/17/9
f 47/17/10 44/48/10 43/61/10 48/62/10
f 48/62/11 43/61/11 42/63/11 49/64/11
f 49/64/12 42/63/12 41/65/12 50/66/12
f 50/66/13 41/65/13 40/67/13 51/68/13
f 51/68/14 40/67/14 39/69/14 52/70/14
f 52/70/15 39/69/15 38/71/15 53/72/15
f 53/72/16 38/71/16 37/73/16 54/74/16
f 54/74/17 37/73/17 36/75/17 55/76/17
f 55/76/18 36/75/18 35/77/18 56/78/18
f 56/78/19 35/77/19 33/7/19 46/8/19
f 21/2/20 10/1/20 20/79/20 23/80/20
f 23/80/21 20/79/21 19/81/21 24/82/21
f 24/82/22 19/81/22 18/83/22 25/84/22
f 25/84/23 18/83/23 17/85/23 26/86/23
f 26/86/24 17/85/24 16/87/24 27/88/24
f 27/88/25 16/87/25 15/89/25 28/90/25
f 28/90/26 15/89/26 14/91/26 29/92/26
f 29/92/27 14/91/27 13/93/27 30/94/27
f 30/94/28 13/93/28 12/95/28 31/96/28
f 31/96/29 12/95/29 11/49/29 32/36/29
f 32/36/9 11/49/9 9/6/9 22/5/9
